NotoSansMath.glyphspackage
{
glyphname = quotedbl;
kernLeft = quote.right;
kernRight = quote.left;
layers = (
{
anchors = (
{
name = center;
pos = (204,585);
}
);
layerId = master01;
shapes = (
{
closed = 1;
nodes = (
(323,456,l),
(343,714,l),
(248,714,l),
(268,456,l)
);
},
{
closed = 1;
nodes = (
(140,456,l),
(160,714,l),
(65,714,l),
(85,456,l)
);
}
);
width = 408;
}
);
unicode = 34;
}
{
glyphname = numbersign;
layers = (
{
anchors = (
{
name = center;
pos = (322,357);
}
);
layerId = master01;
shapes = (
{
closed = 1;
nodes = (
(183,0,l),
(222,209,l),
(365,209,l),
(324,0,l),
(395,0,l),
(436,209,l),
(586,209,l),
(586,276,l),
(449,276,l),
(480,436,l),
(620,436,l),
(620,502,l),
(493,502,l),
(533,714,l),
(464,714,l),
(424,502,l),
(280,502,l),
(320,714,l),
(248,714,l),
(208,502,l),
(62,502,l),
(62,436,l),
(196,436,l),
(164,276,l),
(25,276,l),
(25,209,l),
(151,209,l),
(113,0,l)
);
},
{
closed = 1;
nodes = (
(266,436,l),
(409,436,l),
(378,276,l),
(235,276,l)
);
}
);
width = 645;
}
);
unicode = 35;
}
{
glyphname = percent;
layers = (
{
anchors = (
{
name = center;
pos = (415,357);
}
);
layerId = master01;
shapes = (
{
closed = 1;
nodes = (
(256,0,l),
(652,714,l),
(575,714,l),
(179,0,l)
);
},
{
closed = 1;
nodes = (
(298,276,o),
(345,360,o),
(345,501,cs),
(345,642,o),
(293,724,o),
(195,724,cs),
(94,724,o),
(49,642,o),
(49,501,cs),
(49,360,o),
(100,276,o),
(195,276,cs)
);
},
{
closed = 1;
nodes = (
(144,339,o),
(122,394,o),
(122,501,cs),
(122,608,o),
(144,662,o),
(195,662,cs),
(247,662,o),
(272,608,o),
(272,501,cs),
(272,393,o),
(247,339,o),
(195,339,cs)
);
},
{
closed = 1;
nodes = (
(735,-10,o),
(782,74,o),
(782,215,cs),
(782,356,o),
(729,438,o),
(632,438,cs),
(531,438,o),
(486,356,o),
(486,215,cs),
(486,74,o),
(537,-10,o),
(632,-10,cs)
);
},
{
closed = 1;
nodes = (
(581,53,o),
(559,107,o),
(559,215,cs),
(559,322,o),
(581,375,o),
(632,375,cs),
(684,375,o),
(709,322,o),
(709,215,cs),
(709,106,o),
(684,53,o),
(632,53,cs)
);
}
);
width = 831;
}
);
unicode = 37;
}
{
glyphname = ampersand;
layers = (
{
anchors = (
{
name = center;
pos = (391,357);
}
);
layerId = master01;
shapes = (
{
closed = 1;
nodes = (
(389,-10,o),
(461,28,o),
(524,84,c),
(611,0,l),
(730,0,l),
(584,142,l),
(634,197,o),
(665,271,o),
(686,357,c),
(597,357,l),
(582,294,o),
(562,239,o),
(527,198,c),
(334,384,l),
(416,432,o),
(477,487,o),
(477,571,cs),
(477,668,o),
(411,725,o),
(304,725,cs),
(190,725,o),
(120,667,o),
(120,569,cs),
(120,496,o),
(164,444,o),
(207,396,c),
(112,342,o),
(53,288,o),
(53,186,cs),
(53,60,o),
(140,-10,o),
(278,-10,cs)
);
},
{
closed = 1;
nodes = (
(198,68,o),
(145,116,o),
(145,189,cs),
(145,261,o),
(188,298,o),
(260,341,c),
(468,139,l),
(426,100,o),
(366,68,o),
(281,68,cs)
);
},
{
closed = 1;
nodes = (
(232,485,o),
(206,522,o),
(206,570,cs),
(206,622,o),
(245,653,o),
(301,653,cs),
(355,653,o),
(390,619,o),
(390,571,cs),
(390,517,o),
(359,481,o),
(280,436,c)
);
}
);
width = 732;
}
);
unicode = 38;
}
{
glyphname = quotesingle;
kernLeft = quote.right;
kernRight = quote.left;
layers = (
{
anchors = (
{
name = center;
pos = (112,585);
}
);
layerId = master01;
shapes = (
{
closed = 1;
nodes = (
(140,456,l),
(160,714,l),
(65,714,l),
(85,456,l)
);
}
);
width = 225;
}
);
unicode = 39;
}
{
glyphname = asterisk;
layers = (
{
layerId = master01;
shapes = (
{
closed = 1;
nodes = (
(272,485,l),
(357,310,l),
(443,357,l),
(324,515,l),
(508,530,l),
(494,622,l),
(302,568,l),
(322,760,l),
(224,760,l),
(245,568,l),
(55,622,l),
(41,530,l),
(223,515,l),
(106,357,l),
(195,310,l)
);
}
);
width = 551;
}
);
unicode = 42;
}
{
glyphname = plus;
layers = (
{
anchors = (
{
name = center;
pos = (285,353);
}
);
layerId = master01;
shapes = (
{
closed = 1;
nodes = (
(321,111,l),
(321,317,l),
(520,317,l),
(520,388,l),
(321,388,l),
(321,595,l),
(249,595,l),
(249,388,l),
(50,388,l),
(50,317,l),
(249,317,l),
(249,111,l)
);
}
);
width = 572;
}
);
unicode = 43;
}
{
glyphname = comma;
layers = (
{
anchors = (
{
name = center;
pos = (116,-7);
}
);
layerId = master01;
shapes = (
{
closed = 1;
nodes = (
(106,-129,l),
(138,-57,o),
(174,34,o),
(192,105,c),
(185,116,l),
(91,116,l),
(81,46,o),
(60,-53,o),
(41,-129,c)
);
}
);
width = 268;
}
);
unicode = 44;
}
{
glyphname = hyphen;
kernLeft = hyphen.right;
kernRight = hyphen.left;
layers = (
{
layerId = master01;
shapes = (
{
closed = 1;
nodes = (
(282,229,l),
(282,307,l),
(40,307,l),
(40,229,l)
);
}
);
width = 322;
}
);
unicode = 45;
}
{
glyphname = period;
kernLeft = period.right;
kernRight = period.left;
layers = (
{
anchors = (
{
name = center;
pos = (134,53);
}
);
layerId = master01;
shapes = (
{
closed = 1;
nodes = (
(167,-14,o),
(196,6,o),
(196,54,cs),
(196,103,o),
(167,121,o),
(133,121,cs),
(99,121,o),
(72,103,o),
(72,54,cs),
(72,6,o),
(99,-14,o),
(133,-14,cs)
);
}
);
width = 268;
}
);
unicode = 46;
}
{
glyphname = one;
layers = (
{
anchors = (
{
name = center;
pos = (222,357);
}
);
layerId = master01;
shapes = (
{
closed = 1;
nodes = (
(355,0,l),
(355,714,l),
(282,714,l),
(89,564,l),
(135,505,l),
(211,567,ls),
(237,589,o),
(252,602,o),
(273,622,c),
(270,584,o),
(269,556,o),
(269,499,cs),
(269,0,l)
);
}
);
width = 572;
}
);
unicode = (49,120803);
}
{
glyphname = two;
layers = (
{
anchors = (
{
name = center;
pos = (284,362);
}
);
layerId = master01;
shapes = (
{
closed = 1;
nodes = (
(520,0,l),
(520,80,l),
(159,80,l),
(159,84,l),
(308,231,ls),
(417,339,o),
(491,422,o),
(491,534,cs),
(491,652,o),
(408,724,o),
(275,724,cs),
(184,724,o),
(112,687,o),
(56,640,c),
(103,581,l),
(158,624,o),
(205,649,o),
(275,649,cs),
(350,649,o),
(401,607,o),
(401,529,cs),
(401,432,o),
(342,370,o),
(235,262,cs),
(48,73,l),
(48,0,l)
);
}
);
width = 572;
}
);
unicode = (50,120804);
}
{
glyphname = seven;
layers = (
{
anchors = (
{
name = center;
pos = (283,357);
}
);
layerId = master01;
shapes = (
{
closed = 1;
nodes = (
(233,0,l),
(523,646,l),
(523,714,l),
(44,714,l),
(44,634,l),
(429,634,l),
(136,0,l)
);
}
);
width = 572;
}
);
unicode = (55,120809);
}
{
glyphname = semicolon;
layers = (
{
anchors = (
{
name = center;
pos = (112,210);
}
);
layerId = master01;
shapes = (
{
closed = 1;
nodes = (
(97,-129,l),
(129,-58,o),
(165,35,o),
(183,105,c),
(176,116,l),
(82,116,l),
(72,46,o),
(50,-54,o),
(31,-129,c)
);
},
{
closed = 1;
nodes = (
(166,414,o),
(194,434,o),
(194,482,cs),
(194,532,o),
(166,550,o),
(131,550,cs),
(97,550,o),
(70,532,o),
(70,482,cs),
(70,434,o),
(97,414,o),
(131,414,cs)
);
}
);
width = 268;
}
);
unicode = 59;
}
{
glyphname = less;
layers = (
{
layerId = master01;
shapes = (
{
closed = 1;
nodes = (
(521,194,l),
(144,352,l),
(521,530,l),
(521,608,l),
(50,373,l),
(50,323,l),
(521,116,l)
);
}
);
width = 572;
}
);
unicode = 60;
}
{
glyphname = equal;
layers = (
{
anchors = (
{
name = center;
pos = (286,278);
}
);
layerId = master01;
shapes = (
{
closed = 1;
nodes = (
(521,342,l),
(521,413,l),
(51,413,l),
(51,342,l)
);
},
{
closed = 1;
nodes = (
(521,143,l),
(521,214,l),
(51,214,l),
(51,143,l)
);
}
);
width = 572;
}
);
unicode = 61;
}
{
glyphname = question;
layers = (
{
anchors = (
{
name = center;
pos = (210,355);
}
);
layerId = master01;
shapes = (
{
closed = 1;
nodes = (
(210,201,l),
(210,218,ls),
(210,275,o),
(222,302,o),
(290,358,cs),
(362,418,o),
(408,459,o),
(408,549,cs),
(408,657,o),
(336,724,o),
(209,724,cs),
(129,724,o),
(65,703,o),
(12,675,c),
(43,605,l),
(89,627,o),
(137,647,o),
(203,647,cs),
(281,647,o),
(324,611,o),
(324,547,cs),
(324,487,o),
(301,463,o),
(224,398,cs),
(159,343,o),
(140,303,o),
(140,228,cs),
(140,201,l)
);
},
{
closed = 1;
nodes = (
(212,-14,o),
(240,6,o),
(240,54,cs),
(240,103,o),
(212,121,o),
(179,121,cs),
(143,121,o),
(117,103,o),
(117,54,cs),
(117,6,o),
(143,-14,o),
(179,-14,cs)
);
}
);
width = 434;
}
);
unicode = 63;
}
{
glyphname = at;
layers = (
{
anchors = (
{
name = center;
pos = (449,312);
}
);
layerId = master01;
shapes = (
{
closed = 1;
nodes = (
(519,-89,o),
(591,-72,o),
(648,-48,c),
(648,20,l),
(591,-2,o),
(514,-23,o),
(433,-23,cs),
(237,-23,o),
(130,86,o),
(130,283,cs),
(130,495,o),
(254,648,o),
(482,648,cs),
(648,648,o),
(771,543,o),
(771,358,cs),
(771,255,o),
(736,171,o),
(674,171,cs),
(641,171,o),
(612,187,o),
(612,257,cs),
(612,261,o),
(612,269,o),
(613,293,cs),
(623,496,l),
(591,508,o),
(529,520,o),
(470,520,cs),
(340,520,o),
(258,426,o),
(258,295,cs),
(258,183,o),
(315,109,o),
(417,109,cs),
(488,109,o),
(534,147,o),
(558,196,c),
(563,196,l),
(571,150,o),
(607,109,o),
(668,109,cs),
(784,109,o),
(841,235,o),
(841,357,cs),
(841,578,o),
(690,714,o),
(482,714,cs),
(218,714,o),
(58,529,o),
(58,280,cs),
(58,48,o),
(197,-89,o),
(433,-89,cs)
);
},
{
closed = 1;
nodes = (
(372,171,o),
(336,207,o),
(336,293,cs),
(336,375,o),
(372,457,o),
(471,457,cs),
(499,457,o),
(527,452,o),
(545,447,c),
(539,322,ls),
(535,233,o),
(504,171,o),
(430,171,cs)
);
}
);
width = 899;
}
);
unicode = 64;
}
{
glyphname = D;
layers = (
{
anchors = (
{
name = bottom;
pos = (342,0);
},
{
name = center;
pos = (365,357);
},
{
name = math.ta;
pos = (361,0);
},
{
name = top;
pos = (361,714);
},
{
name = topright;
pos = (710,714);
}
);
layerId = master01;
shapes = (
{
closed = 1;
nodes = (
(296,0,ls),
(531,0,o),
(669,123,o),
(669,364,cs),
(669,593,o),
(532,714,o),
(317,714,cs),
(97,714,l),
(97,0,l)
);
},
{
closed = 1;
nodes = (
(187,637,l),
(304,637,ls),
(476,637,o),
(574,551,o),
(574,361,cs),
(574,173,o),
(477,77,o),
(284,77,cs),
(187,77,l)
);
}
);
width = 730;
}
);
unicode = (68,120227);
}
{
glyphname = J;
layers = (
{
anchors = (
{
name = bottom;
pos = (94,-170);
},
{
name = center;
pos = (150,262);
},
{
name = math.ta;
pos = (235,0);
},
{
name = top;
pos = (235,714);
},
{
name = topright;
pos = (351,714);
}
);
layerId = master01;
shapes = (
{
closed = 1;
nodes = (
(206,-190,o),
(280,-127,o),
(280,11,cs),
(280,714,l),
(190,714,l),
(190,4,ls),
(190,-87,o),
(142,-111,o),
(92,-111,cs),
(65,-111,o),
(41,-107,o),
(20,-101,c),
(20,-177,l),
(38,-185,o),
(62,-190,o),
(94,-190,cs)
);
}
);
width = 371;
}
);
unicode = (74,120233);
}
{
glyphname = K;
kernRight = K.left;
layers = (
{
anchors = (
{
name = bottom;
pos = (330,0);
},
{
name = center;
pos = (358,357);
},
{
name = math.ta;
pos = (340,764);
},
{
name = top;
pos = (340,714);
},
{
name = topright;
pos = (599,714);
}
);
layerId = master01;
shapes = (
{
closed = 1;
nodes = (
(187,0,l),
(187,277,l),
(260,341,l),
(513,0,l),
(619,0,l),
(325,403,l),
(608,714,l),
(503,714,l),
(310,498,ls),
(269,452,o),
(228,407,o),
(187,362,c),
(187,714,l),
(97,714,l),
(97,0,l)
);
}
);
width = 619;
}
);
unicode = 75;
}
{
glyphname = Q;
kernLeft = O.right;
kernRight = O.left;
layers = (
{
anchors = (
{
name = bottom;
pos = (391,-170);
},
{
name = center;
pos = (390,277);
},
{
name = math.ta;
pos = (391,0);
},
{
name = top;
pos = (391,714);
},
{
name = topright;
pos = (761,714);
}
);
layerId = master01;
shapes = (
{
closed = 1;
nodes = (
(683,-170,l),
(512,8,l),
(649,54,o),
(720,183,o),
(720,358,cs),
(720,580,o),
(606,725,o),
(392,725,cs),
(168,725,o),
(61,578,o),
(61,359,cs),
(61,138,o),
(168,-10,o),
(391,-10,cs),
(399,-10,o),
(402,-10,o),
(416,-9,c),
(554,-170,l)
);
},
{
closed = 1;
nodes = (
(230,68,o),
(156,178,o),
(156,358,cs),
(156,538,o),
(230,646,o),
(392,646,cs),
(553,646,o),
(625,538,o),
(625,358,cs),
(625,178,o),
(553,68,o),
(391,68,cs)
);
}
);
width = 781;
}
);
unicode = (81,120240);
}
{
glyphname = T;
kernLeft = T.right;
kernRight = T.left;
layers = (
{
anchors = (
{
name = bottom;
pos = (278,0);
},
{
name = center;
pos = (278,357);
},
{
name = math.ta;
pos = (278,0);
},
{
name = top;
pos = (278,714);
},
{
name = topright;
pos = (536,714);
}
);
layerId = master01;
shapes = (
{
closed = 1;
nodes = (
(323,0,l),
(323,635,l),
(545,635,l),
(545,714,l),
(10,714,l),
(10,635,l),
(233,635,l),
(233,0,l)
);
}
);
width = 556;
}
);
unicode = (84,120243);
}
{
glyphname = V;
kernLeft = V.right;
kernRight = V.left;
layers = (
{
anchors = (
{
name = bottom;
pos = (299,0);
},
{
name = center;
pos = (300,357);
},
{
name = math.ta;
pos = (303,0);
},
{
name = top;
pos = (303,714);
},
{
name = topright;
pos = (580,714);
}
);
layerId = master01;
shapes = (
{
closed = 1;
nodes = (
(345,0,l),
(600,714,l),
(505,714,l),
(345,258,ls),
(324,198,o),
(309,147,o),
(300,100,c),
(290,147,o),
(276,197,o),
(255,256,cs),
(94,714,l),
(0,714,l),
(255,0,l)
);
}
);
width = 600;
}
);
unicode = (86,120245);
}
{
glyphname = X;
layers = (
{
anchors = (
{
name = bottom;
pos = (293,0);
},
{
name = center;
pos = (293,357);
},
{
name = math.ta;
pos = (292,0);
},
{
name = top;
pos = (292,714);
},
{
name = topright;
pos = (566,714);
}
);
layerId = master01;
shapes = (
{
closed = 1;
nodes = (
(99,0,l),
(291,310,l),
(480,0,l),
(582,0,l),
(344,374,l),
(565,714,l),
(470,714,l),
(294,434,l),
(119,714,l),
(19,714,l),
(241,372,l),
(4,0,l)
);
}
);
width = 586;
}
);
unicode = (88,120247);
}
{
glyphname = Z;
layers = (
{
anchors = (
{
name = bottom;
pos = (297,0);
},
{
name = center;
pos = (285,357);
},
{
name = math.ta;
pos = (290,0);
},
{
name = top;
pos = (290,714);
},
{
name = topright;
pos = (552,714);
}
);
layerId = master01;
shapes = (
{
closed = 1;
nodes = (
(533,0,l),
(533,80,l),
(147,80,l),
(523,646,l),
(523,714,l),
(50,714,l),
(50,634,l),
(414,634,l),
(38,68,l),
(38,0,l)
);
}
);
width = 572;
}
);
unicode = (90,120249);
}
{
glyphname = asciicircum;
layers = (
{
anchors = (
{
name = center;
pos = (286,493);
}
);
layerId = master01;
shapes = (
{
closed = 1;
nodes = (
(116,267,l),
(276,626,l),
(456,267,l),
(534,267,l),
(300,719,l),
(250,719,l),
(38,267,l)
);
}
);
width = 572;
}
);
unicode = 94;
}
{
glyphname = underscore;
layers = (
{
anchors = (
{
name = center;
pos = (222,-126);
}
);
layerId = master01;
shapes = (
{
closed = 1;
nodes = (
(444,-131,l),
(444,-60,l),
(0,-60,l),
(0,-131,l)
);
}
);
userData = {
com.nagwa.MATHPlugin.variants = {
};
};
width = 444;
}
);
unicode = 95;
}
{
glyphname = b;
layers = (
{
anchors = (
{
name = bottom;
pos = (322,0);
},
{
name = center;
pos = (322,375);
},
{
name = math.ta;
pos = (338,0);
},
{
name = top;
pos = (338,760);
},
{
name = topright;
pos = (515,760);
}
);
layerId = master01;
shapes = (
{
closed = 1;
nodes = (
(471,-10,o),
(560,84,o),
(560,268,cs),
(560,452,o),
(472,545,o),
(339,545,cs),
(255,545,o),
(203,510,o),
(173,465,c),
(168,465,l),
(170,487,o),
(173,530,o),
(173,575,cs),
(173,760,l),
(85,760,l),
(85,0,l),
(148,0,l),
(166,68,l),
(173,68,l),
(203,25,o),
(255,-10,o),
(339,-10,cs)
);
},
{
closed = 1;
nodes = (
(208,63,o),
(173,135,o),
(173,267,cs),
(173,271,ls),
(173,408,o),
(210,472,o),
(324,472,cs),
(422,472,o),
(469,404,o),
(469,269,cs),
(469,136,o),
(422,63,o),
(326,63,cs)
);
}
);
width = 614;
}
);
metricRight = "=o";
unicode = (98,120251);
}
{
glyphname = c;
kernLeft = o.right;
layers = (
{
anchors = (
{
name = bottom;
pos = (281,0);
},
{
name = center;
pos = (251,268);
},
{
name = math.ta;
pos = (284,586);
},
{
name = top;
pos = (284,536);
},
{
name = topright;
pos = (460,536);
}
);
layerId = master01;
shapes = (
{
closed = 1;
nodes = (
(361,-10,o),
(402,0,o),
(438,19,c),
(438,97,l),
(401,80,o),
(357,66,o),
(299,66,cs),
(198,66,o),
(146,137,o),
(146,266,cs),
(146,400,o),
(197,469,o),
(304,469,cs),
(341,469,o),
(388,456,o),
(420,444,c),
(447,517,l),
(415,533,o),
(360,546,o),
(306,546,cs),
(162,546,o),
(55,463,o),
(55,265,cs),
(55,75,o),
(157,-10,o),
(300,-10,cs)
);
}
);
width = 480;
}
);
unicode = (99,120252);
}
{
glyphname = e;
kernLeft = o.right;
kernRight = o.left;
layers = (
{
anchors = (
{
name = bottom;
pos = (301,0);
},
{
name = center;
pos = (284,268);
},
{
name = math.ta;
pos = (285,586);
},
{
name = top;
pos = (285,536);
},
{
name = topright;
pos = (544,536);
}
);
layerId = master01;
shapes = (
{
closed = 1;
nodes = (
(386,-10,o),
(434,1,o),
(489,25,c),
(489,102,l),
(433,78,o),
(385,65,o),
(317,65,cs),
(210,65,o),
(149,130,o),
(146,251,c),
(513,251,l),
(513,304,ls),
(513,450,o),
(429,546,o),
(292,546,cs),
(150,546,o),
(55,440,o),
(55,264,cs),
(55,85,o),
(160,-10,o),
(313,-10,cs)
);
},
{
closed = 1;
nodes = (
(157,417,o),
(207,474,o),
(291,474,cs),
(380,474,o),
(421,412,o),
(421,321,c),
(148,321,l)
);
}
);
width = 564;
}
);
unicode = 101;
}
{
glyphname = f;
layers = (
{
anchors = (
{
name = bottom;
pos = (153,0);
},
{
name = center;
pos = (201,382);
},
{
name = math.ic;
pos = (407,0);
},
{
name = math.ta;
pos = (252,0);
},
{
name = top;
pos = (252,765);
},
{
name = topright;
pos = (380,765);
}
);
layerId = master01;
shapes = (
{
closed = 1;
nodes = (
(197,0,l),
(197,468,l),
(332,468,l),
(332,536,l),
(197,536,l),
(197,571,ls),
(197,655,o),
(225,693,o),
(284,693,cs),
(313,693,o),
(342,685,o),
(364,678,c),
(387,747,l),
(361,756,o),
(325,765,o),
(283,765,cs),
(173,765,o),
(109,708,o),
(109,570,cs),
(109,539,l),
(15,509,l),
(15,468,l),
(109,468,l),
(109,0,l)
);
}
);
width = 344;
}
);
unicode = (102,120255);
}
{
glyphname = h;
layers = (
{
anchors = (
{
name = bottom;
pos = (310,0);
},
{
name = center;
pos = (309,268);
},
{
name = math.ta;
pos = (340,0);
},
{
name = top;
pos = (130,760);
},
{
name = topright;
pos = (535,760);
}
);
layerId = master01;
shapes = (
{
closed = 1;
nodes = (
(173,0,l),
(173,277,ls),
(173,402,o),
(210,472,o),
(330,472,cs),
(412,472,o),
(450,429,o),
(450,343,cs),
(450,0,l),
(537,0,l),
(537,349,ls),
(537,486,o),
(471,545,o),
(341,545,cs),
(272,545,o),
(208,517,o),
(174,462,c),
(168,462,l),
(171,483,o),
(173,511,o),
(173,537,cs),
(173,760,l),
(85,760,l),
(85,0,l)
);
}
);
width = 618;
}
);
unicode = (104,120257);
}
{
glyphname = l;
layers = (
{
anchors = (
{
name = bottom;
pos = (129,0);
},
{
name = center;
pos = (129,268);
},
{
name = math.ta;
pos = (129,0);
},
{
name = top;
pos = (129,760);
},
{
name = topright;
pos = (202,760);
}
);
layerId = master01;
shapes = (
{
closed = 1;
nodes = (
(173,0,l),
(173,760,l),
(85,760,l),
(85,0,l)
);
}
);
width = 258;
}
);
unicode = (108,120261);
}
{
glyphname = n;
kernLeft = n.right;
kernRight = n.left;
layers = (
{
anchors = (
{
name = bottom;
pos = (309,0);
},
{
name = center;
pos = (311,273);
},
{
name = math.ta;
pos = (309,586);
},
{
name = top;
pos = (309,536);
},
{
name = topright;
pos = (562,536);
}
);
layerId = master01;
shapes = (
{
closed = 1;
nodes = (
(173,0,l),
(173,278,ls),
(173,403,o),
(211,472,o),
(330,472,cs),
(412,472,o),
(450,429,o),
(450,343,cs),
(450,0,l),
(537,0,l),
(537,349,ls),
(537,487,o),
(471,546,o),
(343,546,cs),
(275,546,o),
(209,519,o),
(174,463,c),
(169,463,l),
(156,536,l),
(85,536,l),
(85,0,l)
);
}
);
width = 618;
}
);
unicode = 110;
}
{
glyphname = o;
layers = (
{
anchors = (
{
name = bottom;
pos = (301,0);
},
{
name = center;
pos = (303,268);
},
{
name = math.ta;
pos = (303,0);
},
{
name = top;
pos = (303,536);
},
{
name = topright;
pos = (575,536);
}
);
layerId = master01;
shapes = (
{
closed = 1;
nodes = (
(454,-10,o),
(551,91,o),
(551,269,cs),
(551,446,o),
(449,546,o),
(304,546,cs),
(150,546,o),
(55,446,o),
(55,269,cs),
(55,91,o),
(159,-10,o),
(301,-10,cs)
);
},
{
closed = 1;
nodes = (
(194,63,o),
(146,142,o),
(146,269,cs),
(146,396,o),
(193,472,o),
(302,472,cs),
(411,472,o),
(460,396,o),
(460,269,cs),
(460,142,o),
(411,63,o),
(303,63,cs)
);
}
);
width = 605;
}
);
unicode = (111,120264);
}
{
glyphname = q;
kernLeft = o.right;
layers = (
{
anchors = (
{
name = bottom;
pos = (486,-240);
},
{
name = center;
pos = (292,153);
},
{
name = math.ta;
pos = (308,0);
},
{
name = top;
pos = (308,536);
},
{
name = topright;
pos = (555,536);
}
);
layerId = master01;
shapes = (
{
closed = 1;
nodes = (
(530,-240,l),
(530,536,l),
(460,536,l),
(447,463,l),
(443,463,l),
(411,509,o),
(360,546,o),
(276,546,cs),
(145,546,o),
(55,451,o),
(55,267,cs),
(55,83,o),
(143,-10,o),
(273,-10,cs),
(358,-10,o),
(410,26,o),
(441,72,c),
(447,72,l),
(443,49,o),
(442,13,o),
(442,-11,cs),
(442,-240,l)
);
},
{
closed = 1;
nodes = (
(192,63,o),
(146,138,o),
(146,265,cs),
(146,392,o),
(192,473,o),
(288,473,cs),
(404,473,o),
(443,402,o),
(443,266,cs),
(443,248,ls),
(441,123,o),
(400,63,o),
(290,63,cs)
);
}
);
width = 615;
}
);
metricLeft = "=o";
unicode = (113,120266);
}
{
glyphname = r;
kernLeft = n.right;
kernRight = r.left;
layers = (
{
anchors = (
{
name = bottom;
pos = (126,0);
},
{
name = center;
pos = (241,273);
},
{
name = math.ta;
pos = (240,0);
},
{
name = top;
pos = (240,536);
},
{
name = topright;
pos = (393,536);
}
);
layerId = master01;
shapes = (
{
closed = 1;
nodes = (
(173,0,l),
(173,286,ls),
(173,394,o),
(246,466,o),
(329,466,cs),
(347,466,o),
(370,463,o),
(387,459,c),
(398,540,l),
(380,544,o),
(355,546,o),
(335,546,cs),
(260,546,o),
(205,497,o),
(171,438,c),
(167,438,l),
(157,536,l),
(85,536,l),
(85,0,l)
);
}
);
width = 413;
}
);
unicode = (114,120267);
}
{
glyphname = s;
kernLeft = s.right;
layers = (
{
anchors = (
{
name = bottom;
pos = (240,0);
},
{
name = center;
pos = (242,268);
},
{
name = math.ta;
pos = (240,0);
},
{
name = top;
pos = (240,536);
},
{
name = topright;
pos = (439,536);
}
);
layerId = master01;
shapes = (
{
closed = 1;
nodes = (
(351,-10,o),
(434,44,o),
(434,148,cs),
(434,234,o),
(374,268,o),
(273,307,cs),
(170,347,o),
(135,364,o),
(135,409,cs),
(135,449,o),
(174,474,o),
(246,474,cs),
(298,474,o),
(348,459,o),
(393,440,c),
(423,510,l),
(373,532,o),
(317,546,o),
(252,546,cs),
(132,546,o),
(51,495,o),
(51,404,cs),
(51,316,o),
(113,284,o),
(217,244,cs),
(322,204,o),
(349,180,o),
(349,140,cs),
(349,92,o),
(311,61,o),
(222,61,cs),
(159,61,o),
(94,83,o),
(52,104,c),
(52,24,l),
(93,2,o),
(145,-10,o),
(220,-10,cs)
);
}
);
width = 479;
}
);
unicode = (115,120268);
}
{
glyphname = v;
layers = (
{
anchors = (
{
name = bottom;
pos = (252,0);
},
{
name = center;
pos = (254,268);
},
{
name = math.ta;
pos = (252,0);
},
{
name = top;
pos = (252,536);
},
{
name = topright;
pos = (488,536);
}
);
layerId = master01;
shapes = (
{
closed = 1;
nodes = (
(304,0,l),
(508,536,l),
(414,536,l),
(300,220,ls),
(285,177,o),
(262,111,o),
(255,78,c),
(251,78,l),
(245,111,o),
(224,176,o),
(208,220,cs),
(94,536,l),
(0,536,l),
(203,0,l)
);
}
);
width = 508;
}
);
unicode = (118,120271);
}
{
glyphname = w;
kernLeft = v.right;
kernRight = v.left;
layers = (
{
anchors = (
{
name = bottom;
pos = (391,0);
},
{
name = center;
pos = (393,269);
},
{
name = math.ta;
pos = (393,586);
},
{
name = top;
pos = (393,536);
},
{
name = topright;
pos = (766,536);
}
);
layerId = master01;
shapes = (
{
closed = 1;
nodes = (
(258,1,l),
(354,302,ls),
(372,358,o),
(385,415,o),
(390,445,c),
(394,445,l),
(400,415,o),
(414,358,o),
(431,303,cs),
(523,1,l),
(626,1,l),
(775,537,l),
(685,537,l),
(610,251,ls),
(594,190,o),
(578,125,o),
(574,92,c),
(570,92,l),
(565,130,o),
(548,189,o),
(534,235,cs),
(442,537,l),
(346,537,l),
(251,235,ls),
(237,191,o),
(222,124,o),
(215,91,c),
(211,91,l),
(206,129,o),
(191,193,o),
(176,251,cs),
(102,537,l),
(11,537,l),
(158,1,l)
);
}
);
width = 786;
}
);
unicode = (119,120272);
}
{
glyphname = bar;
layers = (
{
anchors = (
{
name = center;
pos = (216,325);
}
);
layerId = master01;
shapes = (
{
closed = 1;
nodes = (
(253,-158,l),
(253,784,l),
(180,784,l),
(180,-158,l)
);
}
);
userData = {
com.nagwa.MATHPlugin.variants = {
vAssembly = (
(
bar,
1,
0,
942
),
(
bar,
0,
942,
0
)
);
};
com.schriftgestaltung.Glyphs.glyph.rightMetricsKey = "=|";
};
width = 433;
}
);
unicode = 124;
userData = {
com.nagwa.MATHPlugin.extendedShape = 1;
com.nagwa.MATHPlugin.variants = {
vVariants = (
bar
);
};
};
}
{
glyphname = asciitilde;
layers = (
{
anchors = (
{
name = center;
pos = (286,277);
}
);
layerId = master01;
shapes = (
{
closed = 1;
nodes = (
(83,245,o),
(128,271,o),
(165,271,cs),
(194,271,o),
(222,265,o),
(270,244,cs),
(330,218,o),
(364,212,o),
(402,212,cs),
(450,212,o),
(490,231,o),
(522,266,c),
(522,343,l),
(490,310,o),
(446,284,o),
(407,284,cs),
(379,284,o),
(351,290,o),
(303,311,cs),
(242,337,o),
(209,343,o),
(171,343,cs),
(123,343,o),
(83,325,o),
(51,290,c),
(51,212,l)
);
}
);
width = 573;
}
);
unicode = 126;
}
{
glyphname = logicalnot;
layers = (
{
anchors = (
{
name = center;
pos = (286,258);
}
);
layerId = master01;
shapes = (
{
closed = 1;
nodes = (
(521,128,l),
(521,388,l),
(51,388,l),
(51,317,l),
(450,317,l),
(450,128,l)
);
}
);
width = 572;
}
);
unicode = 172;
}
{
glyphname = plusminus;
layers = (
{
layerId = master01;
shapes = (
{
closed = 1;
nodes = (
(521,0,l),
(521,71,l),
(50,71,l),
(50,0,l)
);
},
{
alignment = -1;
pos = (0,3);
ref = plus;
}
);
userData = {
com.schriftgestaltung.Glyphs.glyph.widthMetricsKey = "=plus";
};
width = 572;
}
);
unicode = 177;
}
{
glyphname = multiply;
layers = (
{
anchors = (
{
name = center;
pos = (286,353);
}
);
layerId = master01;
shapes = (
{
closed = 1;
nodes = (
(285,301,l),
(456,132,l),
(506,183,l),
(337,353,l),
(507,523,l),
(457,574,l),
(286,403,l),
(117,574,l),
(65,522,l),
(235,353,l),
(66,183,l),
(118,132,l)
);
}
);
width = 572;
}
);
unicode = 215;
}
{
glyphname = divide;
layers = (
{
anchors = (
{
name = center;
pos = (285,278);
}
);
layerId = master01;
shapes = (
{
closed = 1;
nodes = (
(521,243,l),
(521,314,l),
(50,314,l),
(50,243,l)
);
},
{
closed = 1;
nodes = (
(315,47,o),
(340,65,o),
(340,108,cs),
(340,153,o),
(315,168,o),
(285,168,cs),
(254,168,o),
(229,153,o),
(229,108,cs),
(229,65,o),
(254,47,o),
(285,47,cs)
);
},
{
closed = 1;
nodes = (
(315,388,o),
(340,406,o),
(340,449,cs),
(340,494,o),
(315,509,o),
(285,509,cs),
(254,509,o),
(229,494,o),
(229,449,cs),
(229,406,o),
(254,388,o),
(285,388,cs)
);
}
);
width = 572;
}
);
unicode = 247;
}
{
glyphname = idotless;
layers = (
{
anchors = (
{
name = bottom;
pos = (131,0);
},
{
name = center;
pos = (129,268);
},
{
name = math.ta;
pos = (129,586);
},
{
name = top;
pos = (129,536);
},
{
name = topright;
pos = (238,737);
}
);
layerId = master01;
shapes = (
{
closed = 1;
nodes = (
(173,0,l),
(173,536,l),
(85,536,l),
(85,0,l)
);
}
);
width = 258;
}
);
unicode = 305;
}
{
glyphname = jdotless;
layers = (
{
anchors = (
{
name = bottom;
pos = (97,-240);
},
{
name = center;
pos = (134,148);
},
{
name = math.ta;
pos = (204,0);
},
{
name = top;
pos = (204,536);
},
{
name = topright;
pos = (313,737);
}
);
layerId = master01;
shapes = (
{
closed = 1;
nodes = (
(202,-240,o),
(248,-180,o),
(248,-80,cs),
(248,536,l),
(160,536,l),
(160,-83,ls),
(160,-148,o),
(129,-167,o),
(86,-167,cs),
(60,-167,o),
(40,-163,o),
(20,-157,c),
(20,-228,l),
(38,-235,o),
(63,-240,o),
(97,-240,cs)
);
}
);
width = 333;
}
);
unicode = 567;
}
{
color = 4;
glyphname = uptackmod;
layers = (
{
anchors = (
{
name = center;
pos = (135,312);
}
);
layerId = master01;
shapes = (
{
closed = 1;
nodes = (
(235,227,l),
(235,277,l),
(162,277,l),
(162,397,l),
(108,397,l),
(108,277,l),
(35,277,l),
(35,227,l)
);
}
);
width = 270;
}
);
unicode = 724;
}
{
color = 4;
glyphname = downtackmod;
layers = (
{
layerId = master01;
shapes = (
{
closed = 1;
nodes = (
(162,227,l),
(162,347,l),
(235,347,l),
(235,397,l),
(35,397,l),
(35,347,l),
(108,347,l),
(108,227,l)
);
}
);
width = 270;
}
);
unicode = 725;
}
{
glyphname = acutecomb;
layers = (
{
anchors = (
{
name = _top;
pos = (93,536);
},
{
name = math.ta;
pos = (93,0);
},
{
name = top;
pos = (93,765);
}
);
layerId = master01;
shapes = (
{
closed = 1;
nodes = (
(241,766,l),
(135,766,l),
(112,721,o),
(69,655,o),
(40,618,c),
(40,606,l),
(98,606,l),
(145,642,o),
(216,719,o),
(241,756,c)
);
}
);
width = 281;
}
);
unicode = 769;
}
{
glyphname = macroncomb;
layers = (
{
anchors = (
{
name = _top;
pos = (189,536);
},
{
name = math.ta;
pos = (189,0);
},
{
name = top;
pos = (189,679);
}
);
layerId = master01;
shapes = (
{
closed = 1;
nodes = (
(40,677,l),
(40,606,l),
(337,606,l),
(337,677,l)
);
}
);
width = 377;
}
);
unicode = 772;
}
{
glyphname = brevecomb;
layers = (
{
anchors = (
{
name = _top;
pos = (196,536);
},
{
name = math.ta;
pos = (195,486);
},
{
name = top;
pos = (196,737);
}
);
layerId = master01;
shapes = (
{
closed = 1;
nodes = (
(296,740,l),
(289,688,o),
(247,677,o),
(195,677,cs),
(134,677,o),
(100,685,o),
(94,740,c),
(40,740,l),
(45,658,o),
(94,606,o),
(193,606,cs),
(289,606,o),
(344,660,o),
(351,740,c)
);
}
);
width = 391;
}
);
unicode = 774;
}
{
glyphname = dieresiscomb;
layers = (
{
anchors = (
{
name = _top;
pos = (140,536);
},
{
name = math.ta;
pos = (140,486);
},
{
name = top;
pos = (140,725);
}
);
layerId = master01;
shapes = (
{
closed = 1;
nodes = (
(72,631,o),
(94,647,o),
(94,681,cs),
(94,716,o),
(72,730,o),
(47,730,cs),
(21,730,o),
(0,716,o),
(0,681,cs),
(0,647,o),
(21,631,o),
(47,631,cs)
);
},
{
closed = 1;
nodes = (
(259,631,o),
(281,647,o),
(281,681,cs),
(281,716,o),
(259,730,o),
(234,730,cs),
(209,730,o),
(188,716,o),
(188,681,cs),
(188,647,o),
(209,631,o),
(234,631,cs)
);
}
);
width = 281;
}
);
unicode = 776;
}
{
glyphname = hookabovecomb;
layers = (
{
anchors = (
{
name = _top;
pos = (120,536);
},
{
name = math.ta;
pos = (120,0);
},
{
name = top;
pos = (122,821);
}
);
layerId = master01;
shapes = (
{
closed = 1;
nodes = (
(221,792,o),
(175,821,o),
(95,821,cs),
(70,821,o),
(52,819,o),
(40,815,c),
(40,763,l),
(51,765,o),
(70,767,o),
(88,767,cs),
(125,767,o),
(153,759,o),
(153,727,cs),
(153,696,o),
(122,683,o),
(74,675,c),
(81,590,l),
(135,590,l),
(140,643,l),
(186,654,o),
(221,679,o),
(221,730,cs)
);
}
);
width = 261;
}
);
unicode = 777;
}
{
glyphname = ringcomb;
layers = (
{
anchors = (
{
name = _top;
pos = (150,536);
},
{
name = math.ta;
pos = (149,0);
},
{
name = top;
pos = (152,817);
}
);
layerId = master01;
shapes = (
{
closed = 1;
nodes = (
(213,606,o),
(260,645,o),
(260,713,cs),
(260,778,o),
(212,817,o),
(149,817,cs),
(84,817,o),
(40,778,o),
(40,712,cs),
(40,645,o),
(84,606,o),
(149,606,cs)
);
},
{
closed = 1;
nodes = (
(113,656,o),
(93,677,o),
(93,712,cs),
(93,747,o),
(117,768,o),
(149,768,cs),
(181,768,o),
(205,747,o),
(205,712,cs),
(205,677,o),
(182,656,o),
(149,656,cs)
);
}
);
width = 300;
}
);
unicode = 778;
}
{
glyphname = breveinvertedcomb;
layers = (
{
anchors = (
{
name = _top;
pos = (180,536);
},
{
name = math.ta;
pos = (180,486);
},
{
name = top;
pos = (180,747);
}
);
layerId = master01;
shapes = (
{
closed = 1;
nodes = (
(79,613,l),
(86,665,o),
(128,676,o),
(180,676,cs),
(241,676,o),
(275,668,o),
(281,613,c),
(335,613,l),
(330,695,o),
(281,747,o),
(182,747,cs),
(86,747,o),
(31,693,o),
(24,613,c)
);
}
);
width = 359;
}
);
unicode = 785;
}
{
glyphname = dotbelowcomb;
layers = (
{
anchors = (
{
name = _bottom;
pos = (77,0);
},
{
name = bottom;
pos = (77,-176);
},
{
name = math.ta;
pos = (77,0);
},
{
name = top;
pos = (77,50);
}
);
layerId = master01;
shapes = (
{
closed = 1;
nodes = (
(105,-176,o),
(129,-158,o),
(129,-120,cs),
(129,-81,o),
(105,-64,o),
(77,-64,cs),
(49,-64,o),
(25,-81,o),
(25,-120,cs),
(25,-158,o),
(49,-176,o),
(77,-176,cs)
);
}
);
width = 154;
}
);
unicode = 803;
}
{
glyphname = commaaccentcomb;
layers = (
{
anchors = (
{
name = _bottom;
pos = (104,0);
},
{
name = bottom;
pos = (104,-221);
},
{
name = math.ta;
pos = (116,-111);
},
{
name = top;
pos = (116,-111);
}
);
layerId = master01;
shapes = (
{
closed = 1;
nodes = (
(168,-61,l),
(81,-61,l),
(76,-104,o),
(55,-176,o),
(40,-209,c),
(40,-221,l),
(88,-221,l),
(124,-178,o),
(159,-106,o),
(168,-70,c)
);
}
);
width = 208;
}
);
unicode = 806;
}
{
glyphname = cedillacomb;
layers = (
{
anchors = (
{
name = _bottom;
pos = (112,0);
},
{
name = bottom;
pos = (114,-240);
},
{
name = math.ta;
pos = (112,50);
},
{
name = top;
pos = (112,50);
}
);
layerId = master01;
shapes = (
{
closed = 1;
nodes = (
(211,-88,o),
(172,-64,o),
(124,-53,c),
(150,0,l),
(92,0,l),
(49,-86,l),
(100,-93,o),
(140,-106,o),
(140,-141,cs),
(140,-174,o),
(114,-185,o),
(66,-185,cs),
(47,-185,o),
(25,-183,o),
(13,-180,c),
(13,-235,l),
(24,-238,o),
(43,-240,o),
(63,-240,cs),
(161,-240,o),
(211,-203,o),
(211,-139,cs)
);
}
);
width = 225;
}
);
unicode = 807;
}
{
glyphname = caronbelowcomb;
layers = (
{
anchors = (
{
name = _bottom;
pos = (192,0);
},
{
name = bottom;
pos = (192,-199);
},
{
name = math.ta;
pos = (192,0);
},
{
name = top;
pos = (192,50);
}
);
layerId = master01;
shapes = (
{
closed = 1;
nodes = (
(238,-199,l),
(262,-154,o),
(325,-90,o),
(363,-52,c),
(363,-39,l),
(301,-39,l),
(266,-62,o),
(228,-95,o),
(192,-131,c),
(159,-95,o),
(120,-62,o),
(85,-39,c),
(25,-39,l),
(25,-52,l),
(61,-89,o),
(122,-154,o),
(148,-199,c)
);
}
);
width = 388;
}
);
unicode = 812;
}
{
glyphname = brevebelowcomb;
layers = (
{
anchors = (
{
name = _bottom;
pos = (180,0);
},
{
name = bottom;
pos = (180,-187);
},
{
name = math.ta;
pos = (180,50);
},
{
name = top;
pos = (180,50);
}
);
layerId = master01;
shapes = (
{
closed = 1;
nodes = (
(274,-187,o),
(329,-133,o),
(336,-53,c),
(281,-53,l),
(274,-105,o),
(232,-116,o),
(180,-116,cs),
(119,-116,o),
(85,-108,o),
(79,-53,c),
(25,-53,l),
(30,-135,o),
(79,-187,o),
(178,-187,cs)
);
}
);
width = 361;
}
);
unicode = 814;
}
{
glyphname = breveinvertedbelowcomb;
layers = (
{
anchors = (
{
name = _bottom;
pos = (181,0);
},
{
name = bottom;
pos = (181,-187);
},
{
name = math.ta;
pos = (181,0);
},
{
name = top;
pos = (181,50);
}
);
layerId = master01;
shapes = (
{
closed = 1;
nodes = (
(80,-187,l),
(87,-135,o),
(129,-124,o),
(181,-124,cs),
(242,-124,o),
(276,-132,o),
(282,-187,c),
(336,-187,l),
(331,-105,o),
(282,-53,o),
(183,-53,cs),
(87,-53,o),
(32,-107,o),
(25,-187,c)
);
}
);
width = 361;
}
);
unicode = 815;
}
{
color = 1;
glyphname = macronbelowcomb;
layers = (
{
anchors = (
{
name = _bottom;
pos = (174,0);
},
{
name = bottom;
pos = (174,-155);
},
{
name = math.ta;
pos = (174,50);
},
{
name = top;
pos = (174,50);
}
);
layerId = master01;
shapes = (
{
closed = 1;
nodes = (
(322,-155,l),
(322,-84,l),
(25,-84,l),
(25,-155,l)
);
}
);
width = 347;
}
);
unicode = 817;
}
{
glyphname = lowlinecomb;
layers = (
{
anchors = (
{
name = _bottom;
pos = (249,0);
},
{
name = bottom;
pos = (249,-152);
},
{
name = math.ta;
pos = (249,0);
},
{
name = top;
pos = (249,50);
}
);
layerId = master01;
shapes = (
{
closed = 1;
nodes = (
(473,-152,l),
(473,-88,l),
(25,-88,l),
(25,-152,l)
);
}
);
width = 498;
}
);
unicode = 818;
}
{
glyphname = slashlongcomb;
layers = (
{
anchors = (
{
name = _center;
pos = (214,357);
},
{
name = center;
pos = (214,357);
},
{
name = math.ta;
pos = (214,0);
},
{
name = top;
pos = (214,326);
}
);
layerId = master01;
shapes = (
{
closed = 1;
nodes = (
(86,-100,l),
(428,814,l),
(342,814,l),
(0,-100,l)
);
}
);
width = 428;
}
);
unicode = 824;
}
{
glyphname = gbridgeabovecomb;
layers = (
{
anchors = (
{
name = _top;
pos = (243,536);
},
{
name = math.ta;
pos = (243,486);
},
{
name = top;
pos = (243,765);
}
);
layerId = master01;
shapes = (
{
closed = 1;
nodes = (
(91,595,l),
(91,705,l),
(395,705,l),
(395,595,l),
(461,595,l),
(461,765,l),
(25,765,l),
(25,595,l)
);
}
);
width = 486;
}
);
unicode = 838;
}
{
glyphname = Gamma;
kernRight = Gamma;
layers = (
{
anchors = (
{
name = bottom;
pos = (262,0);
},
{
name = center;
pos = (298,357);
},
{
name = math.ta;
pos = (305,764);
},
{
name = top;
pos = (305,714);
}
);
layerId = master01;
shapes = (
{
closed = 1;
nodes = (
(187,0,l),
(187,634,l),
(500,634,l),
(500,714,l),
(97,714,l),
(97,0,l)
);
}
);
width = 524;
}
);
unicode = 915;
}
{
glyphname = Delta;
layers = (
{
anchors = (
{
name = bottom;
pos = (291,0);
},
{
name = center;
pos = (290,357);
},
{
name = math.ta;
pos = (291,764);
},
{
name = top;
pos = (291,714);
}
);
layerId = master01;
shapes = (
{
closed = 1;
nodes = (
(561,0,l),
(561,54,l),
(335,714,l),
(245,714,l),
(20,55,l),
(20,0,l)
);
},
{
closed = 1;
nodes = (
(243,455,ls),
(262,511,o),
(277,568,o),
(289,616,c),
(300,568,o),
(317,511,o),
(337,451,cs),
(462,79,l),
(116,79,l)
);
}
);
width = 581;
}
);
unicode = 916;
}
{
glyphname = Theta;
layers = (
{
layerId = master01;
shapes = (
{
closed = 1;
nodes = (
(541,324,l),
(541,402,l),
(239,402,l),
(239,324,l)
);
},
{
alignment = -1;
ref = O;
}
);
width = 781;
}
);
metricWidth = "=O";
unicode = 920;
}
{
glyphname = Lambda;
layers = (
{
anchors = (
{
name = bottom;
pos = (304,0);
},
{
name = center;
pos = (303,357);
},
{
name = math.ta;
pos = (304,0);
},
{
name = top;
pos = (304,714);
}
);
layerId = master01;
shapes = (
{
closed = 1;
nodes = (
(95,0,l),
(252,451,ls),
(273,511,o),
(292,568,o),
(302,616,c),
(314,568,o),
(332,512,o),
(354,450,cs),
(512,0,l),
(607,0,l),
(350,714,l),
(256,714,l),
(0,0,l)
);
}
);
width = 608;
}
);
unicode = 923;
}
{
glyphname = Xi;
layers = (
{
anchors = (
{
name = bottom;
pos = (278,0);
},
{
name = center;
pos = (277,357);
},
{
name = math.ta;
pos = (278,764);
},
{
name = top;
pos = (278,714);
}
);
layerId = master01;
shapes = (
{
closed = 1;
nodes = (
(519,0,l),
(519,79,l),
(35,79,l),
(35,0,l)
);
},
{
closed = 1;
nodes = (
(459,334,l),
(459,412,l),
(95,412,l),
(95,334,l)
);
},
{
closed = 1;
nodes = (
(499,635,l),
(499,714,l),
(55,714,l),
(55,635,l)
);
}
);
width = 555;
}
);
unicode = 926;
}
{
glyphname = Pi;
layers = (
{
anchors = (
{
name = bottom;
pos = (366,0);
},
{
name = center;
pos = (365,357);
},
{
name = math.ta;
pos = (366,0);
},
{
name = top;
pos = (366,714);
}
);
layerId = master01;
shapes = (
{
closed = 1;
nodes = (
(187,0,l),
(187,635,l),
(544,635,l),
(544,0,l),
(633,0,l),
(633,714,l),
(97,714,l),
(97,0,l)
);
}
);
width = 731;
}
);
unicode = 928;
}
{
glyphname = Phi;
layers = (
{
anchors = (
{
name = bottom;
pos = (402,0);
},
{
name = center;
pos = (401,357);
},
{
name = math.ta;
pos = (402,764);
},
{
name = top;
pos = (402,714);
}
);
layerId = master01;
shapes = (
{
closed = 1;
nodes = (
(446,-10,l),
(446,100,l),
(683,105,o),
(752,241,o),
(752,370,cs),
(752,515,o),
(678,632,o),
(446,636,c),
(446,724,l),
(357,724,l),
(357,636,l),
(127,632,o),
(51,511,o),
(51,370,cs),
(51,247,o),
(114,105,o),
(357,100,c),
(357,-10,l)
);
},
{
closed = 1;
nodes = (
(207,179,o),
(142,253,o),
(142,371,cs),
(142,482,o),
(196,556,o),
(357,560,c),
(357,174,l)
);
},
{
closed = 1;
nodes = (
(446,560,l),
(607,556,o),
(661,484,o),
(661,371,cs),
(661,256,o),
(600,179,o),
(446,174,c)
);
}
);
width = 804;
}
);
unicode = 934;
}
{
glyphname = Psi;
layers = (
{
anchors = (
{
name = bottom;
pos = (402,0);
},
{
name = center;
pos = (402,357);
},
{
name = math.ta;
pos = (402,764);
},
{
name = top;
pos = (402,714);
}
);
layerId = master01;
shapes = (
{
closed = 1;
nodes = (
(445,0,l),
(445,217,l),
(685,217,o),
(751,343,o),
(751,479,cs),
(751,714,l),
(659,714,l),
(659,478,ls),
(659,357,o),
(597,294,o),
(445,294,c),
(445,714,l),
(357,714,l),
(357,294,l),
(208,294,o),
(143,356,o),
(143,480,cs),
(143,714,l),
(53,714,l),
(53,478,ls),
(53,346,o),
(116,217,o),
(357,217,c),
(357,0,l)
);
}
);
width = 804;
}
);
unicode = 936;
}
{
glyphname = Omega;
kernRight = uni03A9;
layers = (
{
anchors = (
{
name = bottom;
pos = (391,0);
},
{
name = center;
pos = (391,362);
},
{
name = math.ta;
pos = (391,764);
},
{
name = top;
pos = (391,714);
},
{
name = topleft;
pos = (20,714);
}
);
layerId = master01;
shapes = (
{
closed = 1;
nodes = (
(326,0,l),
(326,72,l),
(202,161,o),
(159,268,o),
(159,401,cs),
(159,553,o),
(231,646,o),
(391,646,cs),
(552,646,o),
(625,553,o),
(625,401,cs),
(625,269,o),
(581,160,o),
(457,72,c),
(457,0,l),
(745,0,l),
(745,79,l),
(568,79,l),
(653,144,o),
(719,255,o),
(719,405,cs),
(719,601,o),
(603,725,o),
(391,725,cs),
(182,725,o),
(64,600,o),
(64,404,cs),
(64,255,o),
(131,144,o),
(216,79,c),
(38,79,l),
(38,0,l)
);
}
);
width = 782;
}
);
unicode = 937;
}
{
glyphname = alpha;
kernLeft = alpha;
kernRight = alpha;
layers = (
{
anchors = (
{
name = bottom;
pos = (302,0);
},
{
name = math.ta;
pos = (311,586);
},
{
name = top;
pos = (311,536);
}
);
layerId = master01;
shapes = (
{
closed = 1;
nodes = (
(365,-10,o),
(411,27,o),
(442,72,c),
(449,72,l),
(463,10,o),
(495,-10,o),
(544,-10,cs),
(566,-10,o),
(590,-3,o),
(600,3,c),
(600,67,l),
(594,65,o),
(580,62,o),
(570,62,cs),
(547,62,o),
(529,77,o),
(529,118,cs),
(529,326,ls),
(529,397,o),
(539,491,o),
(554,536,c),
(485,536,l),
(470,516,o),
(459,487,o),
(453,464,c),
(447,464,l),
(412,518,o),
(362,546,o),
(283,546,cs),
(139,546,o),
(55,447,o),
(55,266,cs),
(55,83,o),
(144,-10,o),
(275,-10,cs)
);
},
{
closed = 1;
nodes = (
(190,63,o),
(146,131,o),
(146,265,cs),
(146,400,o),
(191,472,o),
(289,472,cs),
(406,472,o),
(442,400,o),
(442,267,cs),
(442,261,ls),
(442,124,o),
(400,63,o),
(290,63,cs)
);
}
);
width = 615;
}
);
unicode = 945;
}
{
glyphname = beta;
layers = (
{
anchors = (
{
name = bottom;
pos = (376,0);
},
{
name = center;
pos = (335,262);
},
{
name = math.ta;
pos = (324,815);
},
{
name = top;
pos = (324,765);
},
{
name = topright;
pos = (557,765);
}
);
layerId = master01;
shapes = (
{
closed = 1;
nodes = (
(173,-240,l),
(173,24,l),
(216,3,o),
(264,-10,o),
(342,-10,cs),
(495,-10,o),
(586,66,o),
(586,203,cs),
(586,324,o),
(523,388,o),
(402,402,c),
(402,406,l),
(500,422,o),
(554,478,o),
(554,574,cs),
(554,701,o),
(458,765,o),
(324,765,cs),
(186,765,o),
(85,696,o),
(85,535,cs),
(85,-240,l)
);
},
{
closed = 1;
nodes = (
(266,62,o),
(219,79,o),
(173,103,c),
(173,531,ls),
(173,656,o),
(242,692,o),
(322,692,cs),
(408,692,o),
(464,652,o),
(464,570,cs),
(464,489,o),
(418,435,o),
(314,435,cs),
(271,435,l),
(271,361,l),
(324,361,ls),
(428,361,o),
(498,314,o),
(498,209,cs),
(498,115,o),
(449,62,o),
(334,62,cs)
);
}
);
width = 631;
}
);
unicode = 946;
}
{
glyphname = gamma;
layers = (
{
anchors = (
{
name = bottom;
pos = (259,-240);
},
{
name = center;
pos = (259,148);
},
{
name = math.ta;
pos = (259,0);
},
{
name = top;
pos = (259,536);
},
{
name = topright;
pos = (508,536);
}
);
layerId = master01;
shapes = (
{
closed = 1;
nodes = (
(266,-240,l),
(266,-173,o),
(284,-68,o),
(315,13,cs),
(513,536,l),
(422,536,l),
(316,251,ls),
(300,207,o),
(273,121,o),
(267,89,c),
(263,89,l),
(257,124,o),
(230,203,o),
(209,255,cs),
(96,536,l),
(5,536,l),
(222,6,l),
(192,-76,o),
(171,-185,o),
(171,-240,c)
);
}
);
width = 518;
}
);
unicode = 947;
}
{
glyphname = delta;
layers = (
{
anchors = (
{
name = bottom;
pos = (302,0);
},
{
name = math.ta;
pos = (302,810);
},
{
name = top;
pos = (302,760);
}
);
layerId = master01;
shapes = (
{
closed = 1;
nodes = (
(451,-10,o),
(550,76,o),
(550,236,cs),
(550,352,o),
(483,423,o),
(362,489,cs),
(263,543,o),
(228,571,o),
(228,619,cs),
(228,656,o),
(255,688,o),
(315,688,cs),
(383,688,o),
(437,665,o),
(487,637,c),
(525,706,l),
(473,732,o),
(411,760,o),
(319,760,cs),
(216,760,o),
(139,712,o),
(139,620,cs),
(139,546,o),
(188,499,o),
(263,456,c),
(144,421,o),
(54,342,o),
(54,214,cs),
(54,71,o),
(157,-10,o),
(300,-10,cs)
);
},
{
closed = 1;
nodes = (
(203,63,o),
(146,125,o),
(146,213,cs),
(146,348,o),
(251,398,o),
(333,418,c),
(412,377,o),
(459,325,o),
(459,235,cs),
(459,124,o),
(402,63,o),
(300,63,cs)
);
}
);
width = 604;
}
);
unicode = 948;
}
{
glyphname = zeta;
layers = (
{
anchors = (
{
name = bottom;
pos = (242,-195);
},
{
name = center;
pos = (256,282);
},
{
name = math.ta;
pos = (242,810);
},
{
name = top;
pos = (242,760);
}
);
layerId = master01;
shapes = (
{
closed = 1;
nodes = (
(394,-195,l),
(426,-153,o),
(457,-99,o),
(457,-40,cs),
(457,17,o),
(418,53,o),
(316,74,cs),
(208,96,o),
(146,116,o),
(146,230,cs),
(146,336,o),
(181,463,o),
(457,694,c),
(457,760,l),
(85,760,l),
(85,687,l),
(205,687,ls),
(273,687,o),
(344,690,o),
(353,691,c),
(195,549,o),
(55,423,o),
(55,224,cs),
(55,92,o),
(121,27,o),
(248,5,cs),
(355,-14,o),
(369,-35,o),
(369,-63,cs),
(369,-99,o),
(339,-153,o),
(307,-195,c)
);
}
);
width = 484;
}
);
unicode = 950;
}
{
glyphname = eta;
layers = (
{
anchors = (
{
name = bottom;
pos = (309,-240);
},
{
name = center;
pos = (311,153);
},
{
name = math.ta;
pos = (326,586);
},
{
name = top;
pos = (326,536);
}
);
layerId = master01;
shapes = (
{
closed = 1;
nodes = (
(537,-240,l),
(537,349,ls),
(537,487,o),
(471,546,o),
(343,546,cs),
(275,546,o),
(209,519,o),
(174,463,c),
(169,463,l),
(156,536,l),
(85,536,l),
(85,0,l),
(173,0,l),
(173,278,ls),
(173,403,o),
(212,472,o),
(330,472,cs),
(413,472,o),
(450,428,o),
(450,343,cs),
(450,-240,l)
);
}
);
width = 618;
}
);
unicode = 951;
}
{
glyphname = theta;
layers = (
{
anchors = (
{
name = bottom;
pos = (298,0);
},
{
name = center;
pos = (297,377);
},
{
name = math.ta;
pos = (298,0);
},
{
name = top;
pos = (298,765);
},
{
name = topright;
pos = (515,765);
}
);
layerId = master01;
shapes = (
{
closed = 1;
nodes = (
(472,-10,o),
(540,135,o),
(540,377,cs),
(540,623,o),
(462,765,o),
(296,765,cs),
(123,765,o),
(55,621,o),
(55,377,cs),
(55,135,o),
(131,-10,o),
(296,-10,cs)
);
},
{
closed = 1;
nodes = (
(190,62,o),
(147,160,o),
(144,351,c),
(451,351,l),
(447,158,o),
(400,62,o),
(296,62,cs)
);
},
{
closed = 1;
nodes = (
(151,602,o),
(194,693,o),
(296,693,cs),
(398,693,o),
(443,602,o),
(450,424,c),
(144,424,l)
);
}
);
width = 595;
}
);
unicode = 952;
}
{
glyphname = iota;
kernLeft = iota;
kernRight = iota;
layers = (
{
anchors = (
{
name = bottom;
pos = (209,0);
},
{
name = center;
pos = (205,263);
},
{
name = math.ta;
pos = (130,586);
},
{
name = top;
pos = (130,536);
}
);
layerId = master01;
shapes = (
{
closed = 1;
nodes = (
(269,-10,o),
(309,-3,o),
(328,6,c),
(328,73,l),
(311,68,o),
(275,62,o),
(246,62,cs),
(192,62,o),
(169,94,o),
(169,158,cs),
(169,536,l),
(82,536,l),
(82,157,ls),
(82,26,o),
(146,-10,o),
(234,-10,cs)
);
}
);
userData = {
com.schriftgestaltung.Glyphs.glyph.rightMetricsKey = iota;
};
width = 346;
}
);
unicode = 953;
}
{
glyphname = kappa;
layers = (
{
anchors = (
{
name = bottom;
pos = (297,0);
},
{
name = center;
pos = (307,269);
},
{
name = math.ta;
pos = (297,0);
},
{
name = top;
pos = (297,536);
}
);
layerId = master01;
shapes = (
{
closed = 1;
nodes = (
(171,253,l),
(174,275,o),
(178,338,o),
(178,397,cs),
(178,536,l),
(85,536,l),
(85,0,l),
(178,0,l),
(178,204,l)
);
},
{
closed = 1;
nodes = (
(219,268,l),
(391,31,ls),
(411,3,o),
(436,-10,o),
(472,-10,cs),
(495,-10,o),
(514,-5,o),
(529,2,c),
(529,67,l),
(522,65,o),
(509,62,o),
(499,62,cs),
(474,62,o),
(459,81,o),
(437,110,cs),
(281,325,l)
);
},
{
closed = 1;
nodes = (
(498,549,l),
(310,456,o),
(182,352,o),
(94,165,c),
(147,145,l),
(221,293,o),
(340,378,o),
(529,478,c)
);
}
);
width = 534;
}
);
unicode = 954;
}
{
glyphname = lambda;
layers = (
{
anchors = (
{
name = bottom;
pos = (277,0);
},
{
name = center;
pos = (274,378);
},
{
name = math.ta;
pos = (277,0);
},
{
name = top;
pos = (277,766);
}
);
layerId = master01;
shapes = (
{
closed = 1;
nodes = (
(514,-10,o),
(533,-5,o),
(548,2,c),
(548,67,l),
(541,65,o),
(528,62,o),
(518,62,cs),
(495,62,o),
(481,79,o),
(468,116,cs),
(295,598,ls),
(254,713,o),
(220,766,o),
(117,766,cs),
(93,766,o),
(69,762,o),
(51,758,c),
(51,687,l),
(65,690,o),
(83,693,o),
(107,693,cs),
(164,693,o),
(183,658,o),
(204,601,cs),
(231,526,l),
(0,0,l),
(91,0,l),
(213,281,ls),
(235,333,o),
(256,388,o),
(268,435,c),
(272,435,l),
(280,396,o),
(305,324,o),
(322,276,cs),
(395,71,ls),
(416,12,o),
(442,-10,o),
(491,-10,cs)
);
}
);
width = 548;
}
);
unicode = 955;
}
{
glyphname = mu;
layers = (
{
anchors = (
{
name = bottom;
pos = (312,-240);
},
{
name = center;
pos = (311,148);
},
{
name = math.ta;
pos = (312,0);
},
{
name = top;
pos = (312,536);
}
);
layerId = master01;
shapes = (
{
closed = 1;
nodes = (
(173,-240,l),
(173,-84,ls),
(173,-30,o),
(171,11,o),
(168,35,c),
(172,35,l),
(198,8,o),
(235,-10,o),
(287,-10,cs),
(362,-10,o),
(414,19,o),
(448,72,c),
(453,72,l),
(467,0,l),
(538,0,l),
(538,536,l),
(450,536,l),
(450,257,ls),
(450,132,o),
(412,63,o),
(293,63,cs),
(213,63,o),
(173,107,o),
(173,190,cs),
(173,536,l),
(85,536,l),
(85,-240,l)
);
}
);
width = 623;
}
);
unicode = 956;
}
{
glyphname = nu;
layers = (
{
anchors = (
{
name = bottom;
pos = (274,0);
},
{
name = center;
pos = (253,268);
},
{
name = math.ta;
pos = (274,0);
},
{
name = top;
pos = (274,536);
}
);
layerId = master01;
shapes = (
{
closed = 1;
nodes = (
(295,0,l),
(460,166,o),
(506,326,o),
(506,536,c),
(419,536,l),
(419,342,o),
(383,199,o),
(260,74,c),
(256,74,l),
(246,114,o),
(216,199,o),
(198,247,cs),
(91,536,l),
(0,536,l),
(200,0,l)
);
}
);
width = 547;
}
);
unicode = 957;
}
{
glyphname = xi;
layers = (
{
anchors = (
{
name = bottom;
pos = (239,-195);
},
{
name = center;
pos = (255,282);
},
{
name = math.ta;
pos = (239,810);
},
{
name = top;
pos = (239,760);
}
);
layerId = master01;
shapes = (
{
closed = 1;
nodes = (
(397,-195,l),
(426,-153,o),
(457,-99,o),
(457,-40,cs),
(457,14,o),
(422,52,o),
(320,73,cs),
(213,95,o),
(146,111,o),
(146,213,cs),
(146,299,o),
(211,366,o),
(333,366,cs),
(419,366,l),
(419,433,l),
(336,433,ls),
(217,433,o),
(173,471,o),
(173,539,cs),
(173,641,o),
(291,692,o),
(405,692,cs),
(431,692,l),
(431,760,l),
(85,760,l),
(85,687,l),
(115,687,ls),
(160,687,o),
(211,690,o),
(236,693,c),
(156,670,o),
(88,631,o),
(88,537,cs),
(88,461,o),
(128,420,o),
(194,401,c),
(194,395,l),
(120,372,o),
(54,306,o),
(54,206,cs),
(54,91,o),
(121,27,o),
(251,5,cs),
(358,-13,o),
(373,-35,o),
(373,-62,cs),
(373,-99,o),
(345,-153,o),
(314,-195,c)
);
}
);
width = 477;
}
);
unicode = 958;
}
{
glyphname = rho;
layers = (
{
anchors = (
{
name = bottom;
pos = (303,-240);
},
{
name = center;
pos = (314,153);
},
{
name = math.ta;
pos = (303,0);
},
{
name = top;
pos = (303,536);
}
);
layerId = master01;
shapes = (
{
closed = 1;
nodes = (
(168,-240,l),
(168,-98,ls),
(168,-38,o),
(166,13,o),
(163,35,c),
(168,35,l),
(206,6,o),
(259,-10,o),
(313,-10,cs),
(459,-10,o),
(550,87,o),
(550,268,cs),
(550,448,o),
(454,546,o),
(318,546,cs),
(172,546,o),
(79,457,o),
(79,275,cs),
(79,-240,l)
);
},
{
closed = 1;
nodes = (
(258,63,o),
(206,79,o),
(168,112,c),
(168,274,ls),
(168,406,o),
(215,472,o),
(314,472,cs),
(417,472,o),
(460,405,o),
(460,268,cs),
(460,133,o),
(417,63,o),
(312,63,cs)
);
}
);
width = 605;
}
);
unicode = 961;
}
{
glyphname = sigmafinal;
layers = (
{
anchors = (
{
name = bottom;
pos = (242,-195);
},
{
name = center;
pos = (256,175);
},
{
name = math.ta;
pos = (242,586);
},
{
name = top;
pos = (242,536);
}
);
layerId = master01;
shapes = (
{
closed = 1;
nodes = (
(397,-195,l),
(426,-155,o),
(457,-99,o),
(457,-40,cs),
(457,15,o),
(422,52,o),
(319,74,cs),
(179,104,o),
(146,135,o),
(146,254,cs),
(146,394,o),
(193,469,o),
(309,469,cs),
(353,469,o),
(395,457,o),
(430,444,c),
(458,517,l),
(421,533,o),
(366,546,o),
(313,546,cs),
(161,546,o),
(55,455,o),
(55,253,cs),
(55,87,o),
(142,27,o),
(252,6,cs),
(359,-14,o),
(374,-34,o),
(374,-62,cs),
(374,-99,o),
(345,-153,o),
(314,-195,c)
);
}
);
width = 484;
}
);
unicode = 962;
}
{
glyphname = sigma;
kernLeft = alpha;
kernRight = sigma;
layers = (
{
anchors = (
{
name = bottom;
pos = (309,0);
},
{
name = math.ta;
pos = (309,586);
},
{
name = top;
pos = (309,536);
}
);
layerId = master01;
shapes = (
{
closed = 1;
nodes = (
(465,-10,o),
(550,101,o),
(550,246,cs),
(550,342,o),
(515,414,o),
(463,463,c),
(593,463,l),
(593,536,l),
(346,536,ls),
(168,536,o),
(55,457,o),
(55,256,cs),
(55,83,o),
(153,-10,o),
(301,-10,cs)
);
},
{
closed = 1;
nodes = (
(192,63,o),
(146,143,o),
(146,256,cs),
(146,407,o),
(212,463,o),
(346,463,cs),
(377,463,l),
(430,405,o),
(460,330,o),
(460,244,cs),
(460,139,o),
(413,63,o),
(303,63,cs)
);
}
);
width = 617;
}
);
unicode = 963;
}
{
glyphname = tau;
kernLeft = tau;
layers = (
{
anchors = (
{
name = bottom;
pos = (240,0);
},
{
name = center;
pos = (231,262);
},
{
name = math.ta;
pos = (240,586);
},
{
name = top;
pos = (240,536);
}
);
layerId = master01;
shapes = (
{
closed = 1;
nodes = (
(365,-11,o),
(405,-3,o),
(424,5,c),
(424,71,l),
(403,65,o),
(368,60,o),
(339,60,cs),
(282,60,o),
(243,87,o),
(243,164,cs),
(243,462,l),
(452,462,l),
(452,536,l),
(83,536,l),
(10,501,l),
(10,462,l),
(154,462,l),
(154,155,ls),
(154,21,o),
(234,-11,o),
(326,-11,cs)
);
}
);
width = 479;
}
);
unicode = 964;
}
{
glyphname = upsilon;
layers = (
{
anchors = (
{
name = bottom;
pos = (307,0);
},
{
name = center;
pos = (319,263);
},
{
name = math.ta;
pos = (308,586);
},
{
name = top;
pos = (308,536);
}
);
layerId = master01;
shapes = (
{
closed = 1;
nodes = (
(473,-10,o),
(559,85,o),
(559,292,cs),
(559,391,o),
(548,457,o),
(527,536,c),
(439,536,l),
(459,456,o),
(470,389,o),
(470,296,cs),
(470,136,o),
(420,62,o),
(314,62,cs),
(211,62,o),
(167,132,o),
(167,246,cs),
(167,536,l),
(79,536,l),
(79,243,ls),
(79,100,o),
(129,-10,o),
(307,-10,cs)
);
}
);
width = 613;
}
);
unicode = 965;
}
{
glyphname = phi;
layers = (
{
anchors = (
{
name = bottom;
pos = (363,-240);
},
{
name = center;
pos = (362,153);
},
{
name = math.ta;
pos = (363,0);
},
{
name = top;
pos = (363,536);
}
);
layerId = master01;
shapes = (
{
closed = 1;
nodes = (
(400,-240,l),
(400,-9,l),
(543,-1,o),
(670,87,o),
(670,281,cs),
(670,439,o),
(595,546,o),
(472,546,cs),
(374,546,o),
(314,482,o),
(314,361,cs),
(314,63,l),
(222,72,o),
(143,122,o),
(143,268,cs),
(143,361,o),
(176,429,o),
(225,494,c),
(157,541,l),
(98,469,o),
(55,379,o),
(55,271,cs),
(55,75,o),
(166,-1,o),
(314,-9,c),
(314,-240,l)
);
},
{
closed = 1;
nodes = (
(400,362,ls),
(400,446,o),
(434,473,o),
(473,473,cs),
(535,473,o),
(581,405,o),
(581,280,cs),
(581,140,o),
(502,72,o),
(400,63,c)
);
}
);
width = 725;
}
);
unicode = 966;
}
{
glyphname = chi;
layers = (
{
anchors = (
{
name = bottom;
pos = (307,-240);
},
{
name = center;
pos = (298,149);
},
{
name = math.ta;
pos = (307,0);
},
{
name = top;
pos = (307,536);
},
{
name = topright;
pos = (562,536);
}
);
layerId = master01;
shapes = (
{
closed = 1;
nodes = (
(114,-240,l),
(288,82,l),
(359,-104,ls),
(391,-189,o),
(424,-240,o),
(514,-240,cs),
(542,-240,o),
(561,-236,o),
(576,-232,c),
(576,-164,l),
(564,-166,o),
(548,-168,o),
(531,-168,cs),
(482,-168,o),
(463,-137,o),
(439,-76,cs),
(346,160,l),
(556,536,l),
(462,536,l),
(309,245,l),
(241,417,ls),
(210,496,o),
(187,539,o),
(121,539,cs),
(93,539,o),
(73,535,o),
(59,531,c),
(59,462,l),
(68,466,o),
(80,468,o),
(92,468,cs),
(126,468,o),
(146,436,o),
(166,383,cs),
(248,170,l),
(20,-240,l)
);
}
);
width = 582;
}
);
unicode = 967;
}
{
glyphname = psi;
layers = (
{
anchors = (
{
name = bottom;
pos = (381,-240);
},
{
name = center;
pos = (389,259);
},
{
name = math.ta;
pos = (381,809);
},
{
name = top;
pos = (381,759);
}
);
layerId = master01;
shapes = (
{
closed = 1;
nodes = (
(426,-240,l),
(426,-9,l),
(577,0,o),
(700,77,o),
(700,283,cs),
(700,371,o),
(690,446,o),
(669,536,c),
(582,536,l),
(603,443,o),
(614,372,o),
(614,280,cs),
(614,139,o),
(539,75,o),
(426,65,c),
(426,759,l),
(340,759,l),
(340,64,l),
(247,71,o),
(166,116,o),
(166,267,cs),
(166,536,l),
(79,536,l),
(79,270,ls),
(79,71,o),
(188,-3,o),
(340,-9,c),
(340,-240,l)
);
}
);
width = 761;
}
);
unicode = 968;
}
{
glyphname = omega;
layers = (
{
anchors = (
{
name = bottom;
pos = (391,0);
},
{
name = center;
pos = (391,263);
},
{
name = math.ta;
pos = (389,0);
},
{
name = top;
pos = (389,536);
}
);
layerId = master01;
shapes = (
{
closed = 1;
nodes = (
(321,-10,o),
(367,21,o),
(388,80,c),
(393,80,l),
(415,21,o),
(461,-10,o),
(535,-10,cs),
(659,-10,o),
(726,99,o),
(726,260,cs),
(726,364,o),
(708,443,o),
(667,536,c),
(577,536,l),
(619,442,o),
(638,365,o),
(638,259,cs),
(638,130,o),
(595,63,o),
(528,63,cs),
(468,63,o),
(433,110,o),
(433,193,cs),
(433,344,l),
(349,344,l),
(349,193,ls),
(349,118,o),
(319,63,o),
(253,63,cs),
(187,63,o),
(144,130,o),
(144,259,cs),
(144,365,o),
(163,442,o),
(205,536,c),
(115,536,l),
(74,443,o),
(56,364,o),
(56,260,cs),
(56,99,o),
(123,-10,o),
(247,-10,cs)
);
}
);
width = 782;
}
);
unicode = 969;
}
{
glyphname = thetaSymbol;
layers = (
{
anchors = (
{
name = center;
pos = (307,377);
},
{
name = math.ta;
pos = (316,0);
},
{
name = top;
pos = (316,586);
}
);
layerId = master01;
shapes = (
{
closed = 1;
nodes = (
(458,-10,o),
(546,143,o),
(546,353,cs),
(546,373,o),
(545,391,o),
(544,406,c),
(608,406,l),
(608,479,l),
(538,479,l),
(514,655,o),
(434,765,o),
(288,765,cs),
(167,765,o),
(114,700,o),
(114,616,cs),
(114,500,o),
(206,409,o),
(455,406,c),
(456,392,o),
(457,371,o),
(457,356,cs),
(457,159,o),
(394,61,o),
(276,61,cs),
(202,61,o),
(174,113,o),
(174,169,cs),
(174,198,o),
(177,226,o),
(181,252,cs),
(185,280,o),
(188,306,o),
(188,329,cs),
(188,381,o),
(165,420,o),
(99,420,cs),
(64,420,o),
(30,410,o),
(6,399,c),
(25,337,l),
(35,343,o),
(54,350,o),
(70,350,cs),
(91,350,o),
(103,340,o),
(103,310,cs),
(103,296,o),
(101,277,o),
(97,255,cs),
(92,228,o),
(89,197,o),
(89,167,cs),
(89,77,o),
(130,-10,o),
(273,-10,cs)
);
},
{
closed = 1;
nodes = (
(264,481,o),
(199,537,o),
(199,611,cs),
(199,662,o),
(227,693,o),
(285,693,cs),
(369,693,o),
(432,616,o),
(449,479,c)
);
}
);
width = 623;
}
);
unicode = 977;
}
{
glyphname = phiSymbol;
layers = (
{
anchors = (
{
name = bottom;
pos = (363,-240);
},
{
name = center;
pos = (362,260);
},
{
name = math.ta;
pos = (363,810);
},
{
name = top;
pos = (363,760);
},
{
name = topright;
pos = (705,760);
}
);
layerId = master01;
shapes = (
{
closed = 1;
nodes = (
(405,-240,l),
(405,-8,l),
(570,6,o),
(670,106,o),
(670,268,cs),
(670,430,o),
(564,529,o),
(405,544,c),
(405,760,l),
(322,760,l),
(322,544,l),
(153,531,o),
(54,431,o),
(54,268,cs),
(54,105,o),
(160,5,o),
(319,-8,c),
(319,-240,l)
);
},
{
closed = 1;
nodes = (
(200,76,o),
(146,147,o),
(146,268,cs),
(146,389,o),
(199,459,o),
(322,471,c),
(322,64,l)
);
},
{
closed = 1;
nodes = (
(405,470,l),
(523,457,o),
(579,388,o),
(579,268,cs),
(579,148,o),
(525,77,o),
(405,64,c)
);
}
);
width = 725;
}
);
unicode = 981;
}
{
glyphname = piSymbol;
layers = (
{
anchors = (
{
name = center;
pos = (418,263);
},
{
name = math.ta;
pos = (422,0);
},
{
name = top;
pos = (422,586);
}
);
layerId = master01;
shapes = (
{
closed = 1;
nodes = (
(350,-10,o),
(396,21,o),
(419,80,c),
(423,80,l),
(445,21,o),
(491,-10,o),
(565,-10,cs),
(689,-10,o),
(757,66,o),
(757,222,cs),
(757,301,o),
(737,385,o),
(702,463,c),
(825,463,l),
(825,536,l),
(81,536,l),
(11,501,l),
(11,463,l),
(148,463,l),
(111,386,o),
(86,301,o),
(86,222,cs),
(86,66,o),
(154,-10,o),
(277,-10,cs)
);
},
{
closed = 1;
nodes = (
(216,63,o),
(174,103,o),
(174,227,cs),
(174,306,o),
(202,393,o),
(234,463,c),
(616,463,l),
(649,390,o),
(668,306,o),
(668,227,cs),
(668,104,o),
(627,63,o),
(560,63,cs),
(501,63,o),
(464,110,o),
(464,193,cs),
(464,282,l),
(379,282,l),
(379,193,ls),
(379,118,o),
(347,63,o),
(283,63,cs)
);
}
);
width = 856;
}
);
unicode = 982;
}
{
color = 4;
glyphname = digamma;
layers = (
{
layerId = master01;
shapes = (
{
closed = 1;
nodes = (
(174,-240,l),
(174,181,l),
(306,181,l),
(306,36,l),
(392,36,l),
(392,253,l),
(174,253,l),
(174,463,l),
(427,463,l),
(427,536,l),
(86,536,l),
(86,-240,l)
);
}
);
width = 459;
}
);
unicode = 989;
}
{
glyphname = kappaSymbol;
layers = (
{
anchors = (
{
name = bottom;
pos = (325,0);
},
{
name = center;
pos = (317,268);
},
{
name = math.ta;
pos = (325,0);
},
{
name = top;
pos = (325,536);
}
);
layerId = master01;
shapes = (
{
closed = 1;
nodes = (
(602,-10,o),
(622,-5,o),
(640,2,c),
(640,71,l),
(630,67,o),
(612,63,o),
(596,63,cs),
(543,63,o),
(507,99,o),
(507,216,cs),
(507,342,o),
(544,462,o),
(581,536,c),
(493,536,l),
(216,186,l),
(229,228,o),
(234,275,o),
(234,316,cs),
(234,474,o),
(175,546,o),
(71,546,cs),
(38,546,o),
(13,541,o),
(-5,534,c),
(19,465,l),
(28,469,o),
(40,473,o),
(58,473,cs),
(105,473,o),
(146,432,o),
(146,320,cs),
(146,194,o),
(109,74,o),
(73,0,c),
(163,0,l),
(437,350,l),
(424,309,o),
(419,261,o),
(419,220,cs),
(419,62,o),
(476,-10,o),
(576,-10,cs)
);
}
);
width = 650;
}
);
unicode = 1008;
}
{
glyphname = rhoSymbol;
layers = (
{
anchors = (
{
name = bottom;
pos = (303,-240);
},
{
name = center;
pos = (302,153);
},
{
name = math.ta;
pos = (303,586);
},
{
name = top;
pos = (303,536);
}
);
layerId = master01;
shapes = (
{
closed = 1;
nodes = (
(447,-240,l),
(453,-222,o),
(457,-210,o),
(457,-191,cs),
(457,-136,o),
(430,-118,o),
(296,-118,cs),
(203,-118,o),
(164,-89,o),
(149,52,c),
(154,52,l),
(201,8,o),
(235,-10,o),
(313,-10,cs),
(459,-10,o),
(550,87,o),
(550,268,cs),
(550,448,o),
(454,546,o),
(318,546,cs),
(141,546,o),
(55,409,o),
(55,178,cs),
(55,-107,o),
(124,-191,o),
(283,-191,cs),
(365,-191,o),
(374,-197,o),
(374,-217,cs),
(374,-225,o),
(373,-231,o),
(370,-240,c)
);
},
{
closed = 1;
nodes = (
(243,63,o),
(200,79,o),
(146,125,c),
(144,147,o),
(144,158,o),
(144,179,cs),
(146,388,o),
(212,473,o),
(314,473,cs),
(417,473,o),
(460,405,o),
(460,268,cs),
(460,133,o),
(417,63,o),
(312,63,cs)
);
}
);
width = 605;
}
);
unicode = 1009;
}
{
glyphname = ThetaSymbol;
layers = (
{
anchors = (
{
name = bottom;
pos = (391,0);
},
{
name = math.ta;
pos = (391,764);
},
{
name = top;
pos = (391,714);
}
);
layerId = master01;
shapes = (
{
closed = 1;
nodes = (
(606,-10,o),
(720,137,o),
(720,358,cs),
(720,580,o),
(606,725,o),
(392,725,cs),
(168,725,o),
(61,578,o),
(61,359,cs),
(61,138,o),
(168,-10,o),
(391,-10,cs)
);
},
{
closed = 1;
nodes = (
(238,68,o),
(165,164,o),
(157,325,c),
(624,325,l),
(616,164,o),
(543,68,o),
(391,68,cs)
);
},
{
closed = 1;
nodes = (
(169,555,o),
(242,646,o),
(392,646,cs),
(540,646,o),
(611,555,o),
(623,403,c),
(157,403,l)
);
}
);
width = 782;
}
);
unicode = 1012;
}
{
glyphname = "ray-ar";
layers = (
{
anchors = (
{
name = bottom;
pos = (445,-272);
},
{
name = top;
pos = (687,331);
}
);
layerId = master01;
shapes = (
{
closed = 1;
nodes = (
(1016,-5,o),
(1089,2,o),
(1089,179,cs),
(1089,239,o),
(1062,338,o),
(1037,403,c),
(956,373,l),
(985,297,o),
(1013,213,o),
(1013,163,cs),
(1013,71,o),
(989,77,o),
(726,77,cs),
(641,77,o),
(599,89,o),
(599,136,cs),
(599,194,o),
(637,250,o),
(679,250,cs),
(729,250,o),
(769,188,o),
(769,77,cs),
(769,51,o),
(763,-4,o),
(750,-44,cs),
(723,-126,o),
(621,-188,o),
(467,-188,cs),
(339,-188,o),
(235,-145,o),
(235,-20,cs),
(235,21,o),
(248,63,o),
(279,126,c),
(206,160,l),
(29,93,l),
(20,11,l),
(203,79,l),
(177,98,l),
(152,35,o),
(149,-12,o),
(149,-35,cs),
(149,-203,o),
(286,-272,o),
(445,-272,cs),
(609,-272,o),
(745,-226,o),
(810,-101,cs),
(837,-44,o),
(851,27,o),
(851,63,cs),
(851,249,o),
(779,331,o),
(687,331,cs),
(592,331,o),
(516,220,o),
(519,121,cs),
(522,30,o),
(597,-5,o),
(688,-5,cs)
);
}
);
width = 1109;
}
);
unicode = 1544;
}
{
glyphname = "perthousand-ar";
layers = (
{
layerId = master01;
shapes = (
{
closed = 1;
nodes = (
(433,658,l),
(367,687,l),
(50,0,l),
(114,-26,l)
);
},
{
closed = 1;
nodes = (
(425,61,l),
(403,88,o),
(373,119,o),
(341,144,c),
(270,68,l),
(303,41,o),
(321,22,o),
(353,-11,c)
);
},
{
closed = 1;
nodes = (
(609,61,l),
(587,88,o),
(557,119,o),
(525,144,c),
(454,68,l),
(487,41,o),
(505,22,o),
(537,-11,c)
);
},
{
closed = 1;
nodes = (
(228,601,l),
(206,628,o),
(176,659,o),
(144,684,c),
(73,608,l),
(106,581,o),
(124,562,o),
(156,529,c)
);
}
);
width = 649;
}
);
metricRight = "=percent-ar";
unicode = 1545;
}
{
glyphname = "comma-ar";
layers = (
{
layerId = master01;
shapes = (
{
closed = 1;
nodes = (
(200,-4,o),
(218,22,o),
(218,51,cs),
(218,69,o),
(205,88,o),
(174,96,c),
(175,107,o),
(195,155,o),
(215,192,c),
(155,223,l),
(126,175,o),
(90,109,o),
(90,62,cs),
(90,9,o),
(133,-4,o),
(159,-4,cs)
);
}
);
width = 328;
}
);
unicode = 1548;
}
{
glyphname = "alef-ar";
kernRight = alef;
layers = (
{
anchors = (
{
name = bottom;
pos = (132,0);
},
{
name = stroke;
pos = (122,374);
},
{
name = top;
pos = (115,714);
},
{
name = top.digit;
pos = (72,714);
}
);
layerId = master01;
shapes = (
{
closed = 1;
nodes = (
(173,0,l),
(153,714,l),
(72,714,l),
(92,0,l)
);
}
);
width = 238;
}
);
unicode = 1575;
}
{
glyphname = "beh-ar";
layers = (
{
anchors = (
{
name = bottom;
pos = (486,-25);
},
{
name = ring;
pos = (481,25);
},
{
name = top;
pos = (486,298);
}
);
layerId = master01;
shapes = (
{
closed = 1;
nodes = (
(816,-21,o),
(943,39,o),
(943,197,cs),
(943,257,o),
(916,338,o),
(891,403,c),
(814,376,l),
(843,300,o),
(864,231,o),
(864,181,cs),
(864,89,o),
(727,61,o),
(416,61,cs),
(178,61,o),
(112,101,o),
(112,205,cs),
(112,239,o),
(125,290,o),
(133,320,c),
(58,339,l),
(44,289,o),
(30,231,o),
(30,182,cs),
(30,36,o),
(152,-21,o),
(390,-21,cs)
);
},
{
closed = 1;
nodes = (
(513,-211,o),
(535,-189,o),
(535,-162,cs),
(535,-135,o),
(513,-112,o),
(486,-112,cs),
(458,-112,o),
(436,-135,o),
(436,-162,cs),
(436,-189,o),
(458,-211,o),
(486,-211,cs)
);
}
);
width = 993;
}
);
unicode = 1576;
}
{
glyphname = "teh-ar";
layers = (
{
anchors = (
{
name = bottom;
pos = (486,-25);
},
{
name = ring;
pos = (481,25);
},
{
name = top;
pos = (486,298);
}
);
layerId = master01;
shapes = (
{
closed = 1;
nodes = (
(816,-21,o),
(943,39,o),
(943,197,cs),
(943,257,o),
(916,338,o),
(891,403,c),
(814,376,l),
(843,300,o),
(864,231,o),
(864,181,cs),
(864,89,o),
(727,61,o),
(416,61,cs),
(178,61,o),
(112,101,o),
(112,205,cs),
(112,239,o),
(125,290,o),
(133,320,c),
(58,339,l),
(44,289,o),
(30,231,o),
(30,182,cs),
(30,36,o),
(152,-21,o),
(390,-21,cs)
);
},
{
closed = 1;
nodes = (
(584,401,o),
(606,423,o),
(606,450,cs),
(606,477,o),
(584,500,o),
(557,500,cs),
(529,500,o),
(507,477,o),
(507,450,cs),
(507,423,o),
(529,401,o),
(557,401,cs)
);
},
{
closed = 1;
nodes = (
(447,401,o),
(469,423,o),
(469,450,cs),
(469,477,o),
(447,500,o),
(420,500,cs),
(392,500,o),
(370,477,o),
(370,450,cs),
(370,423,o),
(392,401,o),
(420,401,cs)
);
}
);
width = 993;
}
);
unicode = 1578;
}
{
glyphname = "theh-ar";
layers = (
{
anchors = (
{
name = bottom;
pos = (486,-25);
},
{
name = ring;
pos = (481,25);
},
{
name = top;
pos = (486,298);
}
);
layerId = master01;
shapes = (
{
closed = 1;
nodes = (
(816,-21,o),
(943,39,o),
(943,197,cs),
(943,257,o),
(916,338,o),
(891,403,c),
(814,376,l),
(843,300,o),
(864,231,o),
(864,181,cs),
(864,89,o),
(727,61,o),
(416,61,cs),
(178,61,o),
(112,101,o),
(112,205,cs),
(112,239,o),
(125,290,o),
(133,320,c),
(58,339,l),
(44,289,o),
(30,231,o),
(30,182,cs),
(30,36,o),
(152,-21,o),
(390,-21,cs)
);
},
{
closed = 1;
nodes = (
(516,511,o),
(538,533,o),
(538,560,cs),
(538,587,o),
(516,610,o),
(489,610,cs),
(461,610,o),
(439,587,o),
(439,560,cs),
(439,533,o),
(461,511,o),
(489,511,cs)
);
},
{
closed = 1;
nodes = (
(448,401,o),
(470,423,o),
(470,450,cs),
(470,477,o),
(448,500,o),
(421,500,cs),
(393,500,o),
(371,477,o),
(371,450,cs),
(371,423,o),
(393,401,o),
(421,401,cs)
);
},
{
closed = 1;
nodes = (
(584,401,o),
(606,423,o),
(606,450,cs),
(606,477,o),
(584,500,o),
(557,500,cs),
(529,500,o),
(507,477,o),
(507,450,cs),
(507,423,o),
(529,401,o),
(557,401,cs)
);
}
);
width = 993;
}
);
unicode = 1579;
}
{
glyphname = "hah-ar";
layers = (
{
anchors = (
{
name = bottom;
pos = (360,-394);
},
{
name = center;
pos = (350,-66);
},
{
name = top;
pos = (311,416);
}
);
layerId = master01;
shapes = (
{
closed = 1;
nodes = (
(438,-394,o),
(521,-376,o),
(599,-339,c),
(571,-271,l),
(505,-297,o),
(435,-311,o),
(370,-311,cs),
(220,-311,o),
(92,-254,o),
(92,-114,cs),
(92,118,o),
(380,250,o),
(572,250,c),
(570,332,l),
(561,332,ls),
(359,332,o),
(309,416,o),
(156,416,cs),
(112,416,o),
(66,406,o),
(32,392,c),
(46,318,l),
(73,325,o),
(101,333,o),
(141,333,cs),
(243,333,o),
(313,301,o),
(383,279,c),
(394,292,l),
(156,222,o),
(10,68,o),
(10,-124,cs),
(10,-309,o),
(172,-394,o),
(360,-394,cs)
);
}
);
width = 639;
}
);
unicode = 1581;
}
{
glyphname = "dal-ar";
kernRight = tooth;
layers = (
{
anchors = (
{
name = bottom;
pos = (226,-5);
},
{
name = ring;
pos = (227,42);
},
{
name = top;
pos = (215,457);
}
);
layerId = master01;
shapes = (
{
closed = 1;
nodes = (
(76,13,o),
(142,-6,o),
(215,-6,cs),
(380,-6,o),
(432,76,o),
(432,157,cs),
(432,221,o),
(395,322,o),
(289,469,c),
(220,424,l),
(336,260,o),
(351,201,o),
(351,162,cs),
(351,109,o),
(314,77,o),
(215,77,cs),
(151,77,o),
(102,96,o),
(75,114,c),
(35,45,l)
);
}
);
width = 477;
}
);
metricRight = "sad-ar";
unicode = 1583;
}
{
glyphname = "thal-ar";
layers = (
{
anchors = (
{
name = bottom;
pos = (226,-5);
},
{
name = ring;
pos = (227,42);
},
{
name = top;
pos = (215,457);
}
);
guides = (
{
pos = (63,560);
}
);
layerId = master01;
shapes = (
{
closed = 1;
nodes = (
(76,13,o),
(142,-6,o),
(215,-6,cs),
(380,-6,o),
(432,76,o),
(432,157,cs),
(432,221,o),
(395,322,o),
(289,469,c),
(220,424,l),
(336,260,o),
(351,201,o),
(351,162,cs),
(351,109,o),
(314,77,o),
(215,77,cs),
(151,77,o),
(102,96,o),
(75,114,c),
(35,45,l)
);
},
{
closed = 1;
nodes = (
(243,560,o),
(265,582,o),
(265,609,cs),
(265,636,o),
(243,659,o),
(216,659,cs),
(188,659,o),
(166,636,o),
(166,609,cs),
(166,582,o),
(188,560,o),
(216,560,cs)
);
}
);
width = 477;
}
);
unicode = 1584;
}
{
glyphname = "reh-ar";
kernLeft = reh;
layers = (
{
anchors = (
{
name = bottom;
pos = (137,-214);
},
{
name = center;
pos = (39,36);
},
{
name = ring;
pos = (249,-39);
},
{
name = top;
pos = (176,351);
}
);
layerId = master01;
shapes = (
{
closed = 1;
nodes = (
(108,-203,o),
(301,-97,o),
(301,114,cs),
(301,172,o),
(280,252,o),
(230,339,c),
(157,302,l),
(211,204,o),
(226,163,o),
(226,107,cs),
(226,19,o),
(177,-90,o),
(-25,-154,c),
(4,-230,l)
);
}
);
width = 367;
}
);
unicode = 1585;
}
{
glyphname = "zain-ar";
kernLeft = reh;
layers = (
{
anchors = (
{
name = bottom;
pos = (137,-214);
},
{
name = center;
pos = (39,36);
},
{
name = ring;
pos = (249,-39);
},
{
name = top;
pos = (176,351);
}
);
layerId = master01;
shapes = (
{
closed = 1;
nodes = (
(108,-203,o),
(301,-97,o),
(301,114,cs),
(301,172,o),
(280,252,o),
(230,339,c),
(157,302,l),
(211,204,o),
(226,163,o),
(226,107,cs),
(226,19,o),
(177,-90,o),
(-25,-154,c),
(4,-230,l)
);
},
{
closed = 1;
nodes = (
(204,454,o),
(226,476,o),
(226,503,cs),
(226,530,o),
(204,553,o),
(177,553,cs),
(149,553,o),
(127,530,o),
(127,503,cs),
(127,476,o),
(149,454,o),
(177,454,cs)
);
}
);
width = 367;
}
);
unicode = 1586;
}
{
glyphname = "seen-ar";
kernRight = tooth;
layers = (
{
anchors = (
{
name = bottom;
pos = (839,-5);
},
{
name = top;
pos = (821,332);
},
{
name = top.digit;
pos = (882,474);
}
);
layerId = master01;
shapes = (
{
closed = 1;
nodes = (
(561,-232,o),
(624,-87,o),
(637,41,c),
(596,92,l),
(606,44,o),
(636,-5,o),
(720,-5,cs),
(800,-5,o),
(839,24,o),
(871,97,c),
(837,97,l),
(847,27,o),
(887,-5,o),
(981,-5,cs),
(1083,-5,o),
(1159,43,o),
(1159,179,cs),
(1159,239,o),
(1132,338,o),
(1107,403,c),
(1026,373,l),
(1055,297,o),
(1083,213,o),
(1083,163,cs),
(1083,82,o),
(1043,77,o),
(982,77,cs),
(903,77,o),
(891,101,o),
(891,130,cs),
(891,164,o),
(903,232,o),
(909,268,c),
(833,282,l),
(809,86,o),
(777,77,o),
(725,77,cs),
(674,77,o),
(643,87,o),
(621,160,cs),
(615,181,o),
(609,208,o),
(588,284,c),
(507,262,l),
(530,183,o),
(553,114,o),
(553,26,cs),
(553,-59,o),
(498,-150,o),
(316,-150,cs),
(203,-150,o),
(112,-97,o),
(112,6,cs),
(112,46,o),
(123,92,o),
(144,148,c),
(72,176,l),
(43,105,o),
(30,47,o),
(30,-1,cs),
(30,-147,o),
(162,-232,o),
(313,-232,cs)
);
}
);
width = 1209;
}
);
metricLeft = "noonghunna-ar";
unicode = 1587;
}
{
glyphname = "sheen-ar";
layers = (
{
anchors = (
{
name = bottom;
pos = (839,-5);
},
{
name = top;
pos = (821,332);
},
{
name = top.digit;
pos = (882,474);
}
);
layerId = master01;
shapes = (
{
closed = 1;
nodes = (
(561,-232,o),
(624,-87,o),
(637,41,c),
(596,92,l),
(606,44,o),
(636,-5,o),
(720,-5,cs),
(800,-5,o),
(839,24,o),
(871,97,c),
(837,97,l),
(847,27,o),
(887,-5,o),
(981,-5,cs),
(1083,-5,o),
(1159,43,o),
(1159,179,cs),
(1159,239,o),
(1132,338,o),
(1107,403,c),
(1026,373,l),
(1055,297,o),
(1083,213,o),
(1083,163,cs),
(1083,82,o),
(1043,77,o),
(982,77,cs),
(903,77,o),
(891,101,o),
(891,130,cs),
(891,164,o),
(903,232,o),
(909,268,c),
(833,282,l),
(809,86,o),
(777,77,o),
(725,77,cs),
(674,77,o),
(643,87,o),
(621,160,cs),
(615,181,o),
(609,208,o),
(588,284,c),
(507,262,l),
(530,183,o),
(553,114,o),
(553,26,cs),
(553,-59,o),
(498,-150,o),
(316,-150,cs),
(203,-150,o),
(112,-97,o),
(112,6,cs),
(112,46,o),
(123,92,o),
(144,148,c),
(72,176,l),
(43,105,o),
(30,47,o),
(30,-1,cs),
(30,-147,o),
(162,-232,o),
(313,-232,cs)
);
},
{
closed = 1;
nodes = (
(851,545,o),
(873,567,o),
(873,594,cs),
(873,621,o),
(851,644,o),
(824,644,cs),
(796,644,o),
(774,621,o),
(774,594,cs),
(774,567,o),
(796,545,o),
(824,545,cs)
);
},
{
closed = 1;
nodes = (
(783,435,o),
(805,457,o),
(805,484,cs),
(805,511,o),
(783,534,o),
(756,534,cs),
(728,534,o),
(706,511,o),
(706,484,cs),
(706,457,o),
(728,435,o),
(756,435,cs)
);
},
{
closed = 1;
nodes = (
(919,435,o),
(941,457,o),
(941,484,cs),
(941,511,o),
(919,534,o),
(892,534,cs),
(864,534,o),
(842,511,o),
(842,484,cs),
(842,457,o),
(864,435,o),
(892,435,cs)
);
}
);
width = 1209;
}
);
unicode = 1588;
}
{
glyphname = "sad-ar";
kernRight = tooth;
layers = (
{
anchors = (
{
name = bottom;
pos = (904,-13);
},
{
name = top;
pos = (1054,374);
}
);
layerId = master01;
shapes = (
{
closed = 1;
nodes = (
(561,-232,o),
(624,-87,o),
(637,41,c),
(596,92,l),
(606,44,o),
(685,-13,o),
(887,-13,cs),
(1169,-13,o),
(1261,87,o),
(1261,205,cs),
(1261,301,o),
(1193,374,o),
(1084,374,cs),
(922,374,o),
(761,201,o),
(677,63,c),
(764,60,l),
(816,137,o),
(951,292,o),
(1078,292,cs),
(1153,292,o),
(1184,240,o),
(1184,197,cs),
(1184,113,o),
(1081,69,o),
(905,69,cs),
(726,69,o),
(649,90,o),
(621,160,cs),
(613,180,o),
(609,208,o),
(588,284,c),
(507,262,l),
(530,183,o),
(553,114,o),
(553,49,cs),
(553,-50,o),
(498,-150,o),
(316,-150,cs),
(203,-150,o),
(112,-97,o),
(112,6,c),
(112,46,o),
(123,92,o),
(144,148,c),
(72,176,l),
(43,105,o),
(30,47,o),
(30,-1,c),
(30,-147,o),
(162,-232,o),
(313,-232,cs)
);
}
);
width = 1306;
}
);
metricLeft = "noonghunna-ar";
unicode = 1589;
}
{
glyphname = "tah-ar";
kernRight = tooth;
layers = (
{
anchors = (
{
name = bottom;
pos = (369,-13);
},
{
name = top;
pos = (566,374);
}
);
layerId = master01;
shapes = (
{
closed = 1;
nodes = (
(651,-13,o),
(743,87,o),
(743,205,cs),
(743,301,o),
(675,374,o),
(566,374,cs),
(404,374,o),
(243,201,o),
(159,63,c),
(246,60,l),
(298,137,o),
(433,292,o),
(560,292,cs),
(635,292,o),
(666,240,o),
(666,197,cs),
(666,113,o),
(563,69,o),
(387,69,cs),
(230,69,o),
(107,73,o),
(29,84,c),
(20,6,l),
(81,-2,o),
(202,-13,o),
(369,-13,cs)
);
},
{
closed = 1;
nodes = (
(294,169,l),
(274,714,l),
(193,714,l),
(213,99,l)
);
}
);
width = 788;
}
);
metricRight = "sad-ar";
unicode = 1591;
}
{
glyphname = "zah-ar";
layers = (
{
anchors = (
{
name = bottom;
pos = (369,-13);
},
{
name = top;
pos = (566,374);
}
);
layerId = master01;
shapes = (
{
closed = 1;
nodes = (
(651,-13,o),
(743,87,o),
(743,205,cs),
(743,301,o),
(675,374,o),
(566,374,cs),
(404,374,o),
(243,201,o),
(159,63,c),
(246,60,l),
(298,137,o),
(433,292,o),
(560,292,cs),
(635,292,o),
(666,240,o),
(666,197,cs),
(666,113,o),
(563,69,o),
(387,69,cs),
(230,69,o),
(107,73,o),
(29,84,c),
(20,6,l),
(81,-2,o),
(202,-13,o),
(369,-13,cs)
);
},
{
closed = 1;
nodes = (
(294,169,l),
(274,714,l),
(193,714,l),
(213,99,l)
);
},
{
closed = 1;
nodes = (
(594,477,o),
(616,499,o),
(616,526,cs),
(616,553,o),
(594,576,o),
(567,576,cs),
(539,576,o),
(517,553,o),
(517,526,cs),
(517,499,o),
(539,477,o),
(567,477,cs)
);
}
);
width = 788;
}
);
unicode = 1592;
}
{
glyphname = "ghain-ar";
kernLeft = ain.isol;
kernRight = ain.isol;
layers = (
{
anchors = (
{
name = bottom;
pos = (343,-394);
},
{
name = center;
pos = (297,-95);
},
{
name = top;
pos = (241,499);
}
);
layerId = master01;
shapes = (
{
closed = 1;
nodes = (
(425,-394,o),
(529,-369,o),
(577,-344,c),
(551,-274,l),
(491,-299,o),
(413,-312,o),
(343,-312,cs),
(240,-312,o),
(92,-272,o),
(92,-115,cs),
(92,40,o),
(235,144,o),
(430,180,c),
(409,258,l),
(175,217,o),
(10,65,o),
(10,-127,cs),
(10,-335,o),
(200,-394,o),
(343,-394,cs)
);
},
{
closed = 1;
nodes = (
(265,201,l),
(215,197,o),
(117,245,o),
(117,316,cs),
(117,375,o),
(168,417,o),
(241,417,cs),
(265,417,o),
(296,413,o),
(323,406,c),
(340,483,l),
(308,493,o),
(272,499,o),
(241,499,cs),
(137,499,o),
(37,435,o),
(37,310,cs),
(37,229,o),
(97,156,o),
(178,136,c)
);
},
{
closed = 1;
nodes = (
(269,602,o),
(291,624,o),
(291,651,cs),
(291,678,o),
(269,701,o),
(242,701,cs),
(214,701,o),
(192,678,o),
(192,651,cs),
(192,624,o),
(214,602,o),
(242,602,cs)
);
}
);
width = 507;
}
);
unicode = 1594;
}
{
glyphname = "qaf-ar";
layers = (
{
anchors = (
{
name = bottom;
pos = (326,-188);
},
{
name = top;
pos = (549,416);
}
);
guides = (
{
pos = (537,519);
}
);
layerId = master01;
shapes = (
{
closed = 1;
nodes = (
(490,-188,o),
(626,-142,o),
(691,-17,cs),
(719,37,o),
(729,104,o),
(729,170,cs),
(729,296,o),
(676,416,o),
(569,416,cs),
(467,416,o),
(401,300,o),
(401,198,cs),
(401,112,o),
(458,71,o),
(560,71,cs),
(604,71,o),
(650,79,o),
(682,102,c),
(678,172,l),
(650,158,o),
(607,150,o),
(569,150,cs),
(504,150,o),
(480,176,o),
(480,218,cs),
(480,272,o),
(514,334,o),
(561,334,cs),
(617,334,o),
(651,259,o),
(651,176,cs),
(651,129,o),
(644,80,o),
(631,40,cs),
(604,-42,o),
(502,-104,o),
(348,-104,cs),
(220,-104,o),
(116,-61,o),
(116,64,cs),
(116,105,o),
(129,147,o),
(160,210,c),
(87,244,l),
(35,149,o),
(30,79,o),
(30,49,cs),
(30,-119,o),
(167,-188,o),
(326,-188,cs)
);
},
{
closed = 1;
nodes = (
(647,519,o),
(669,541,o),
(669,568,cs),
(669,595,o),
(647,618,o),
(620,618,cs),
(592,618,o),
(570,595,o),
(570,568,cs),
(570,541,o),
(592,519,o),
(620,519,cs)
);
},
{
closed = 1;
nodes = (
(510,519,o),
(532,541,o),
(532,568,cs),
(532,595,o),
(510,618,o),
(483,618,cs),
(455,618,o),
(433,595,o),
(433,568,cs),
(433,541,o),
(455,519,o),
(483,519,cs)
);
}
);
width = 774;
}
);
unicode = 1602;
}
{
glyphname = "kaf-ar";
layers = (
{
anchors = (
{
name = bottom;
pos = (410,-21);
},
{
name = top;
pos = (466,528);
}
);
layerId = master01;
shapes = (
{
closed = 1;
nodes = (
(765,-21,o),
(827,67,o),
(821,209,cs),
(801,714,l),
(720,714,l),
(739,200,ls),
(743,99,o),
(681,61,o),
(416,61,cs),
(178,61,o),
(112,101,o),
(112,205,cs),
(112,239,o),
(125,290,o),
(133,320,c),
(58,339,l),
(44,289,o),
(30,231,o),
(30,182,cs),
(30,36,o),
(152,-21,o),
(390,-21,cs)
);
},
{
closed = 1;
nodes = (
(504,242,o),
(528,275,o),
(528,313,cs),
(528,368,o),
(453,394,o),
(453,418,cs),
(453,434,o),
(480,454,o),
(542,483,c),
(511,540,l),
(412,492,o),
(387,451,o),
(387,416,cs),
(387,363,o),
(462,346,o),
(462,317,cs),
(462,301,o),
(429,289,o),
(345,267,c),
(364,204,l)
);
}
);
width = 882;
}
);
metricRight = "lam-ar.init";
unicode = 1603;
}
{
glyphname = "lam-ar";
layers = (
{
anchors = (
{
name = bar;
pos = (548,444);
},
{
name = bottom;
pos = (313,-232);
},
{
name = top;
pos = (558,714);
}
);
layerId = master01;
shapes = (
{
closed = 1;
nodes = (
(30,-160,o),
(169,-232,o),
(310,-232,cs),
(572,-232,o),
(637,-44,o),
(630,180,cs),
(613,714,l),
(530,714,l),
(549,201,ls),
(558,-40,o),
(508,-150,o),
(313,-150,cs),
(193,-150,o),
(112,-91,o),
(112,6,cs),
(112,46,o),
(123,92,o),
(144,148,c),
(72,176,l),
(43,105,o),
(30,47,o),
(30,-1,cs)
);
}
);
width = 695;
}
);
metricLeft = "noonghunna-ar";
metricRight = "alef-ar";
unicode = 1604;
}
{
glyphname = "meem-ar";
kernRight = hah;
layers = (
{
anchors = (
{
name = bottom;
pos = (260,0);
},
{
name = top;
pos = (263,382);
}
);
layerId = master01;
shapes = (
{
closed = 1;
nodes = (
(151,-373,l),
(120,-263,o),
(102,-141,o),
(102,-66,cs),
(102,67,o),
(226,82,o),
(407,29,c),
(422,50,o),
(444,105,o),
(444,155,cs),
(444,251,o),
(399,382,o),
(263,382,cs),
(194,382,o),
(121,343,o),
(70,235,c),
(132,201,l),
(167,267,o),
(208,301,o),
(258,301,cs),
(333,301,o),
(376,218,o),
(369,127,c),
(224,160,o),
(20,144,o),
(20,-61,cs),
(20,-129,o),
(39,-262,o),
(74,-393,c)
);
}
);
width = 484;
}
);
unicode = 1605;
}
{
glyphname = "noon-ar";
layers = (
{
anchors = (
{
name = bottom;
pos = (313,-232);
},
{
name = ring;
pos = (326,-192);
},
{
name = top;
pos = (331,295);
}
);
layerId = master01;
shapes = (
{
closed = 1;
nodes = (
(30,-160,o),
(162,-230,o),
(318,-230,cs),
(564,-230,o),
(635,-64,o),
(635,65,cs),
(635,155,o),
(600,241,o),
(561,318,c),
(486,280,l),
(538,173,o),
(554,105,o),
(554,54,cs),
(554,-40,o),
(498,-148,o),
(319,-148,cs),
(201,-148,o),
(112,-98,o),
(112,6,cs),
(112,46,o),
(123,92,o),
(144,148,c),
(72,176,l),
(43,105,o),
(30,47,o),
(30,-1,cs)
);
},
{
closed = 1;
nodes = (
(359,398,o),
(381,420,o),
(381,447,cs),
(381,474,o),
(359,497,o),
(332,497,cs),
(304,497,o),
(282,474,o),
(282,447,cs),
(282,420,o),
(304,398,o),
(332,398,cs)
);
}
);
width = 685;
}
);
unicode = 1606;
}
{
glyphname = "heh-ar";
kernRight = hah;
layers = (
{
anchors = (
{
name = bottom;
pos = (398,0);
},
{
name = top;
pos = (326,457);
}
);
layerId = master01;
shapes = (
{
closed = 1;
nodes = (
(587,-8,o),
(627,52,o),
(627,119,cs),
(627,184,o),
(608,264,o),
(288,499,c),
(241,437,l),
(549,218,o),
(545,139,o),
(545,121,cs),
(545,85,o),
(524,71,o),
(479,71,cs),
(384,71,o),
(252,137,o),
(252,248,cs),
(252,292,o),
(284,335,o),
(329,335,cs),
(373,335,o),
(399,292,o),
(399,250,cs),
(399,207,o),
(367,141,o),
(290,102,cs),
(253,83,o),
(206,71,o),
(147,71,cs),
(98,71,o),
(60,83,o),
(38,90,c),
(15,23,l),
(39,14,o),
(82,-8,o),
(147,-8,c),
(272,-8,o),
(473,82,o),
(473,239,cs),
(473,321,o),
(419,406,o),
(326,406,cs),
(237,406,o),
(177,327,o),
(177,238,cs),
(177,87,o),
(347,-8,o),
(483,-8,cs)
);
}
);
width = 672;
}
);
metricRight = "heh-ar.init";
unicode = 1607;
}
{
glyphname = "waw-ar";
layers = (
{
anchors = (
{
name = bottom;
pos = (224,-240);
},
{
name = ring;
pos = (121,-8);
},
{
name = top;
pos = (232,337);
},
{
name = top.digit;
pos = (182,433);
}
);
layerId = master01;
shapes = (
{
closed = 1;
nodes = (
(278,-205,o),
(392,-96,o),
(392,91,cs),
(392,217,o),
(339,337,o),
(232,337,cs),
(130,337,o),
(64,221,o),
(64,119,cs),
(64,33,o),
(121,-8,o),
(223,-8,cs),
(267,-8,o),
(313,0,o),
(345,23,c),
(341,93,l),
(313,79,o),
(270,71,o),
(232,71,cs),
(167,71,o),
(143,97,o),
(143,139,cs),
(143,193,o),
(177,255,o),
(224,255,cs),
(280,255,o),
(314,180,o),
(314,97,cs),
(314,-80,o),
(201,-127,o),
(40,-148,c),
(58,-230,l)
);
}
);
width = 447;
}
);
unicode = 1608;
}
{
glyphname = "alefMaksura-ar";
layers = (
{
anchors = (
{
name = bottom;
pos = (356,-232);
},
{
name = tail;
pos = (144,148);
},
{
name = top;
pos = (216,150);
},
{
name = top.digit;
pos = (274,292);
}
);
layerId = master01;
shapes = (
{
closed = 1;
nodes = (
(30,-158,o),
(159,-232,o),
(326,-232,cs),
(570,-232,o),
(707,-86,o),
(707,14,cs),
(707,116,o),
(462,131,o),
(462,201,cs),
(462,264,o),
(552,337,o),
(629,337,cs),
(660,337,o),
(688,326,o),
(711,315,c),
(744,386,l),
(726,399,o),
(685,419,o),
(629,419,cs),
(504,419,o),
(382,296,o),
(382,188,cs),
(382,63,o),
(618,57,o),
(618,1,cs),
(618,-53,o),
(524,-150,o),
(331,-150,cs),
(207,-150,o),
(112,-97,o),
(112,6,cs),
(112,46,o),
(123,92,o),
(144,148,c),
(72,176,l),
(43,105,o),
(30,47,o),
(30,-1,cs)
);
}
);
width = 760;
}
);
metricLeft = "noonghunna-ar";
unicode = 1609;
}
{
glyphname = "yeh-ar";
layers = (
{
anchors = (
{
name = bottom;
pos = (356,-232);
},
{
name = tail;
pos = (144,148);
},
{
name = top;
pos = (216,150);
},
{
name = top.digit;
pos = (274,292);
}
);
layerId = master01;
shapes = (
{
closed = 1;
nodes = (
(30,-158,o),
(159,-232,o),
(326,-232,cs),
(570,-232,o),
(707,-86,o),
(707,14,cs),
(707,116,o),
(462,131,o),
(462,201,cs),
(462,264,o),
(552,337,o),
(629,337,cs),
(660,337,o),
(688,326,o),
(711,315,c),
(744,386,l),
(726,399,o),
(685,419,o),
(629,419,cs),
(504,419,o),
(382,296,o),
(382,188,cs),
(382,63,o),
(618,57,o),
(618,1,cs),
(618,-53,o),
(524,-150,o),
(331,-150,cs),
(207,-150,o),
(112,-97,o),
(112,6,cs),
(112,46,o),
(123,92,o),
(144,148,c),
(72,176,l),
(43,105,o),
(30,47,o),
(30,-1,cs)
);
},
{
closed = 1;
nodes = (
(455,-421,o),
(477,-399,o),
(477,-372,cs),
(477,-345,o),
(455,-322,o),
(428,-322,cs),
(400,-322,o),
(378,-345,o),
(378,-372,cs),
(378,-399,o),
(400,-421,o),
(428,-421,cs)
);
},
{
closed = 1;
nodes = (
(318,-421,o),
(340,-399,o),
(340,-372,cs),
(340,-345,o),
(318,-322,o),
(291,-322,cs),
(263,-322,o),
(241,-345,o),
(241,-372,cs),
(241,-399,o),
(263,-421,o),
(291,-421,cs)
);
}
);
width = 760;
}
);
unicode = 1610;
}
{
glyphname = "one-ar";
layers = (
{
layerId = master01;
shapes = (
{
closed = 1;
nodes = (
(369,102,o),
(344,488,o),
(280,681,c),
(201,659,l),
(259,487,o),
(289,42,o),
(289,-4,c),
(371,6,l)
);
}
);
width = 572;
}
);
metricWidth = "=zero";
unicode = (1633,1777);
}
{
glyphname = "three-ar";
layers = (
{
layerId = master01;
shapes = (
{
closed = 1;
nodes = (
(203,102,o),
(178,488,o),
(114,681,c),
(35,659,l),
(93,487,o),
(123,42,o),
(123,-4,c),
(205,6,l)
);
},
{
closed = 1;
nodes = (
(268,427,o),
(307,451,o),
(323,495,c),
(300,495,l),
(309,454,o),
(346,431,o),
(401,431,cs),
(485,431,o),
(537,477,o),
(537,552,cs),
(537,583,o),
(528,630,o),
(503,683,c),
(435,658,l),
(446,633,o),
(462,594,o),
(462,563,cs),
(462,533,o),
(448,509,o),
(401,509,cs),
(363,509,o),
(343,524,o),
(343,548,cs),
(343,561,o),
(353,609,o),
(358,646,c),
(288,655,l),
(274,533,o),
(247,505,o),
(213,505,cs),
(194,505,o),
(158,515,o),
(149,548,cs),
(122,649,l),
(127,505,l),
(133,474,o),
(159,427,o),
(225,427,cs)
);
}
);
width = 572;
}
);
metricWidth = "=zero";
unicode = (1635,1779);
}
{
glyphname = "four-ar";
layers = (
{
layerId = master01;
shapes = (
{
closed = 1;
nodes = (
(438,93,o),
(375,73,o),
(308,73,cs),
(225,73,o),
(163,93,o),
(163,151,cs),
(163,194,o),
(194,255,o),
(338,330,c),
(331,402,l),
(231,380,o),
(162,409,o),
(162,447,cs),
(162,501,o),
(222,560,o),
(354,605,c),
(326,682,l),
(158,628,o),
(81,526,o),
(81,442,cs),
(81,380,o),
(128,339,o),
(189,326,c),
(101,259,o),
(80,192,o),
(80,147,cs),
(80,53,o),
(161,-5,o),
(299,-5,cs),
(384,-5,o),
(437,9,o),
(493,37,c),
(470,107,l)
);
}
);
width = 572;
}
);
metricWidth = "=zero";
unicode = 1636;
}
{
glyphname = "five-ar";
layers = (
{
layerId = master01;
name = Regular;
shapes = (
{
closed = 1;
nodes = (
(166,76,o),
(140,174,o),
(140,261,cs),
(140,379,o),
(203,561,o),
(280,561,cs),
(359,561,o),
(432,381,o),
(432,265,cs),
(432,175,o),
(407,76,o),
(280,76,cs)
);
},
{
closed = 1;
nodes = (
(474,-5,o),
(512,157,o),
(512,265,cs),
(512,406,o),
(426,642,o),
(280,642,cs),
(133,642,o),
(60,400,o),
(60,261,cs),
(60,154,o),
(101,-5,o),
(280,-5,cs)
);
}
);
width = 572;
}
);
metricWidth = "=zero";
unicode = 1637;
}
{
glyphname = "six-ar";
layers = (
{
layerId = master01;
shapes = (
{
closed = 1;
nodes = (
(498,5,l),
(479,102,o),
(428,477,o),
(428,667,c),
(388,640,l),
(356,592,l),
(356,323,o),
(409,72,o),
(420,-5,c)
);
},
{
closed = 1;
nodes = (
(428,667,l),
(366,651,o),
(188,641,o),
(89,682,c),
(74,606,l),
(161,560,o),
(318,563,o),
(422,587,c)
);
}
);
width = 572;
}
);
metricWidth = "=zero";
unicode = 1638;
}
{
glyphname = "seven-ar";
layers = (
{
layerId = master01;
shapes = (
{
closed = 1;
nodes = (
(321,8,l),
(355,168,o),
(468,462,o),
(555,654,c),
(477,686,l),
(402,520,o),
(307,261,o),
(262,73,cs),
(243,-6,l)
);
},
{
closed = 1;
nodes = (
(317,8,l),
(298,100,ls),
(261,281,o),
(173,504,o),
(97,691,c),
(17,660,l),
(104,461,o),
(194,181,o),
(243,-6,c)
);
}
);
width = 572;
}
);
metricWidth = "=zero";
unicode = 1639;
}
{
glyphname = "eight-ar";
layers = (
{
layerId = master01;
shapes = (
{
closed = 1;
nodes = (
(251,667,l),
(217,507,o),
(104,213,o),
(17,21,c),
(95,-11,l),
(170,155,o),
(265,414,o),
(310,602,cs),
(329,681,l)
);
},
{
closed = 1;
nodes = (
(255,667,l),
(274,575,ls),
(311,394,o),
(399,171,o),
(475,-16,c),
(555,15,l),
(468,214,o),
(378,494,o),
(329,681,c)
);
}
);
width = 572;
}
);
metricWidth = "=zero";
unicode = (1640,1784);
}
{
glyphname = "nine-ar";
layers = (
{
layerId = master01;
shapes = (
{
closed = 1;
nodes = (
(485,8,l),
(454,116,o),
(445,261,o),
(435,384,cs),
(422,538,o),
(401,679,o),
(265,679,cs),
(159,679,o),
(87,579,o),
(87,480,cs),
(87,377,o),
(163,320,o),
(267,321,cs),
(311,321,o),
(359,331,o),
(408,352,c),
(399,423,l),
(357,407,o),
(316,399,o),
(280,399,cs),
(212,399,o),
(163,429,o),
(163,492,cs),
(163,540,o),
(199,599,o),
(254,599,cs),
(327,599,o),
(345,512,o),
(358,367,cs),
(368,253,o),
(379,124,o),
(410,-5,c)
);
}
);
width = 572;
}
);
metricWidth = "=zero";
unicode = (1641,1785);
}
{
glyphname = "percent-ar";
layers = (
{
layerId = master01;
shapes = (
{
closed = 1;
nodes = (
(433,658,l),
(367,687,l),
(50,0,l),
(114,-26,l)
);
},
{
closed = 1;
nodes = (
(425,61,l),
(403,88,o),
(373,119,o),
(341,144,c),
(270,68,l),
(303,41,o),
(321,22,o),
(353,-11,c)
);
},
{
closed = 1;
nodes = (
(228,601,l),
(206,628,o),
(176,659,o),
(144,684,c),
(73,608,l),
(106,581,o),
(124,562,o),
(156,529,c)
);
}
);
width = 473;
}
);
unicode = 1642;
}
{
glyphname = "decimalseparator-ar";
layers = (
{
layerId = master01;
shapes = (
{
closed = 1;
nodes = (
(120,-108,o),
(187,-46,o),
(206,62,cs),
(218,125,o),
(178,159,o),
(131,180,c),
(101,111,l),
(123,102,o),
(141,92,o),
(165,77,c),
(138,-7,o),
(74,-69,o),
(0,-113,c),
(28,-152,l)
);
}
);
width = 245;
}
);
unicode = 1643;
}
{
glyphname = "behDotless-ar";
layers = (
{
anchors = (
{
name = bottom;
pos = (486,-25);
},
{
name = ring;
pos = (481,25);
},
{
name = top;
pos = (486,298);
}
);
layerId = master01;
shapes = (
{
closed = 1;
nodes = (
(816,-21,o),
(943,39,o),
(943,197,cs),
(943,257,o),
(916,338,o),
(891,403,c),
(814,376,l),
(843,300,o),
(864,231,o),
(864,181,cs),
(864,89,o),
(727,61,o),
(416,61,cs),
(178,61,o),
(112,101,o),
(112,205,cs),
(112,239,o),
(125,290,o),
(133,320,c),
(58,339,l),
(44,289,o),
(30,231,o),
(30,182,cs),
(30,36,o),
(152,-21,o),
(390,-21,cs)
);
}
);
width = 993;
}
);
metricRight = "seen-ar";
unicode = 1646;
}
{
glyphname = "qafDotless-ar";
kernRight = tooth;
layers = (
{
anchors = (
{
name = bottom;
pos = (326,-188);
},
{
name = top;
pos = (549,416);
}
);
layerId = master01;
shapes = (
{
closed = 1;
nodes = (
(490,-188,o),
(626,-142,o),
(691,-17,cs),
(719,37,o),
(729,104,o),
(729,170,cs),
(729,296,o),
(676,416,o),
(569,416,cs),
(467,416,o),
(401,300,o),
(401,198,cs),
(401,112,o),
(458,71,o),
(560,71,cs),
(604,71,o),
(650,79,o),
(682,102,c),
(678,172,l),
(650,158,o),
(607,150,o),
(569,150,cs),
(504,150,o),
(480,176,o),
(480,218,cs),
(480,272,o),
(514,334,o),
(561,334,cs),
(617,334,o),
(651,259,o),
(651,176,cs),
(651,129,o),
(644,80,o),
(631,40,cs),
(604,-42,o),
(502,-104,o),
(348,-104,cs),
(220,-104,o),
(116,-61,o),
(116,64,cs),
(116,105,o),
(129,147,o),
(160,210,c),
(87,244,l),
(35,149,o),
(30,79,o),
(30,49,cs),
(30,-119,o),
(167,-188,o),
(326,-188,cs)
);
}
);
width = 774;
}
);
metricRight = "sad-ar";
unicode = 1647;
}
{
glyphname = "fehDotless-ar";
kernRight = tooth;
layers = (
{
anchors = (
{
name = bottom.dot;
pos = (770,-25);
},
{
name = bottom.mark;
pos = (484,-31);
},
{
name = top;
pos = (758,501);
}
);
layerId = master01;
shapes = (
{
closed = 1;
nodes = (
(856,142,o),
(846,106,o),
(813,85,cs),
(771,58,o),
(579,61,o),
(416,61,cs),
(178,61,o),
(112,101,o),
(112,205,cs),
(112,239,o),
(125,290,o),
(133,320,c),
(58,339,l),
(44,289,o),
(30,231,o),
(30,182,cs),
(30,36,o),
(152,-21,o),
(390,-21,cs),
(602,-21,o),
(824,-20,o),
(874,30,cs),
(921,77,o),
(938,155,o),
(938,255,cs),
(938,381,o),
(885,501,o),
(778,501,cs),
(676,501,o),
(610,385,o),
(610,283,cs),
(610,197,o),
(667,156,o),
(769,156,cs),
(804,156,o),
(840,162,o),
(870,174,c),
(874,252,l),
(847,241,o),
(810,235,o),
(778,235,cs),
(713,235,o),
(689,261,o),
(689,303,cs),
(689,357,o),
(723,419,o),
(770,419,cs),
(826,419,o),
(860,344,o),
(860,261,cs),
(860,213,l)
);
}
);
width = 983;
}
);
metricRight = "sad-ar";
unicode = 1697;
}
{
glyphname = "noonghunna-ar";
layers = (
{
anchors = (
{
name = bottom;
pos = (313,-232);
},
{
name = ring;
pos = (326,-192);
},
{
name = top;
pos = (331,295);
}
);
layerId = master01;
shapes = (
{
closed = 1;
nodes = (
(30,-160,o),
(162,-230,o),
(318,-230,cs),
(564,-230,o),
(635,-64,o),
(635,65,cs),
(635,155,o),
(600,241,o),
(561,318,c),
(486,280,l),
(538,173,o),
(554,105,o),
(554,54,cs),
(554,-40,o),
(498,-148,o),
(319,-148,cs),
(201,-148,o),
(112,-98,o),
(112,6,cs),
(112,46,o),
(123,92,o),
(144,148,c),
(72,176,l),
(43,105,o),
(30,47,o),
(30,-1,cs)
);
}
);
width = 685;
}
);
metricRight = "seen-ar";
unicode = 1722;
}
{
glyphname = "zeroFarsi-ar";
layers = (
{
layerId = master01;
shapes = (
{
closed = 1;
nodes = (
(359,214,o),
(416,273,o),
(416,346,cs),
(416,419,o),
(359,478,o),
(286,478,cs),
(213,478,o),
(156,419,o),
(156,346,cs),
(156,273,o),
(213,214,o),
(286,214,cs)
);
},
{
closed = 1;
nodes = (
(258,296,o),
(236,318,o),
(236,346,cs),
(236,374,o),
(258,396,o),
(286,396,cs),
(314,396,o),
(336,374,o),
(336,346,cs),
(336,318,o),
(314,296,o),
(286,296,cs)
);
}
);
width = 572;
}
);
metricWidth = "=zero";
unicode = 1776;
}
{
glyphname = "twoFarsi-ar";
layers = (
{
layerId = master01;
shapes = (
{
closed = 1;
nodes = (
(251,102,o),
(226,488,o),
(162,681,c),
(83,659,l),
(141,487,o),
(171,42,o),
(171,-4,c),
(253,6,l)
);
},
{
closed = 1;
nodes = (
(397,471,o),
(478,513,o),
(489,665,c),
(421,678,l),
(406,559,o),
(356,552,o),
(290,552,cs),
(236,552,o),
(179,567,o),
(142,596,c),
(142,513,l),
(175,489,o),
(227,471,o),
(294,471,cs)
);
}
);
width = 572;
}
);
metricLeft = "=two-ar";
metricRight = "two-ar";
metricWidth = "=zero";
unicode = 1778;
}
{
glyphname = "fourFarsi-ar";
layers = (
{
guides = (
{
pos = (223,678);
}
);
layerId = master01;
shapes = (
{
closed = 1;
nodes = (
(246,116,o),
(225,451,o),
(161,678,c),
(81,656,l),
(139,446,o),
(170,70,o),
(170,4,c),
(246,0,l)
);
},
{
closed = 1;
nodes = (
(379,418,o),
(434,432,o),
(492,463,c),
(476,530,l),
(440,512,o),
(413,501,o),
(365,491,c),
(391,456,l),
(441,475,l),
(400,474,o),
(330,519,o),
(330,565,cs),
(330,590,o),
(352,601,o),
(388,601,cs),
(407,601,o),
(423,598,o),
(439,594,c),
(447,668,l),
(429,674,o),
(404,678,o),
(383,678,cs),
(304,678,o),
(254,630,o),
(254,567,cs),
(254,510,o),
(302,463,o),
(351,447,c),
(355,489,l),
(292,486,o),
(225,490,o),
(193,496,c),
(197,424,l),
(231,420,o),
(276,418,o),
(304,418,cs)
);
}
);
width = 572;
}
);
metricWidth = "=zero";
unicode = 1780;
}
{
glyphname = "fiveFarsi-ar";
layers = (
{
layerId = master01;
shapes = (
{
closed = 1;
nodes = (
(264,0,o),
(291,42,o),
(291,73,c),
(270,73,l),
(270,41,o),
(303,0,o),
(361,0,cs),
(449,0,o),
(494,85,o),
(494,173,cs),
(494,317,o),
(431,507,o),
(274,680,c),
(208,628,l),
(364,456,o),
(418,291,o),
(418,170,cs),
(418,94,o),
(388,77,o),
(354,77,cs),
(322,77,o),
(312,99,o),
(312,140,c),
(312,153,l),
(251,148,l),
(251,135,ls),
(251,103,o),
(246,77,o),
(210,77,cs),
(167,77,o),
(150,107,o),
(150,177,cs),
(150,308,o),
(251,478,o),
(324,555,c),
(274,603,l),
(198,523,o),
(79,341,o),
(79,173,cs),
(79,50,o),
(131,0,o),
(203,0,cs)
);
}
);
width = 572;
}
);
metricWidth = "=zero";
unicode = 1781;
}
{
glyphname = "sixFarsi-ar";
layers = (
{
layerId = master01;
shapes = (
{
closed = 1;
nodes = (
(233,130,o),
(328,274,o),
(471,370,c),
(434,434,l),
(285,348,o),
(189,224,o),
(101,27,c),
(174,-2,l)
);
},
{
closed = 1;
nodes = (
(407,356,l),
(336,355,o),
(223,416,o),
(223,502,cs),
(223,539,o),
(244,600,o),
(328,600,cs),
(353,600,o),
(382,595,o),
(409,587,c),
(422,662,l),
(392,672,o),
(361,678,o),
(328,678,cs),
(213,678,o),
(141,603,o),
(141,504,cs),
(141,393,o),
(233,328,o),
(315,306,c)
);
}
);
width = 572;
}
);
metricWidth = "=zero";
unicode = 1782;
}
{
color = 4;
glyphname = aeTurnedmod;
layers = (
{
anchors = (
{
name = center;
pos = (288,450);
},
{
name = math.ta;
pos = (326,669);
}
);
layerId = master01;
shapes = (
{
closed = 1;
nodes = (
(222,281,o),
(260,300,o),
(282,334,c),
(301,297,o),
(336,282,o),
(390,282,cs),
(434,282,o),
(480,294,o),
(512,309,c),
(493,350,l),
(464,337,o),
(430,325,o),
(394,325,cs),
(350,325,o),
(321,343,o),
(321,396,cs),
(321,417,l),
(380,419,ls),
(488,423,o),
(541,457,o),
(541,522,cs),
(541,589,o),
(492,619,o),
(429,619,cs),
(361,619,o),
(325,592,o),
(295,550,c),
(269,596,o),
(222,619,o),
(161,619,cs),
(118,619,o),
(87,612,o),
(52,598,c),
(52,551,l),
(86,565,o),
(117,573,o),
(159,573,cs),
(225,573,o),
(260,537,o),
(262,460,c),
(36,460,l),
(36,427,ls),
(36,340,o),
(89,281,o),
(175,281,cs)
);
},
{
closed = 1;
nodes = (
(122,325,o),
(98,362,o),
(98,418,c),
(261,418,l),
(256,358,o),
(225,325,o),
(175,325,cs)
);
},
{
closed = 1;
nodes = (
(322,482,ls),
(322,546,o),
(365,575,o),
(420,575,cs),
(457,575,o),
(481,559,o),
(481,523,cs),
(481,481,o),
(454,457,o),
(372,455,cs),
(322,454,l)
);
}
);
width = 591;
}
);
unicode = 7494;
}
{
color = 4;
glyphname = quoteright;
kernLeft = quotedbl;
kernRight = quotedbl;
layers = (
{
anchors = (
{
name = center;
pos = (87,591);
}
);
layerId = master01;
shapes = (
{
closed = 1;
nodes = (
(77,469,l),
(109,540,o),
(145,633,o),
(163,703,c),
(156,714,l),
(62,714,l),
(52,644,o),
(31,544,o),
(12,469,c)
);
}
);
width = 175;
}
);
unicode = 8217;
}
{
color = 4;
glyphname = quotedblleft;
kernLeft = quotedbl;
kernRight = quotedbl;
layers = (
{
anchors = (
{
name = center;
pos = (179,591);
}
);
layerId = master01;
shapes = (
{
closed = 1;
nodes = (
(113,469,l),
(123,539,o),
(145,639,o),
(164,714,c),
(98,714,l),
(66,643,o),
(30,551,o),
(12,480,c),
(19,469,l)
);
},
{
closed = 1;
nodes = (
(298,469,l),
(308,539,o),
(328,639,o),
(347,714,c),
(283,714,l),
(251,643,o),
(215,551,o),
(197,480,c),
(204,469,l)
);
}
);
width = 359;
}
);
unicode = 8220;
}
{
color = 4;
glyphname = quotedblright;
kernLeft = quotedbl;
kernRight = quotedbl;
layers = (
{
anchors = (
{
name = center;
pos = (179,591);
}
);
layerId = master01;
shapes = (
{
closed = 1;
nodes = (
(261,469,l),
(293,540,o),
(329,632,o),
(347,703,c),
(340,714,l),
(246,714,l),
(236,644,o),
(214,544,o),
(195,469,c)
);
},
{
closed = 1;
nodes = (
(76,469,l),
(108,540,o),
(144,632,o),
(162,703,c),
(155,714,l),
(61,714,l),
(51,644,o),
(31,544,o),
(12,469,c)
);
}
);
width = 359;
}
);
unicode = 8221;
}
{
glyphname = dagger;
layers = (
{
anchors = (
{
name = center;
pos = (256,380);
}
);
layerId = master01;
shapes = (
{
closed = 1;
nodes = (
(448,484,l),
(448,571,l),
(277,556,l),
(302,760,l),
(202,760,l),
(226,556,l),
(65,571,l),
(65,484,l),
(226,499,l),
(202,0,l),
(302,0,l),
(277,499,l)
);
}
);
width = 512;
}
);
unicode = 8224;
}
{
color = 4;
glyphname = ellipsis;
layers = (
{
anchors = (
{
name = center;
pos = (395,53);
}
);
layerId = master01;
shapes = (
{
closed = 1;
nodes = (
(690,-14,o),
(719,6,o),
(719,54,cs),
(719,103,o),
(690,121,o),
(656,121,cs),
(622,121,o),
(595,103,o),
(595,54,cs),
(595,6,o),
(622,-14,o),
(656,-14,cs)
);
},
{
closed = 1;
nodes = (
(167,-14,o),
(196,6,o),
(196,54,cs),
(196,103,o),
(167,121,o),
(133,121,cs),
(99,121,o),
(72,103,o),
(72,54,cs),
(72,6,o),
(99,-14,o),
(133,-14,cs)
);
},
{
closed = 1;
nodes = (
(429,-14,o),
(458,6,o),
(458,54,cs),
(458,103,o),
(429,121,o),
(395,121,cs),
(361,121,o),
(334,103,o),
(334,54,cs),
(334,6,o),
(361,-14,o),
(395,-14,cs)
);
}
);
width = 791;
}
);
unicode = 8230;
}
{
glyphname = prime;
layers = (
{
anchors = (
{
name = center;
pos = (148,585);
}
);
layerId = master01;
shapes = (
{
closed = 1;
nodes = (
(97,456,l),
(258,714,l),
(168,714,l),
(39,456,l)
);
}
);
width = 232;
}
);
unicode = 8242;
}
{
glyphname = second;
layers = (
{
layerId = master01;
shapes = (
{
closed = 1;
nodes = (
(273,456,l),
(434,714,l),
(344,714,l),
(215,456,l)
);
},
{
closed = 1;
nodes = (
(97,456,l),
(258,714,l),
(168,714,l),
(39,456,l)
);
}
);
width = 408;
}
);
unicode = 8243;
}
{
glyphname = tripleprime;
layers = (
{
layerId = master01;
shapes = (
{
closed = 1;
nodes = (
(449,456,l),
(610,714,l),
(520,714,l),
(391,456,l)
);
},
{
closed = 1;
nodes = (
(97,456,l),
(258,714,l),
(168,714,l),
(39,456,l)
);
},
{
closed = 1;
nodes = (
(273,456,l),
(434,714,l),
(344,714,l),
(215,456,l)
);
}
);
userData = {
com.schriftgestaltung.Glyphs.glyph.leftMetricsKey = second;
com.schriftgestaltung.Glyphs.glyph.rightMetricsKey = second;
};
width = 584;
}
);
unicode = 8244;
}
{
glyphname = primeReversed;
layers = (
{
anchors = (
{
name = center;
pos = (83,585);
}
);
layerId = master01;
shapes = (
{
closed = 1;
nodes = (
(193,456,l),
(64,714,l),
(-26,714,l),
(135,456,l)
);
}
);
width = 232;
}
);
unicode = 8245;
}
{
glyphname = fraction;
layers = (
{
anchors = (
{
name = center;
pos = (64,357);
}
);
layerId = master01;
shapes = (
{
closed = 1;
nodes = (
(320,714,l),
(245,714,l),
(-191,0,l),
(-116,0,l)
);
}
);
width = 130;
}
);
unicode = 8260;
userData = {
com.nagwa.MATHPlugin.extendedShape = 1;
com.nagwa.MATHPlugin.variants = {
vVariants = (
fraction,
slash,
slash.s1,
slash.s2,
slash.s3,
slash.s4,
slash.s5,
slash.s6,
slash.s7,
slash.s8,
slash.s9,
slash.s10,
slash.s11,
slash.s12
);
};
};
}
{
glyphname = longverticallineoverlaycomb;
layers = (
{
anchors = (
{
name = _center;
pos = (0,268);
}
);
layerId = master01;
shapes = (
{
closed = 1;
nodes = (
(45,-178,l),
(45,714,l),
(-45,714,l),
(-45,-178,l)
);
}
);
width = 0;
}
);
unicode = 8402;
}
{
glyphname = shortverticallineoverlaycomb;
layers = (
{
anchors = (
{
name = _center;
pos = (0,268);
}
);
layerId = master01;
shapes = (
{
closed = 1;
nodes = (
(41,-48,l),
(41,584,l),
(-39,584,l),
(-39,-48,l)
);
}
);
width = 0;
}
);
unicode = 8403;
}
{
glyphname = anticlockwisearrowabovecomb;
layers = (
{
anchors = (
{
name = _top;
pos = (304,536);
},
{
name = math.ta;
pos = (304,0);
},
{
name = top;
pos = (304,486);
}
);
layerId = master01;
shapes = (
{
closed = 1;
nodes = (
(131,608,l),
(86,652,l),
(142,714,o),
(226,746,o),
(314,746,cs),
(415,746,o),
(507,701,o),
(558,630,c),
(608,662,l),
(541,751,o),
(433,805,o),
(314,805,cs),
(207,805,o),
(117,769,o),
(44,695,c),
(0,739,l),
(0,608,l)
);
}
);
width = 608;
}
);
unicode = 8404;
}
{
glyphname = clockwisearrowabovecomb;
layers = (
{
anchors = (
{
name = _top;
pos = (304,536);
},
{
name = math.ta;
pos = (304,486);
},
{
name = top;
pos = (304,486);
}
);
layerId = master01;
shapes = (
{
closed = 1;
nodes = (
(608,608,l),
(608,739,l),
(564,695,l),
(491,769,o),
(401,805,o),
(294,805,cs),
(174,805,o),
(66,750,o),
(0,662,c),
(50,630,l),
(101,701,o),
(193,746,o),
(294,746,cs),
(382,746,o),
(466,714,o),
(522,652,c),
(477,608,l)
);
}
);
width = 608;
}
);
unicode = 8405;
}
{
glyphname = threedotsabovecomb;
layers = (
{
anchors = (
{
name = _top;
pos = (242,536);
},
{
name = math.ta;
pos = (242,0);
},
{
name = top;
pos = (242,664);
}
);
layerId = master01;
shapes = (
{
closed = 1;
nodes = (
(461,625,o),
(485,642,o),
(485,681,cs),
(485,720,o),
(461,737,o),
(434,737,cs),
(405,737,o),
(382,720,o),
(382,681,cs),
(382,642,o),
(405,625,o),
(434,625,cs)
);
},
{
closed = 1;
nodes = (
(79,625,o),
(103,642,o),
(103,681,cs),
(103,720,o),
(79,737,o),
(52,737,cs),
(23,737,o),
(0,720,o),
(0,681,cs),
(0,642,o),
(23,625,o),
(52,625,cs)
);
},
{
closed = 1;
nodes = (
(270,625,o),
(294,642,o),
(294,681,cs),
(294,720,o),
(270,737,o),
(243,737,cs),
(214,737,o),
(191,720,o),
(191,681,cs),
(191,642,o),
(214,625,o),
(243,625,cs)
);
}
);
width = 485;
}
);
metricLeft = "=0";
metricRight = "=0";
unicode = 8411;
}
{
glyphname = fourdotsabovecomb;
layers = (
{
anchors = (
{
name = _top;
pos = (-1,536);
},
{
name = math.ta;
pos = (-1,664);
},
{
name = top;
pos = (-1,664);
}
);
layerId = master01;
shapes = (
{
closed = 1;
nodes = (
(313,625,o),
(337,642,o),
(337,681,cs),
(337,720,o),
(313,737,o),
(286,737,cs),
(257,737,o),
(234,720,o),
(234,681,cs),
(234,642,o),
(257,625,o),
(286,625,cs)
);
},
{
closed = 1;
nodes = (
(-260,625,o),
(-236,642,o),
(-236,681,cs),
(-236,720,o),
(-260,737,o),
(-287,737,cs),
(-316,737,o),
(-339,720,o),
(-339,681,cs),
(-339,642,o),
(-316,625,o),
(-287,625,cs)
);
},
{
closed = 1;
nodes = (
(-69,625,o),
(-45,642,o),
(-45,681,cs),
(-45,720,o),
(-69,737,o),
(-96,737,cs),
(-125,737,o),
(-148,720,o),
(-148,681,cs),
(-148,642,o),
(-125,625,o),
(-96,625,cs)
);
},
{
closed = 1;
nodes = (
(122,625,o),
(146,642,o),
(146,681,cs),
(146,720,o),
(122,737,o),
(95,737,cs),
(66,737,o),
(43,720,o),
(43,681,cs),
(43,642,o),
(66,625,o),
(95,625,cs)
);
}
);
width = 0;
}
);
unicode = 8412;
}
{
glyphname = enclosingsquarecomb;
layers = (
{
anchors = (
{
name = _center;
pos = (542,357);
}
);
layerId = master01;
shapes = (
{
closed = 1;
nodes = (
(1033,-134,l),
(1033,848,l),
(51,848,l),
(51,-134,l)
);
},
{
closed = 1;
nodes = (
(102,797,l),
(982,797,l),
(982,-83,l),
(102,-83,l)
);
}
);
width = 1084;
}
);
unicode = 8414;
}
{
color = 0;
export = 0;
glyphname = enclosingdiamondcomb;
layers = (
{
layerId = master01;
shapes = (
{
closed = 1;
nodes = (
(1319,357,l),
(685,991,l),
(51,357,l),
(685,-277,l)
);
},
{
closed = 1;
nodes = (
(123,357,l),
(685,919,l),
(1247,357,l),
(685,-205,l)
);
}
);
width = 1370;
}
);
unicode = 8415;
}
{
glyphname = leftrightarrowabovecomb;
layers = (
{
anchors = (
{
name = _top;
pos = (298,536);
},
{
name = math.ta;
pos = (298,486);
},
{
name = top;
pos = (298,486);
}
);
layerId = master01;
shapes = (
{
closed = 1;
nodes = (
(497,730,l),
(100,730,l),
(100,670,l),
(497,670,l)
);
},
{
closed = 1;
nodes = (
(167,592,l),
(148,632,o),
(129,662,o),
(110,680,c),
(110,720,l),
(129,738,o),
(148,768,o),
(167,808,c),
(123,808,l),
(84,764,o),
(43,732,o),
(0,711,c),
(0,689,l),
(43,668,o),
(84,636,o),
(123,592,c)
);
},
{
closed = 1;
nodes = (
(513,636,o),
(554,668,o),
(597,689,c),
(597,711,l),
(554,732,o),
(513,764,o),
(474,808,c),
(430,808,l),
(449,768,o),
(468,738,o),
(487,720,c),
(487,680,l),
(468,662,o),
(449,632,o),
(430,592,c),
(474,592,l)
);
}
);
userData = {
com.nagwa.MATHPlugin.variants = {
hAssembly = (
(
leftarrowabove.s1,
0,
0,
700
),
(
horizontalabove.x,
1,
600,
600
),
(
rightarrowabove.s1,
0,
700,
0
)
);
};
};
width = 597;
}
);
unicode = 8417;
userData = {
com.nagwa.MATHPlugin.variants = {
};
};
}
{
glyphname = enclosingupwardpointingtrianglecomb;
layers = (
{
anchors = (
{
name = _center;
pos = (860,322);
}
);
layerId = master01;
shapes = (
{
closed = 1;
nodes = (
(1669,-142,l),
(860,1239,l),
(51,-142,l)
);
},
{
closed = 1;
nodes = (
(860,1138,l),
(1580,-91,l),
(140,-91,l)
);
}
);
width = 1720;
}
);
unicode = 8420;
}
{
glyphname = doubleverticalstrokeoverlaycomb;
layers = (
{
anchors = (
{
name = _center;
pos = (0,260);
}
);
layerId = master01;
shapes = (
{
closed = 1;
nodes = (
(146,-241,l),
(146,760,l),
(73,760,l),
(73,-241,l)
);
},
{
closed = 1;
nodes = (
(-74,-241,l),
(-74,760,l),
(-147,760,l),
(-147,-241,l)
);
}
);
width = 0;
}
);
unicode = 8422;
}
{
glyphname = AnnuitySymbol;
layers = (
{
anchors = (
{
name = math.ta;
pos = (-264,0);
}
);
layerId = master01;
shapes = (
{
closed = 1;
nodes = (
(143,0,l),
(143,776,l),
(-633,776,l),
(-633,713,l),
(80,713,l),
(80,0,l)
);
}
);
userData = {
com.schriftgestaltung.Glyphs.originalWidth = 833;
};
width = 143;
}
);
metricRight = "=0";
unicode = 8423;
}
{
glyphname = tripleunderdotcomb;
layers = (
{
anchors = (
{
name = _bottom;
pos = (-1,0);
},
{
name = math.ta;
pos = (-1,0);
},
{
name = top;
pos = (-1,-26);
}
);
layerId = master01;
shapes = (
{
closed = 1;
nodes = (
(218,-188,o),
(242,-171,o),
(242,-132,cs),
(242,-93,o),
(218,-76,o),
(191,-76,cs),
(162,-76,o),
(139,-93,o),
(139,-132,cs),
(139,-171,o),
(162,-188,o),
(191,-188,cs)
);
},
{
closed = 1;
nodes = (
(-164,-188,o),
(-140,-171,o),
(-140,-132,cs),
(-140,-93,o),
(-164,-76,o),
(-191,-76,cs),
(-220,-76,o),
(-243,-93,o),
(-243,-132,cs),
(-243,-171,o),
(-220,-188,o),
(-191,-188,cs)
);
},
{
closed = 1;
nodes = (
(27,-188,o),
(51,-171,o),
(51,-132,cs),
(51,-93,o),
(27,-76,o),
(0,-76,cs),
(-29,-76,o),
(-52,-93,o),
(-52,-132,cs),
(-52,-171,o),
(-29,-188,o),
(0,-188,cs)
);
}
);
width = 0;
}
);
unicode = 8424;
}
{
glyphname = widebridgeabovecomb;
layers = (
{
anchors = (
{
name = _top;
pos = (3,536);
},
{
name = math.ta;
pos = (3,486);
},
{
name = top;
pos = (3,486);
}
);
layerId = master01;
shapes = (
{
closed = 1;
nodes = (
(-167,606,l),
(-167,705,l),
(166,705,l),
(166,606,l),
(223,606,l),
(223,771,l),
(-223,771,l),
(-223,606,l)
);
}
);
width = 0;
}
);
unicode = 8425;
}
{
glyphname = longdoublesolidusoverlaycomb;
layers = (
{
anchors = (
{
name = _center;
pos = (0,357);
}
);
layerId = master01;
shapes = (
{
closed = 1;
nodes = (
(5,0,l),
(271,714,l),
(185,714,l),
(-82,0,l)
);
},
{
closed = 1;
nodes = (
(-185,0,l),
(81,714,l),
(-5,714,l),
(-272,0,l)
);
}
);
width = 0;
}
);
unicode = 8427;
}
{
glyphname = CdoubleStruck;
layers = (
{
anchors = (
{
name = center;
pos = (316,357);
},
{
name = math.ta;
pos = (323,764);
}
);
layerId = master01;
shapes = (
{
closed = 1;
nodes = (
(445,-10,o),
(499,-6,o),
(562,8,c),
(562,67,l),
(506,52,o),
(446,43,o),
(391,43,cs),
(332,43,o),
(282,54,o),
(242,74,c),
(242,636,l),
(283,659,o),
(333,672,o),
(391,672,cs),
(445,672,o),
(504,660,o),
(556,638,c),
(582,694,l),
(518,719,o),
(457,725,o),
(393,725,cs),
(172,725,o),
(50,574,o),
(50,358,cs),
(50,133,o),
(159,-10,o),
(382,-10,cs)
);
},
{
closed = 1;
nodes = (
(133,166,o),
(106,249,o),
(106,355,cs),
(106,458,o),
(135,542,o),
(189,596,c),
(189,112,l)
);
}
);
width = 632;
}
);
unicode = 8450;
}
{
color = 4;
glyphname = gscript;
layers = (
{
anchors = (
{
name = center;
pos = (181,8);
},
{
name = math.ta;
pos = (363,362);
},
{
name = top;
pos = (363,362);
}
);
layerId = master01;
shapes = (
{
closed = 1;
nodes = (
(97,-295,o),
(189,-185,o),
(288,2,c),
(342,23,o),
(397,53,o),
(440,92,c),
(427,106,l),
(382,68,o),
(346,49,o),
(307,33,c),
(462,312,l),
(356,303,l),
(331,258,l),
(329,292,o),
(308,308,o),
(264,308,cs),
(151,308,o),
(13,189,o),
(13,87,cs),
(13,33,o),
(47,-2,o),
(104,-2,cs),
(142,-2,o),
(176,15,o),
(214,51,c),
(181,-10,l),
(-9,-73,o),
(-100,-143,o),
(-100,-218,cs),
(-100,-266,o),
(-65,-295,o),
(-5,-295,cs)
);
},
{
closed = 1;
nodes = (
(-33,-275,o),
(-47,-256,o),
(-47,-225,cs),
(-47,-153,o),
(37,-77,o),
(169,-37,c),
(126,-121,o),
(90,-181,o),
(64,-218,cs),
(39,-254,o),
(17,-275,o),
(-7,-275,cs)
);
},
{
closed = 1;
nodes = (
(105,14,o),
(96,22,o),
(96,36,cs),
(96,85,o),
(238,288,o),
(285,288,cs),
(303,288,o),
(313,277,o),
(313,260,cs),
(313,239,o),
(299,210,o),
(277,169,cs),
(232,86,o),
(172,14,o),
(122,14,cs)
);
}
);
width = 482;
}
);
unicode = 8458;
}
{
color = 4;
glyphname = Hscript;
layers = (
{
anchors = (
{
name = center;
pos = (562,366);
},
{
name = math.ic;
pos = (1125,250);
},
{
name = math.ta;
pos = (888,764);
}
);
layerId = master01;
shapes = (
{
closed = 1;
nodes = (
(725,-9,o),
(823,98,o),
(864,148,cs),
(868,152,o),
(870,156,o),
(870,159,cs),
(870,162,o),
(868,165,o),
(864,165,cs),
(859,165,o),
(856,162,o),
(851,157,cs),
(804,105,o),
(713,9,o),
(667,9,cs),
(648,9,o),
(643,20,o),
(643,28,cs),
(643,57,o),
(693,227,o),
(769,394,cs),
(799,460,o),
(829,516,o),
(861,566,cs),
(952,708,o),
(1015,723,o),
(1035,723,cs),
(1055,723,o),
(1073,713,o),
(1073,690,cs),
(1073,624,o),
(937,479,o),
(847,436,cs),
(778,403,o),
(594,341,o),
(463,303,cs),
(324,263,o),
(271,217,o),
(236,181,cs),
(232,177,o),
(229,172,o),
(229,168,cs),
(229,163,o),
(233,160,o),
(238,160,cs),
(241,160,o),
(246,163,o),
(250,167,cs),
(284,203,o),
(343,251,o),
(468,288,cs),
(606,329,o),
(768,379,o),
(857,420,cs),
(1029,499,o),
(1105,619,o),
(1105,674,cs),
(1105,718,o),
(1080,742,o),
(1035,742,cs),
(920,742,o),
(759,548,o),
(656,356,cs),
(606,262,o),
(573,171,o),
(573,116,cs),
(573,28,o),
(620,-9,o),
(664,-9,cs)
);
},
{
closed = 1;
nodes = (
(392,-10,o),
(496,159,o),
(542,317,cs),
(604,529,o),
(622,578,o),
(699,666,cs),
(706,674,o),
(711,680,o),
(711,684,cs),
(711,688,o),
(708,691,o),
(704,691,cs),
(701,691,o),
(696,689,o),
(689,682,cs),
(591,593,o),
(433,464,o),
(400,464,cs),
(392,464,o),
(390,469,o),
(390,474,cs),
(390,479,o),
(395,487,o),
(404,499,cs),
(412,509,o),
(436,540,o),
(444,556,cs),
(452,572,o),
(454,586,o),
(454,600,cs),
(454,609,o),
(454,648,o),
(405,648,cs),
(343,648,o),
(253,555,o),
(194,478,cs),
(191,474,o),
(188,470,o),
(188,466,cs),
(188,462,o),
(191,459,o),
(196,459,cs),
(200,459,o),
(203,461,o),
(207,467,cs),
(279,562,o),
(359,630,o),
(397,630,cs),
(409,630,o),
(410,626,o),
(410,623,cs),
(410,617,o),
(394,593,o),
(377,568,cs),
(358,540,o),
(338,508,o),
(338,490,cs),
(338,463,o),
(356,443,o),
(384,443,cs),
(427,443,o),
(529,522,o),
(593,581,c),
(507,476,o),
(464,385,o),
(420,290,cs),
(397,240,o),
(379,205,o),
(363,174,cs),
(311,74,o),
(252,8,o),
(167,8,cs),
(67,8,o),
(59,69,o),
(59,87,cs),
(59,107,o),
(69,116,o),
(98,121,cs),
(142,129,o),
(168,143,o),
(168,180,cs),
(168,200,o),
(153,228,o),
(105,228,cs),
(60,228,o),
(20,189,o),
(20,125,cs),
(20,89,o),
(36,-10,o),
(177,-10,cs)
);
}
);
width = 1095;
}
);
unicode = 8459;
}
{
color = 4;
glyphname = "H-fraktur";
layers = (
{
anchors = (
{
name = center;
pos = (309,274);
},
{
name = math.ta;
pos = (340,764);
},
{
name = top;
pos = (340,764);
}
);
layerId = master01;
shapes = (
{
closed = 1;
nodes = (
(269,-178,o),
(310,-150,o),
(327,-105,c),
(304,-97,l),
(289,-136,o),
(256,-155,o),
(219,-155,cs),
(170,-155,o),
(133,-121,o),
(133,-67,cs),
(133,-22,o),
(160,15,o),
(208,15,cs),
(237,15,o),
(257,2,o),
(257,-20,cs),
(257,-25,o),
(256,-30,o),
(254,-36,c),
(277,-41,l),
(286,-34,o),
(298,-30,o),
(354,-19,cs),
(421,-6,ls),
(547,18,o),
(628,154,o),
(628,289,cs),
(628,398,o),
(576,490,o),
(479,541,cs),
(460,551,ls),
(447,558,o),
(442,563,o),
(441,571,c),
(417,571,l),
(414,557,o),
(388,537,o),
(347,518,cs),
(306,499,o),
(244,467,o),
(202,422,c),
(220,406,l),
(274,460,o),
(331,480,o),
(372,480,cs),
(457,480,o),
(549,390,o),
(549,243,cs),
(549,114,o),
(476,23,o),
(371,9,c),
(340,29,ls),
(317,44,o),
(304,53,o),
(303,65,cs),
(303,70,o),
(304,74,o),
(307,79,c),
(284,88,l),
(275,73,o),
(241,58,o),
(216,52,cs),
(157,37,o),
(108,0,o),
(108,-67,cs),
(108,-132,o),
(154,-178,o),
(219,-178,cs)
);
},
{
closed = 1;
nodes = (
(201,127,o),
(307,197,o),
(307,267,cs),
(307,280,o),
(304,314,o),
(271,387,cs),
(219,497,ls),
(197,545,o),
(191,563,o),
(191,579,cs),
(191,592,o),
(197,607,o),
(212,628,cs),
(227,649,o),
(236,653,o),
(244,653,cs),
(252,653,o),
(264,648,o),
(290,635,cs),
(316,622,o),
(336,612,o),
(345,612,cs),
(356,612,o),
(362,614,o),
(377,629,cs),
(397,649,o),
(417,673,o),
(440,703,c),
(425,717,l),
(407,696,o),
(396,688,o),
(380,688,cs),
(365,688,o),
(357,691,o),
(331,704,cs),
(305,717,o),
(285,726,o),
(278,726,cs),
(271,726,o),
(257,719,o),
(238,698,cs),
(217,674,o),
(169,611,o),
(145,579,cs),
(127,555,o),
(119,541,o),
(119,531,cs),
(119,519,o),
(138,477,o),
(185,375,cs),
(223,292,o),
(235,243,o),
(235,221,cs),
(235,193,o),
(212,164,o),
(181,164,cs),
(141,164,o),
(83,207,o),
(67,258,c),
(-9,187,l),
(5,171,l),
(12,175,o),
(15,176,o),
(22,176,cs),
(29,176,o),
(35,174,o),
(43,168,cs),
(76,143,o),
(113,127,o),
(143,127,cs)
);
}
);
width = 765;
}
);
unicode = 8460;
}
{
glyphname = planckconstantovertwopi;
kernLeft = b;
kernRight = n;
layers = (
{
layerId = master01;
shapes = (
{
ref = "hsansitalic-math";
},
{
closed = 1;
nodes = (
(376,620,l),
(389,682,l),
(43,506,l),
(30,444,l)
);
}
);
width = 579;
}
);
metricRight = "=hsansitalic-math";
metricWidth = "=hsansitalic-math";
unicode = 8463;
}
{
color = 4;
glyphname = Iscript;
layers = (
{
anchors = (
{
name = center;
pos = (407,357);
},
{
name = math.ic;
pos = (810,250);
},
{
name = math.ta;
pos = (647,764);
}
);
layerId = master01;
shapes = (
{
closed = 1;
nodes = (
(378,-10,o),
(486,151,o),
(535,318,cs),
(566,424,o),
(595,518,o),
(624,567,cs),
(668,642,o),
(720,701,o),
(777,707,cs),
(786,708,o),
(790,711,o),
(790,717,cs),
(790,721,o),
(785,725,o),
(775,725,cs),
(705,723,o),
(622,709,o),
(542,679,cs),
(319,596,o),
(238,485,o),
(238,374,cs),
(238,257,o),
(322,210,o),
(431,210,cs),
(560,210,o),
(676,275,o),
(676,416,cs),
(676,428,o),
(674,442,o),
(672,450,cs),
(670,457,o),
(667,462,o),
(662,462,cs),
(657,462,o),
(654,458,o),
(654,449,cs),
(654,442,o),
(658,428,o),
(658,413,cs),
(658,283,o),
(544,228,o),
(430,228,cs),
(355,228,o),
(294,252,o),
(294,326,cs),
(294,454,o),
(444,621,o),
(606,676,cs),
(636,686,o),
(678,697,o),
(717,703,c),
(650,665,o),
(605,609,o),
(562,552,cs),
(505,477,o),
(462,394,o),
(424,312,cs),
(344,140,o),
(280,8,o),
(169,8,cs),
(88,8,o),
(64,55,o),
(64,79,cs),
(64,99,o),
(79,108,o),
(117,114,cs),
(148,119,o),
(173,137,o),
(173,167,cs),
(173,191,o),
(158,218,o),
(110,218,cs),
(63,218,o),
(25,178,o),
(25,115,cs),
(25,71,o),
(55,-10,o),
(181,-10,cs)
);
}
);
width = 770;
}
);
unicode = 8464;
}
{
glyphname = "I-fraktur";
layers = (
{
anchors = (
{
name = center;
pos = (290,355);
},
{
name = math.ta;
pos = (281,0);
}
);
layerId = master01;
shapes = (
{
closed = 1;
nodes = (
(230,-10,o),
(244,-5,o),
(261,-5,cs),
(348,-5,o),
(395,-3,o),
(437,20,cs),
(479,43,o),
(540,118,o),
(540,165,cs),
(540,187,o),
(531,212,o),
(480,310,cs),
(429,408,o),
(420,438,o),
(420,462,cs),
(420,507,o),
(456,529,o),
(481,529,cs),
(488,529,o),
(494,522,o),
(498,512,cs),
(502,502,o),
(512,496,o),
(523,496,cs),
(535,496,o),
(545,506,o),
(545,521,cs),
(545,545,o),
(523,558,o),
(497,558,cs),
(479,558,o),
(459,551,o),
(439,539,cs),
(390,510,o),
(345,454,o),
(345,413,cs),
(345,390,o),
(361,343,o),
(409,254,cs),
(457,165,o),
(466,142,o),
(466,118,cs),
(466,67,o),
(423,27,o),
(355,27,cs),
(290,27,o),
(253,64,o),
(253,108,cs),
(253,111,o),
(253,114,o),
(254,117,c),
(237,126,l),
(228,120,o),
(219,117,o),
(210,117,cs),
(201,117,o),
(190,118,o),
(178,121,cs),
(166,124,o),
(153,126,o),
(138,126,cs),
(89,126,o),
(46,104,o),
(30,42,c),
(51,36,l),
(65,77,o),
(93,93,o),
(120,93,cs),
(160,93,o),
(199,56,o),
(199,-12,c),
(219,-21,l)
);
},
{
closed = 1;
nodes = (
(187,431,l),
(111,441,o),
(66,491,o),
(66,551,cs),
(66,609,o),
(118,655,o),
(180,655,cs),
(213,655,o),
(244,643,o),
(276,624,cs),
(332,591,ls),
(359,575,o),
(380,563,o),
(396,563,cs),
(426,563,o),
(550,622,o),
(550,668,cs),
(550,686,o),
(539,699,o),
(521,699,cs),
(506,699,o),
(493,689,o),
(493,672,cs),
(493,661,o),
(502,650,o),
(513,650,c),
(513,643,o),
(483,621,o),
(464,621,cs),
(449,621,o),
(423,634,o),
(383,657,cs),
(299,705,ls),
(280,716,o),
(270,723,o),
(270,731,c),
(248,731,l),
(248,721,o),
(242,718,o),
(230,716,cs),
(145,702,o),
(43,655,o),
(43,551,cs),
(43,479,o),
(93,423,o),
(181,408,c)
);
}
);
width = 580;
}
);
unicode = 8465;
}
{
glyphname = Lscript;
layers = (
{
anchors = (
{
name = center;
pos = (427,357);
},
{
name = math.ta;
pos = (678,0);
}
);
layerId = master01;
shapes = (
{
closed = 1;
nodes = (
(214,-10,o),
(271,2,o),
(327,34,c),
(371,9,o),
(417,-10,o),
(469,-10,cs),
(562,-10,o),
(640,71,o),
(680,140,cs),
(682,144,o),
(683,147,o),
(683,151,cs),
(683,155,o),
(680,159,o),
(675,159,cs),
(671,159,o),
(667,156,o),
(664,150,cs),
(614,66,o),
(538,10,o),
(475,10,cs),
(442,10,o),
(400,29,o),
(355,53,c),
(408,91,o),
(459,147,o),
(497,263,cs),
(535,378,o),
(564,465,o),
(591,532,cs),
(614,589,o),
(646,638,o),
(674,670,cs),
(694,693,o),
(716,708,o),
(742,708,cs),
(767,708,o),
(786,686,o),
(786,656,cs),
(786,488,o),
(582,284,o),
(402,284,cs),
(324,284,o),
(223,312,o),
(223,431,cs),
(223,572,o),
(338,708,o),
(493,708,cs),
(515,708,o),
(525,707,o),
(541,705,cs),
(554,703,o),
(567,701,o),
(572,701,cs),
(577,701,o),
(582,703,o),
(582,709,cs),
(582,713,o),
(578,717,o),
(560,720,cs),
(543,723,o),
(519,725,o),
(493,725,cs),
(321,725,o),
(169,599,o),
(169,457,cs),
(169,390,o),
(199,265,o),
(402,265,cs),
(612,265,o),
(825,520,o),
(825,651,cs),
(825,692,o),
(801,724,o),
(744,724,cs),
(592,724,o),
(477,480,o),
(387,278,cs),
(352,199,o),
(330,152,o),
(291,86,c),
(236,114,o),
(179,139,o),
(128,139,cs),
(79,139,o),
(30,119,o),
(30,72,cs),
(30,20,o),
(92,-10,o),
(160,-10,cs)
);
},
{
closed = 1;
nodes = (
(114,8,o),
(48,28,o),
(48,72,cs),
(48,108,o),
(91,121,o),
(127,121,cs),
(181,121,o),
(229,94,o),
(277,65,c),
(249,27,o),
(213,8,o),
(155,8,cs)
);
}
);
width = 855;
}
);
unicode = 8466;
}
{
glyphname = literSign;
layers = (
{
anchors = (
{
name = center;
pos = (245,377);
}
);
layerId = master01;
shapes = (
{
closed = 1;
nodes = (
(354,-11,o),
(397,10,o),
(425,37,c),
(391,88,l),
(369,69,o),
(344,54,o),
(314,54,cs),
(212,54,o),
(195,210,o),
(195,378,cs),
(195,527,o),
(215,700,o),
(297,700,cs),
(342,700,o),
(365,646,o),
(365,562,cs),
(365,401,o),
(297,276,o),
(46,140,c),
(77,85,l),
(343,235,o),
(445,379,o),
(445,562,cs),
(445,677,o),
(401,765,o),
(306,765,cs),
(146,765,o),
(106,576,o),
(106,378,cs),
(106,147,o),
(149,-11,o),
(298,-11,cs)
);
}
);
width = 515;
}
);
unicode = 8467;
}
{
glyphname = PdoubleStruck;
layers = (
{
anchors = (
{
name = center;
pos = (350,357);
},
{
name = math.ta;
pos = (453,0);
},
{
name = top;
pos = (453,764);
}
);
layerId = master01;
shapes = (
{
closed = 1;
nodes = (
(270,0,l),
(270,303,l),
(369,303,ls),
(492,303,o),
(604,390,o),
(604,514,cs),
(604,635,o),
(526,714,o),
(356,714,cs),
(97,714,l),
(97,0,l)
);
},
{
closed = 1;
nodes = (
(150,661,l),
(217,661,l),
(217,53,l),
(150,53,l)
);
},
{
closed = 1;
nodes = (
(270,661,l),
(409,661,l),
(409,356,l),
(270,356,l)
);
},
{
closed = 1;
nodes = (
(463,649,l),
(517,631,o),
(546,587,o),
(546,514,cs),
(546,434,o),
(511,395,o),
(463,373,c)
);
}
);
width = 655;
}
);
unicode = 8473;
}
{
glyphname = QdoubleStruck;
layers = (
{
anchors = (
{
name = center;
pos = (414,277);
},
{
name = math.ta;
pos = (393,0);
}
);
layerId = master01;
shapes = (
{
closed = 1;
nodes = (
(768,-170,l),
(556,26,l),
(653,77,o),
(720,183,o),
(720,358,cs),
(720,577,o),
(606,725,o),
(392,725,cs),
(174,725,o),
(61,578,o),
(61,359,cs),
(61,138,o),
(166,0,o),
(373,-10,c),
(480,-170,l)
);
},
{
closed = 1;
nodes = (
(435,-8,l),
(455,-7,o),
(486,-1,o),
(503,4,c),
(639,-122,l),
(515,-122,l)
);
},
{
closed = 1;
nodes = (
(144,157,o),
(114,246,o),
(114,358,cs),
(114,469,o),
(144,557,o),
(205,612,c),
(205,102,l)
);
},
{
closed = 1;
nodes = (
(339,38,o),
(295,47,o),
(258,66,c),
(258,648,l),
(295,667,o),
(340,677,o),
(392,677,cs),
(443,677,o),
(486,667,o),
(523,649,c),
(523,65,l),
(486,47,o),
(442,38,o),
(391,38,cs)
);
},
{
closed = 1;
nodes = (
(576,614,l),
(637,559,o),
(667,471,o),
(667,358,cs),
(667,245,o),
(636,156,o),
(576,101,c)
);
}
);
width = 781;
}
);
unicode = 8474;
}
{
glyphname = Rscript;
layers = (
{
anchors = (
{
name = center;
pos = (457,357);
},
{
name = math.ta;
pos = (631,0);
}
);
layerId = master01;
shapes = (
{
closed = 1;
nodes = (
(716,-10,o),
(769,43,o),
(833,140,cs),
(838,148,o),
(841,154,o),
(841,159,cs),
(841,163,o),
(838,166,o),
(834,166,cs),
(829,166,o),
(825,161,o),
(818,150,cs),
(768,72,o),
(719,24,o),
(692,24,cs),
(678,24,o),
(671,37,o),
(671,56,cs),
(671,80,o),
(683,113,o),
(696,148,cs),
(709,184,o),
(721,221,o),
(721,251,cs),
(721,279,o),
(716,322,o),
(671,356,c),
(816,391,o),
(890,465,o),
(890,550,cs),
(890,604,o),
(854,661,o),
(778,694,c),
(784,697,o),
(789,699,o),
(795,701,cs),
(804,704,o),
(811,707,o),
(811,712,cs),
(811,717,o),
(807,719,o),
(800,719,cs),
(789,719,o),
(766,712,o),
(749,704,c),
(712,716,o),
(667,724,o),
(614,724,cs),
(370,724,o),
(119,568,o),
(119,389,cs),
(119,323,o),
(160,288,o),
(229,288,cs),
(358,288,o),
(443,419,o),
(443,518,cs),
(443,545,o),
(440,570,o),
(435,590,cs),
(432,603,o),
(428,611,o),
(424,611,cs),
(419,611,o),
(417,603,o),
(416,587,cs),
(405,430,o),
(289,311,o),
(201,311,cs),
(165,311,o),
(137,337,o),
(137,389,cs),
(137,553,o),
(382,708,o),
(614,708,cs),
(660,708,o),
(696,702,o),
(724,692,c),
(658,653,o),
(627,615,o),
(603,585,cs),
(520,481,o),
(462,378,o),
(422,289,cs),
(379,194,o),
(343,118,o),
(302,69,cs),
(269,30,o),
(228,9,o),
(173,9,cs),
(79,9,o),
(62,73,o),
(62,86,cs),
(62,105,o),
(81,113,o),
(121,119,cs),
(152,124,o),
(171,144,o),
(171,175,cs),
(171,200,o),
(155,228,o),
(113,228,cs),
(68,228,o),
(25,191,o),
(25,128,cs),
(25,105,o),
(35,-9,o),
(182,-9,cs),
(351,-9,o),
(455,93,o),
(515,221,cs),
(525,243,o),
(536,273,o),
(543,295,cs),
(557,336,o),
(569,376,o),
(580,415,cs),
(588,444,o),
(598,473,o),
(608,499,cs),
(637,578,o),
(673,640,o),
(747,680,c),
(780,658,o),
(796,617,o),
(796,554,cs),
(796,434,o),
(688,376,o),
(655,369,c),
(640,379,o),
(626,383,o),
(613,383,cs),
(602,383,o),
(591,376,o),
(591,365,cs),
(591,350,o),
(605,344,o),
(616,344,cs),
(628,344,o),
(636,346,o),
(643,348,c),
(646,343,o),
(651,333,o),
(651,314,cs),
(651,287,o),
(629,235,o),
(605,185,cs),
(585,143,o),
(570,91,o),
(570,66,cs),
(570,32,o),
(590,-10,o),
(653,-10,cs)
);
}
);
width = 920;
}
);
unicode = 8475;
}
{
glyphname = "R-fraktur";
layers = (
{
anchors = (
{
name = center;
pos = (390,355);
},
{
name = math.ta;
pos = (365,0);
}
);
layerId = master01;
shapes = (
{
closed = 1;
nodes = (
(73,-13,o),
(85,-7,o),
(99,-7,cs),
(112,-7,o),
(127,-10,o),
(145,-15,cs),
(163,-20,o),
(183,-23,o),
(202,-23,cs),
(330,-23,o),
(420,124,o),
(420,355,cs),
(420,556,o),
(371,725,o),
(218,725,cs),
(105,725,o),
(33,631,o),
(33,518,cs),
(33,422,o),
(84,349,o),
(176,323,c),
(186,344,l),
(106,364,o),
(58,429,o),
(58,511,cs),
(58,594,o),
(111,647,o),
(182,647,cs),
(283,647,o),
(346,538,o),
(346,315,cs),
(346,207,o),
(316,0,o),
(208,0,cs),
(165,0,o),
(138,24,o),
(138,63,cs),
(138,77,o),
(142,92,o),
(149,108,c),
(132,120,l),
(121,109,o),
(106,103,o),
(87,103,cs),
(69,103,o),
(55,105,o),
(44,111,c),
(30,92,l),
(43,77,o),
(52,55,o),
(52,35,cs),
(52,14,o),
(48,0,o),
(45,-8,c),
(62,-23,l)
);
},
{
closed = 1;
nodes = (
(658,-22,l),
(662,-13,o),
(671,-3,o),
(691,15,cs),
(711,33,o),
(735,56,o),
(751,83,c),
(736,96,l),
(716,75,o),
(701,70,o),
(693,70,cs),
(681,70,o),
(671,77,o),
(661,98,cs),
(651,119,o),
(642,161,o),
(626,259,cs),
(603,396,o),
(589,429,o),
(560,442,c),
(616,487,o),
(672,531,o),
(725,567,c),
(714,584,l),
(705,579,o),
(699,577,o),
(692,577,cs),
(685,577,o),
(672,587,o),
(640,619,cs),
(608,651,o),
(581,682,o),
(581,697,cs),
(581,704,o),
(585,713,o),
(593,719,c),
(581,733,l),
(556,716,o),
(532,701,o),
(495,680,cs),
(458,659,o),
(409,628,o),
(351,576,c),
(364,557,l),
(435,624,o),
(475,646,o),
(493,646,cs),
(506,646,o),
(518,635,o),
(554,593,cs),
(618,519,l),
(552,462,o),
(472,409,o),
(392,360,c),
(398,335,l),
(462,377,ls),
(483,391,o),
(491,395,o),
(498,395,cs),
(516,395,o),
(523,376,o),
(539,289,cs),
(558,184,ls),
(579,69,o),
(588,39,o),
(622,1,cs),
(632,-10,o),
(636,-15,o),
(638,-22,c)
);
}
);
width = 781;
}
);
unicode = 8476;
}
{
glyphname = RdoubleStruck;
layers = (
{
anchors = (
{
name = center;
pos = (398,357);
},
{
name = math.ta;
pos = (327,0);
}
);
layerId = master01;
shapes = (
{
closed = 1;
nodes = (
(270,0,l),
(270,317,l),
(313,317,l),
(504,0,l),
(699,0,l),
(476,342,l),
(557,373,o),
(604,436,o),
(604,524,cs),
(604,645,o),
(526,714,o),
(356,714,cs),
(97,714,l),
(97,0,l)
);
},
{
closed = 1;
nodes = (
(150,661,l),
(217,661,l),
(217,53,l),
(150,53,l)
);
},
{
closed = 1;
nodes = (
(369,319,l),
(388,320,o),
(411,323,o),
(430,327,c),
(605,52,l),
(531,52,l)
);
},
{
closed = 1;
nodes = (
(270,661,l),
(409,661,l),
(409,370,l),
(270,370,l)
);
},
{
closed = 1;
nodes = (
(463,649,l),
(517,631,o),
(546,597,o),
(546,524,cs),
(546,444,o),
(511,409,o),
(463,387,c)
);
}
);
width = 714;
}
);
unicode = 8477;
}
{
glyphname = ZdoubleStruck;
layers = (
{
anchors = (
{
name = math.ta;
pos = (388,764);
}
);
layerId = master01;
shapes = (
{
closed = 1;
nodes = (
(581,0,l),
(581,53,l),
(232,53,l),
(591,661,l),
(591,714,l),
(70,714,l),
(70,661,l),
(404,661,l),
(38,53,l),
(38,0,l)
);
},
{
closed = 1;
nodes = (
(462,661,l),
(533,661,l),
(171,53,l),
(98,53,l)
);
}
);
width = 630;
}
);
unicode = 8484;
}
{
glyphname = "Z-fraktur";
layers = (
{
anchors = (
{
name = center;
pos = (266,262);
},
{
name = math.ta;
pos = (297,0);
}
);
layerId = master01;
shapes = (
{
closed = 1;
nodes = (
(87,-182,l),
(76,-174,o),
(60,-153,o),
(60,-128,cs),
(60,-97,o),
(85,-77,o),
(113,-77,cs),
(150,-77,o),
(179,-112,o),
(203,-154,c),
(227,-154,l),
(227,-142,o),
(247,-136,o),
(287,-126,cs),
(310,-120,ls),
(424,-90,o),
(497,-11,o),
(497,107,cs),
(497,237,o),
(410,333,o),
(267,333,cs),
(140,333,o),
(76,292,o),
(63,232,c),
(91,213,l),
(113,226,l),
(108,233,o),
(106,240,o),
(106,246,cs),
(106,270,o),
(131,290,o),
(185,290,cs),
(307,290,o),
(427,177,o),
(427,58,cs),
(427,-31,o),
(360,-98,o),
(301,-98,cs),
(276,-98,o),
(256,-86,o),
(239,-68,cs),
(222,-50,o),
(200,-19,o),
(200,-4,c),
(177,-4,l),
(177,-14,o),
(164,-21,o),
(142,-29,cs),
(79,-52,o),
(35,-77,o),
(35,-128,cs),
(35,-158,o),
(50,-184,o),
(72,-201,c)
);
},
{
closed = 1;
nodes = (
(379,316,o),
(480,407,o),
(480,531,cs),
(480,650,o),
(387,726,o),
(265,726,cs),
(160,726,o),
(48,670,o),
(38,539,c),
(61,539,l),
(71,617,o),
(129,678,o),
(222,678,cs),
(317,678,o),
(391,615,o),
(391,510,cs),
(391,405,o),
(317,344,o),
(231,344,cs),
(188,344,o),
(144,357,o),
(108,394,c),
(87,375,l),
(109,348,o),
(152,316,o),
(235,316,cs)
);
}
);
width = 532;
}
);
unicode = 8488;
}
{
glyphname = Bscript;
layers = (
{
anchors = (
{
name = center;
pos = (427,355);
},
{
name = math.ta;
pos = (592,764);
},
{
name = top;
pos = (592,764);
}
);
layerId = master01;
shapes = (
{
closed = 1;
nodes = (
(332,-11,o),
(436,91,o),
(496,219,cs),
(506,241,o),
(517,271,o),
(524,293,cs),
(540,340,o),
(553,384,o),
(565,426,cs),
(581,482,o),
(599,532,o),
(624,575,cs),
(649,618,o),
(681,653,o),
(728,678,c),
(755,654,o),
(760,616,o),
(760,588,cs),
(760,487,o),
(693,402,o),
(653,385,c),
(646,387,o),
(630,391,o),
(609,391,cs),
(598,391,o),
(568,389,o),
(568,369,cs),
(568,357,o),
(585,355,o),
(596,355,cs),
(604,355,o),
(630,359,o),
(648,368,c),
(658,364,o),
(681,354,o),
(681,294,cs),
(681,220,o),
(664,170,o),
(640,122,cs),
(604,51,o),
(567,12,o),
(532,12,cs),
(515,12,o),
(492,27,o),
(492,65,cs),
(492,113,o),
(536,161,o),
(574,189,cs),
(580,193,o),
(585,197,o),
(585,202,cs),
(585,206,o),
(581,208,o),
(575,208,cs),
(570,208,o),
(564,206,o),
(555,200,cs),
(475,141,o),
(470,85,o),
(470,66,cs),
(470,34,o),
(484,-11,o),
(543,-11,cs),
(652,-11,o),
(775,107,o),
(775,220,cs),
(775,330,o),
(696,368,o),
(669,377,c),
(748,413,o),
(845,472,o),
(845,566,cs),
(845,620,o),
(821,665,o),
(759,692,c),
(768,697,o),
(780,701,o),
(788,703,cs),
(799,706,o),
(805,708,o),
(805,713,cs),
(805,718,o),
(799,719,o),
(793,719,cs),
(781,719,o),
(752,712,o),
(730,702,c),
(693,714,o),
(648,722,o),
(595,722,cs),
(474,722,o),
(367,687,o),
(292,643,cs),
(242,614,o),
(119,533,o),
(119,418,cs),
(119,349,o),
(160,314,o),
(229,314,cs),
(358,314,o),
(440,445,o),
(440,544,cs),
(440,586,o),
(436,617,o),
(428,617,cs),
(423,617,o),
(421,610,o),
(420,595,cs),
(411,456,o),
(290,337,o),
(201,337,cs),
(165,337,o),
(138,363,o),
(138,418,cs),
(138,530,o),
(263,605,o),
(302,628,cs),
(358,661,o),
(473,704,o),
(595,704,cs),
(641,704,o),
(677,700,o),
(705,690,c),
(681,677,o),
(660,661,o),
(643,645,cs),
(618,622,o),
(585,585,o),
(567,562,cs),
(510,489,o),
(463,404,o),
(422,315,cs),
(341,140,o),
(278,8,o),
(156,8,cs),
(72,8,o),
(49,57,o),
(49,79,cs),
(49,104,o),
(73,109,o),
(102,114,cs),
(131,119,o),
(158,136,o),
(158,167,cs),
(158,192,o),
(143,218,o),
(95,218,cs),
(50,218,o),
(10,180,o),
(10,115,cs),
(10,76,o),
(38,-11,o),
(163,-11,cs)
);
}
);
width = 875;
}
);
unicode = 8492;
}
{
glyphname = "C-fraktur";
layers = (
{
anchors = (
{
name = center;
pos = (321,351);
},
{
name = math.ta;
pos = (313,0);
}
);
layerId = master01;
shapes = (
{
closed = 1;
nodes = (
(414,-24,o),
(440,-22,o),
(459,-19,c),
(607,103,l),
(594,120,l),
(537,84,o),
(472,67,o),
(401,67,cs),
(215,67,o),
(107,200,o),
(107,436,cs),
(107,609,o),
(166,703,o),
(245,703,cs),
(289,703,o),
(325,674,o),
(335,622,c),
(351,642,l),
(344,692,o),
(295,726,o),
(243,726,cs),
(115,726,o),
(35,595,o),
(35,392,cs),
(35,135,o),
(170,-24,o),
(383,-24,cs)
);
},
{
closed = 1;
nodes = (
(335,94,o),
(375,136,o),
(400,165,cs),
(437,209,o),
(441,224,o),
(441,239,cs),
(441,259,o),
(433,282,o),
(373,389,cs),
(306,508,o),
(299,524,o),
(299,541,cs),
(299,554,o),
(315,579,o),
(343,611,cs),
(365,636,o),
(382,649,o),
(396,649,cs),
(408,649,o),
(421,644,o),
(452,628,cs),
(488,609,o),
(519,593,o),
(528,593,cs),
(535,593,o),
(540,596,o),
(553,612,cs),
(604,678,l),
(588,690,l),
(576,678,o),
(565,672,o),
(555,672,cs),
(544,672,o),
(523,681,o),
(493,696,cs),
(453,716,o),
(432,726,o),
(421,726,cs),
(412,726,o),
(405,719,o),
(386,698,cs),
(357,667,o),
(277,571,o),
(253,541,cs),
(235,518,o),
(227,505,o),
(227,495,cs),
(227,486,o),
(229,477,o),
(250,440,cs),
(330,298,ls),
(357,251,o),
(362,230,o),
(362,210,cs),
(362,189,o),
(351,150,o),
(250,47,c),
(272,29,l)
);
}
);
width = 637;
}
);
unicode = 8493;
}
{
color = 4;
glyphname = Fscript;
layers = (
{
anchors = (
{
name = center;
pos = (455,359);
},
{
name = math.ic;
pos = (900,250);
},
{
name = math.ta;
pos = (689,764);
},
{
name = top;
pos = (689,764);
}
);
layerId = master01;
shapes = (
{
closed = 1;
nodes = (
(395,-10,o),
(508,123,o),
(568,338,cs),
(603,463,o),
(619,509,o),
(655,563,cs),
(663,575,o),
(667,581,o),
(667,586,cs),
(667,591,o),
(663,593,o),
(659,593,cs),
(645,593,o),
(519,503,o),
(439,314,cs),
(348,99,o),
(276,8,o),
(187,8,cs),
(129,8,o),
(72,48,o),
(72,88,cs),
(72,113,o),
(90,120,o),
(126,125,cs),
(158,129,o),
(176,152,o),
(176,181,cs),
(176,213,o),
(153,237,o),
(113,237,cs),
(69,237,o),
(30,192,o),
(30,137,cs),
(30,63,o),
(88,-10,o),
(205,-10,cs)
);
},
{
closed = 1;
nodes = (
(634,195,l),
(652,242,o),
(660,272,o),
(660,318,c),
(698,342,o),
(729,376,o),
(729,401,cs),
(729,412,o),
(720,426,o),
(705,426,cs),
(677,426,o),
(650,395,o),
(624,330,c),
(603,318,o),
(552,309,o),
(475,305,cs),
(311,296,o),
(253,220,o),
(253,207,cs),
(253,203,o),
(254,200,o),
(259,200,cs),
(263,200,o),
(268,205,o),
(277,215,cs),
(312,254,o),
(366,281,o),
(489,289,cs),
(572,294,o),
(600,302,o),
(618,309,c),
(608,266,o),
(583,218,o),
(557,173,c)
);
},
{
closed = 1;
nodes = (
(350,309,o),
(444,401,o),
(444,517,cs),
(444,569,o),
(422,624,o),
(408,624,cs),
(403,624,o),
(400,621,o),
(400,615,cs),
(400,605,o),
(404,592,o),
(404,570,cs),
(404,472,o),
(307,328,o),
(236,328,cs),
(203,328,o),
(168,356,o),
(168,416,cs),
(168,526,o),
(299,694,o),
(474,694,cs),
(582,694,o),
(655,613,o),
(760,613,cs),
(829,613,o),
(880,674,o),
(880,704,cs),
(880,708,o),
(878,710,o),
(875,710,cs),
(873,710,o),
(870,709,o),
(865,706,cs),
(846,692,o),
(827,682,o),
(798,682,cs),
(698,682,o),
(681,729,o),
(535,729,cs),
(290,729,o),
(150,542,o),
(150,416,cs),
(150,350,o),
(186,309,o),
(254,309,cs)
);
}
);
width = 870;
}
);
unicode = 8497;
}
{
color = 4;
glyphname = Mscript;
layers = (
{
anchors = (
{
name = center;
pos = (567,356);
},
{
name = math.ta;
pos = (954,764);
}
);
layerId = master01;
shapes = (
{
closed = 1;
nodes = (
(224,-10,o),
(316,124,o),
(385,225,cs),
(468,347,o),
(671,618,o),
(777,697,c),
(761,676,o),
(669,549,o),
(621,474,cs),
(481,257,o),
(456,147,o),
(456,99,cs),
(456,60,o),
(460,-10,o),
(504,-10,cs),
(531,-10,o),
(568,33,o),
(605,95,cs),
(651,173,o),
(722,292,o),
(790,388,cs),
(932,588,o),
(1051,672,o),
(1086,696,c),
(1031,639,o),
(965,568,o),
(880,452,cs),
(840,398,o),
(722,213,o),
(722,117,cs),
(722,21,o),
(750,-10,o),
(796,-10,cs),
(845,-10,o),
(918,71,o),
(970,138,cs),
(974,143,o),
(977,149,o),
(977,152,cs),
(977,155,o),
(975,158,o),
(970,158,cs),
(966,158,o),
(962,154,o),
(957,148,cs),
(904,82,o),
(833,8,o),
(800,8,cs),
(795,8,o),
(792,13,o),
(792,22,cs),
(792,77,o),
(885,284,o),
(925,366,cs),
(971,461,o),
(1058,621,o),
(1105,693,cs),
(1108,698,o),
(1110,702,o),
(1110,707,cs),
(1110,714,o),
(1104,719,o),
(1096,719,cs),
(1092,719,o),
(1087,717,o),
(1073,708,cs),
(968,640,o),
(855,509,o),
(768,388,cs),
(715,314,o),
(641,193,o),
(603,129,cs),
(579,89,o),
(555,55,o),
(534,36,c),
(549,131,o),
(615,291,o),
(651,373,cs),
(682,444,o),
(766,634,o),
(796,701,cs),
(798,705,o),
(799,709,o),
(799,712,cs),
(799,718,o),
(793,722,o),
(787,722,cs),
(784,722,o),
(780,721,o),
(775,717,cs),
(672,638,o),
(497,423,o),
(370,237,cs),
(309,147,o),
(209,8,o),
(136,8,cs),
(83,8,o),
(64,56,o),
(64,78,cs),
(64,90,o),
(68,97,o),
(85,99,cs),
(146,107,o),
(172,137,o),
(172,168,cs),
(172,194,o),
(160,223,o),
(116,223,cs),
(63,223,o),
(25,178,o),
(25,122,cs),
(25,34,o),
(73,-10,o),
(135,-10,cs)
);
}
);
width = 1135;
}
);
unicode = 8499;
}
{
color = 4;
glyphname = oscript;
layers = (
{
anchors = (
{
name = center;
pos = (219,150);
},
{
name = math.ta;
pos = (288,358);
}
);
layerId = master01;
shapes = (
{
closed = 1;
nodes = (
(183,-7,o),
(224,12,o),
(261,43,c),
(307,45,o),
(351,63,o),
(396,103,c),
(384,117,l),
(355,94,o),
(328,80,o),
(298,77,c),
(352,126,o),
(378,175,o),
(378,221,cs),
(378,278,o),
(348,308,o),
(282,308,cs),
(168,308,o),
(42,191,o),
(42,96,cs),
(42,33,o),
(84,-7,o),
(136,-7,cs)
);
},
{
closed = 1;
nodes = (
(134,9,o),
(124,20,o),
(124,35,cs),
(124,68,o),
(185,193,o),
(236,249,cs),
(260,276,o),
(284,288,o),
(301,288,cs),
(317,288,o),
(333,275,o),
(333,249,cs),
(333,208,o),
(309,152,o),
(257,95,c),
(226,91,o),
(203,75,o),
(203,59,cs),
(203,52,o),
(206,47,o),
(212,44,c),
(189,20,o),
(168,9,o),
(151,9,cs)
);
}
);
width = 440;
}
);
unicode = 8500;
}
{
glyphname = alephsymbol;
layers = (
{
layerId = master01;
shapes = (
{
closed = 1;
nodes = (
(576,20,l),
(532,81,o),
(478,155,o),
(416,235,c),
(508,333,o),
(558,473,o),
(566,583,c),
(488,583,l),
(487,502,o),
(452,380,o),
(375,288,c),
(285,403,o),
(183,520,o),
(97,601,c),
(43,549,l),
(86,510,o),
(135,461,o),
(186,404,c),
(81,272,o),
(41,124,o),
(37,-1,c),
(110,-1,l),
(115,106,o),
(144,235,o),
(230,353,c),
(339,224,o),
(446,79,o),
(523,-26,c)
);
}
);
width = 609;
}
);
unicode = 8501;
}
{
glyphname = betsymbol;
layers = (
{
layerId = master01;
shapes = (
{
closed = 1;
nodes = (
(490,0,l),
(490,61,l),
(413,61,l),
(413,347,ls),
(413,525,o),
(353,581,o),
(185,581,cs),
(56,581,l),
(56,520,l),
(185,520,ls),
(305,520,o),
(344,475,o),
(344,358,cs),
(344,61,l),
(34,61,l),
(34,0,l)
);
}
);
width = 530;
}
);
unicode = 8502;
}
{
glyphname = gammadoubleStruck;
layers = (
{
anchors = (
{
name = center;
pos = (260,148);
},
{
name = math.ta;
pos = (228,586);
}
);
layerId = master01;
shapes = (
{
closed = 1;
nodes = (
(266,-240,l),
(266,-173,o),
(284,-68,o),
(315,13,cs),
(515,536,l),
(458,536,l),
(360,271,ls),
(355,257,o),
(343,222,o),
(340,210,c),
(336,224,o),
(323,253,o),
(314,272,cs),
(188,536,l),
(5,536,l),
(262,6,l),
(232,-76,o),
(211,-185,o),
(211,-240,c)
);
},
{
closed = 1;
nodes = (
(272,95,o),
(237,171,o),
(213,222,cs),
(86,487,l),
(154,487,l),
(315,154,l),
(301,114,o),
(288,76,o),
(285,60,c),
(281,60,l)
);
}
);
width = 543;
}
);
unicode = 8509;
}
{
glyphname = GammadoubleStruck;
layers = (
{
anchors = (
{
name = center;
pos = (317,357);
},
{
name = math.ta;
pos = (325,0);
}
);
layerId = master01;
shapes = (
{
closed = 1;
nodes = (
(270,0,l),
(270,661,l),
(537,661,l),
(537,714,l),
(97,714,l),
(97,0,l)
);
},
{
closed = 1;
nodes = (
(150,661,l),
(217,661,l),
(217,53,l),
(150,53,l)
);
}
);
width = 552;
}
);
unicode = 8510;
}
{
glyphname = PidoubleStruck;
layers = (
{
anchors = (
{
name = center;
pos = (388,357);
},
{
name = math.ta;
pos = (388,764);
},
{
name = top;
pos = (388,764);
}
);
layerId = master01;
shapes = (
{
closed = 1;
nodes = (
(270,0,l),
(270,661,l),
(507,661,l),
(507,0,l),
(680,0,l),
(680,714,l),
(97,714,l),
(97,0,l)
);
},
{
closed = 1;
nodes = (
(150,661,l),
(217,661,l),
(217,53,l),
(150,53,l)
);
},
{
closed = 1;
nodes = (
(560,661,l),
(627,661,l),
(627,53,l),
(560,53,l)
);
}
);
width = 833;
}
);
unicode = 8511;
}
{
glyphname = summationdoubleStruck;
layers = (
{
anchors = (
{
name = center;
pos = (323,237);
}
);
layerId = master01;
shapes = (
{
closed = 1;
nodes = (
(620,-240,l),
(620,-74,l),
(191,-74,l),
(490,260,l),
(239,659,l),
(604,659,l),
(604,714,l),
(38,714,l),
(38,659,l),
(343,177,l),
(26,-177,l),
(26,-240,l)
);
},
{
closed = 1;
nodes = (
(144,-126,l),
(571,-126,l),
(571,-188,l),
(87,-188,l)
);
},
{
closed = 1;
nodes = (
(101,659,l),
(176,659,l),
(424,266,l),
(379,217,l)
);
}
);
width = 620;
}
);
unicode = 8512;
}
{
glyphname = summationdoublestruck;
layers = (
{
anchors = (
{
name = center;
pos = (393,237);
}
);
layerId = master01;
shapes = (
{
closed = 1;
nodes = (
(734,-240,l),
(734,-74,l),
(203,-74,l),
(496,291,l),
(264,659,l),
(699,659,l),
(699,714,l),
(63,714,l),
(63,659,l),
(353,201,l),
(51,-177,l),
(51,-240,l)
);
},
{
closed = 1;
nodes = (
(162,-126,l),
(685,-126,l),
(685,-188,l),
(112,-188,l)
);
},
{
closed = 1;
nodes = (
(126,659,l),
(201,659,l),
(430,297,l),
(387,244,l)
);
}
);
width = 785;
}
);
metricLeft = "=51";
metricRight = "=|";
unicode = 8512;
userData = {
com.nagwa.MATHPlugin.extendedShape = 1;
com.nagwa.MATHPlugin.variants = {
vVariants = (
summationdoublestruck,
summationdoublestruck.s01
);
};
};
}
{
glyphname = DitalicDoubleStruck;
layers = (
{
anchors = (
{
name = center;
pos = (375,357);
},
{
name = math.ta;
pos = (449,764);
}
);
layerId = master01;
shapes = (
{
closed = 1;
nodes = (
(296,0,ls),
(566,0,o),
(715,181,o),
(715,429,cs),
(715,622,o),
(612,714,o),
(440,714,cs),
(187,714,l),
(36,0,l)
);
},
{
closed = 1;
nodes = (
(229,661,l),
(296,661,l),
(167,53,l),
(100,53,l)
);
},
{
closed = 1;
nodes = (
(349,661,l),
(455,661,ls),
(506,661,o),
(547,649,o),
(579,626,c),
(466,87,l),
(420,65,o),
(365,53,o),
(304,53,cs),
(220,53,l)
);
},
{
closed = 1;
nodes = (
(620,582,l),
(645,544,o),
(657,492,o),
(657,430,cs),
(657,304,o),
(612,193,o),
(526,125,c)
);
}
);
width = 730;
}
);
unicode = 8517;
}
{
glyphname = ditalicDoubleStruck;
layers = (
{
anchors = (
{
name = center;
pos = (325,375);
},
{
name = math.ic;
pos = (662,250);
},
{
name = math.ta;
pos = (409,586);
}
);
layerId = master01;
shapes = (
{
closed = 1;
nodes = (
(226,-9,o),
(277,32,o),
(329,101,c),
(307,0,l),
(480,0,l),
(642,760,l),
(469,760,l),
(403,450,l),
(388,503,o),
(341,545,o),
(272,545,cs),
(100,545,o),
(9,350,o),
(9,174,cs),
(9,52,o),
(68,-9,o),
(154,-9,cs)
);
},
{
closed = 1;
nodes = (
(79,71,o),
(62,110,o),
(62,172,cs),
(62,324,o),
(127,433,o),
(195,476,c),
(106,54,l)
);
},
{
closed = 1;
nodes = (
(248,491,l),
(254,492,o),
(260,493,o),
(266,493,cs),
(355,493,o),
(378,428,o),
(378,364,cs),
(378,231,o),
(283,43,o),
(157,43,c)
);
},
{
closed = 1;
nodes = (
(511,707,l),
(577,707,l),
(437,49,l),
(370,49,l)
);
}
);
width = 579;
}
);
unicode = 8518;
}
{
glyphname = eitalicDoubleStruck;
layers = (
{
anchors = (
{
name = math.ic;
pos = (520,250);
},
{
name = math.ta;
pos = (343,586);
}
);
layerId = master01;
shapes = (
{
closed = 1;
nodes = (
(300,-10,o),
(358,3,o),
(416,29,c),
(421,92,l),
(361,63,o),
(297,44,o),
(237,44,cs),
(207,44,o),
(182,47,o),
(160,54,c),
(199,244,l),
(410,262,o),
(500,336,o),
(500,424,cs),
(500,507,o),
(428,546,o),
(332,546,cs),
(124,546,o),
(9,362,o),
(9,192,cs),
(9,68,o),
(86,-10,o),
(232,-10,cs)
);
},
{
closed = 1;
nodes = (
(81,105,o),
(67,145,o),
(67,197,cs),
(67,293,o),
(113,390,o),
(189,445,c),
(113,78,l)
);
},
{
closed = 1;
nodes = (
(246,476,l),
(273,486,o),
(301,492,o),
(332,492,cs),
(338,492,o),
(344,492,o),
(350,491,c),
(313,314,l),
(282,307,o),
(247,301,o),
(210,298,c)
);
},
{
closed = 1;
nodes = (
(399,482,l),
(430,470,o),
(446,449,o),
(446,425,cs),
(446,384,o),
(417,354,o),
(369,333,c)
);
}
);
width = 499;
}
);
unicode = 8519;
}
{
glyphname = iitalicDoubleStruck;
layers = (
{
anchors = (
{
name = center;
pos = (187,384);
},
{
name = math.ta;
pos = (268,0);
}
);
layerId = master01;
shapes = (
{
closed = 1;
nodes = (
(205,0,l),
(319,536,l),
(145,536,l),
(32,0,l)
);
},
{
closed = 1;
nodes = (
(187,483,l),
(254,483,l),
(162,49,l),
(95,49,l)
);
},
{
closed = 1;
nodes = (
(295,592,o),
(342,630,o),
(342,698,cs),
(342,744,o),
(318,769,o),
(266,769,cs),
(203,769,o),
(169,723,o),
(169,667,cs),
(169,617,o),
(202,592,o),
(248,592,cs)
);
},
{
closed = 1;
nodes = (
(233,642,o),
(219,654,o),
(219,675,cs),
(219,698,o),
(233,719,o),
(260,719,cs),
(282,719,o),
(292,707,o),
(292,688,cs),
(292,659,o),
(272,642,o),
(252,642,cs)
);
}
);
width = 343;
}
);
unicode = 8520;
}
{
glyphname = jitalicDoubleStruck;
layers = (
{
anchors = (
{
name = center;
pos = (263,264);
},
{
name = math.ta;
pos = (432,0);
}
);
layerId = master01;
shapes = (
{
closed = 1;
nodes = (
(268,-240,o),
(345,-110,o),
(363,-25,cs),
(484,536,l),
(310,536,l),
(174,-103,ls),
(161,-166,o),
(127,-185,o),
(91,-185,cs),
(68,-185,o),
(50,-179,o),
(31,-171,c),
(20,-224,l),
(47,-236,o),
(73,-240,o),
(100,-240,cs)
);
},
{
closed = 1;
nodes = (
(352,483,l),
(418,483,l),
(313,-18,ls),
(296,-98,o),
(255,-136,o),
(215,-163,c)
);
},
{
closed = 1;
nodes = (
(460,592,o),
(507,630,o),
(507,698,cs),
(507,744,o),
(483,769,o),
(431,769,cs),
(368,769,o),
(334,723,o),
(334,667,cs),
(334,617,o),
(367,592,o),
(413,592,cs)
);
},
{
closed = 1;
nodes = (
(398,642,o),
(384,654,o),
(384,675,cs),
(384,698,o),
(398,719,o),
(425,719,cs),
(447,719,o),
(457,707,o),
(457,688,cs),
(457,659,o),
(437,642,o),
(417,642,cs)
);
}
);
width = 508;
}
);
unicode = 8521;
}
{
glyphname = leftArrow;
layers = (
{
anchors = (
{
name = center;
pos = (506,278);
}
);
layerId = master01;
shapes = (
{
closed = 1;
nodes = (
(328,83,l),
(293,160,o),
(257,218,o),
(223,252,c),
(223,304,l),
(257,338,o),
(293,396,o),
(328,473,c),
(271,473,l),
(201,391,o),
(127,331,o),
(51,292,c),
(51,264,l),
(127,225,o),
(201,165,o),
(271,83,c)
);
},
{
closed = 1;
nodes = (
(961,243,l),
(961,314,l),
(184,314,l),
(184,243,l)
);
}
);
userData = {
com.nagwa.MATHPlugin.variants = {
hAssembly = (
(
leftArrow.l,
0,
0,
777
),
(
leftArrow.x,
1,
658,
0
)
);
};
};
width = 1012;
}
);
metricLeft = "=51";
metricRight = "=51";
unicode = 8592;
}
{
glyphname = leftRightArrow;
layers = (
{
anchors = (
{
name = center;
pos = (565,278);
}
);
layerId = master01;
shapes = (
{
closed = 1;
nodes = (
(860,84,l),
(929,166,o),
(1003,226,o),
(1079,265,c),
(1079,293,l),
(1003,332,o),
(929,392,o),
(860,474,c),
(802,474,l),
(837,397,o),
(873,339,o),
(907,305,c),
(907,253,l),
(873,219,o),
(837,161,o),
(802,84,c)
);
},
{
closed = 1;
nodes = (
(328,84,l),
(293,161,o),
(257,219,o),
(223,253,c),
(223,305,l),
(257,339,o),
(293,397,o),
(328,474,c),
(270,474,l),
(201,392,o),
(127,332,o),
(51,293,c),
(51,265,l),
(127,226,o),
(201,166,o),
(270,84,c)
);
},
{
closed = 1;
nodes = (
(946,244,l),
(946,315,l),
(184,315,l),
(184,244,l)
);
}
);
width = 1130;
}
);
metricLeft = "=51";
metricRight = "=51";
unicode = 8596;
}
{
glyphname = northWestArrow;
layers = (
{
anchors = (
{
name = center;
pos = (309,345);
}
);
layerId = master01;
shapes = (
{
closed = 1;
nodes = (
(567,125,l),
(149,543,l),
(111,505,l),
(529,87,l)
);
},
{
closed = 1;
nodes = (
(125,402,o),
(137,452,o),
(137,489,c),
(165,517,l),
(202,517,o),
(252,529,o),
(312,551,c),
(281,582,l),
(200,576,o),
(128,583,o),
(66,603,c),
(51,588,l),
(71,526,o),
(78,454,o),
(72,373,c),
(103,342,l)
);
}
);
width = 618;
}
);
unicode = 8598;
}
{
glyphname = southWestArrow;
layers = (
{
anchors = (
{
name = center;
pos = (309,345);
}
);
layerId = master01;
shapes = (
{
closed = 1;
nodes = (
(567,565,l),
(529,603,l),
(111,185,l),
(149,147,l)
);
},
{
closed = 1;
nodes = (
(128,107,o),
(200,114,o),
(281,108,c),
(312,139,l),
(252,161,o),
(202,173,o),
(165,173,c),
(137,201,l),
(137,238,o),
(125,288,o),
(103,348,c),
(72,317,l),
(78,236,o),
(71,164,o),
(51,102,c),
(66,87,l)
);
}
);
width = 618;
}
);
unicode = 8601;
}
{
glyphname = leftStrokeArrow;
layers = (
{
anchors = (
{
name = center;
pos = (506,278);
}
);
layerId = master01;
shapes = (
{
closed = 1;
nodes = (
(517,83,l),
(726,473,l),
(645,473,l),
(436,83,l)
);
},
{
ref = leftArrow;
}
);
width = 1012;
}
);
metricLeft = "=51";
metricRight = "=51";
unicode = 8602;
}
{
glyphname = rightStrokeArrow;
layers = (
{
anchors = (
{
name = center;
pos = (406,278);
}
);
layerId = master01;
shapes = (
{
closed = 1;
nodes = (
(346,83,l),
(555,473,l),
(474,473,l),
(265,83,l)
);
},
{
ref = rightArrow;
}
);
width = 1012;
}
);
metricLeft = "=51";
metricRight = "=51";
unicode = 8603;
}
{
glyphname = leftWaveArrow;
layers = (
{
anchors = (
{
name = center;
pos = (525,278);
}
);
layerId = master01;
shapes = (
{
closed = 1;
nodes = (
(130,226,o),
(151,290,o),
(154,339,c),
(194,373,l),
(242,369,o),
(309,381,o),
(391,404,c),
(351,448,l),
(325,449,o),
(297,449,o),
(279,450,cs),
(202,455,o),
(133,471,o),
(73,495,c),
(51,477,l),
(65,414,o),
(72,343,o),
(66,267,cs),
(64,242,o),
(63,217,o),
(58,193,c),
(96,149,l)
);
},
{
closed = 1;
nodes = (
(850,320,ls),
(797,376,o),
(757,406,o),
(692,406,cs),
(623,406,o),
(592,372,o),
(532,321,cs),
(489,285,ls),
(447,249,o),
(416,220,o),
(390,220,cs),
(364,220,o),
(344,231,o),
(321,256,cs),
(184,393,l),
(134,343,l),
(270,206,ls),
(305,170,o),
(344,149,o),
(390,149,cs),
(437,149,o),
(488,191,o),
(534,230,cs),
(578,267,ls),
(623,305,o),
(643,335,o),
(692,335,cs),
(736,335,o),
(762,310,o),
(799,271,cs),
(910,158,l),
(961,208,l)
);
}
);
width = 1012;
},
{
anchors = (
{
name = center;
pos = (545,279);
}
);
associatedMasterId = master01;
layerId = "5DA4DD50-BAB4-4EA8-986B-5771AEEA1FFB";
name = "13 Mar 24 at 23:58";
shapes = (
{
closed = 1;
nodes = (
(478,101,o),
(531,140,o),
(587,187,cs),
(632,225,ls),
(715,295,o),
(738,308,o),
(770,308,cs),
(801,308,o),
(825,290,o),
(865,250,cs),
(988,123,l),
(1039,172,l),
(914,300,ls),
(865,351,o),
(825,379,o),
(770,379,cs),
(715,379,o),
(662,341,o),
(605,293,cs),
(561,255,ls),
(478,186,o),
(454,172,o),
(423,172,cs),
(391,172,o),
(367,191,o),
(328,230,cs),
(181,379,l),
(130,328,l),
(278,180,ls),
(329,130,o),
(367,101,o),
(423,101,cs)
);
},
{
closed = 1;
nodes = (
(148,192,o),
(164,258,o),
(164,307,c),
(201,343,l),
(249,343,o),
(315,359,o),
(395,388,c),
(353,429,l),
(327,428,o),
(299,426,o),
(281,426,cs),
(203,426,o),
(133,437,o),
(72,457,c),
(51,437,l),
(70,375,o),
(81,305,o),
(81,229,cs),
(81,204,o),
(81,179,o),
(78,154,c),
(119,113,l)
);
},
{
closed = 0;
nodes = (
(154,353,l),
(305,200,ls),
(343,161,o),
(379,137,o),
(423,137,cs),
(482,137,o),
(529,185,o),
(581,227,cs),
(655,286,o),
(701,343,o),
(772,343,cs),
(820,343,o),
(849,316,o),
(891,273,cs),
(1014,148,l)
);
},
{
ref = leftArrow;
}
);
width = 1090;
},
{
anchors = (
{
name = center;
pos = (545,279);
}
);
associatedMasterId = master01;
layerId = "F80D9E14-F6A2-40D2-8912-1F9B79C8C00B";
name = "19 Mar 24 at 11:46";
shapes = (
{
closed = 1;
nodes = (
(148,192,o),
(164,258,o),
(164,307,c),
(201,343,l),
(249,343,o),
(315,359,o),
(395,388,c),
(353,429,l),
(327,428,o),
(299,426,o),
(281,426,cs),
(203,426,o),
(133,437,o),
(72,457,c),
(51,437,l),
(70,375,o),
(81,305,o),
(81,229,cs),
(81,204,o),
(81,179,o),
(78,154,c),
(119,113,l)
);
},
{
closed = 1;
nodes = (
(852,320,ls),
(800,373,o),
(760,402,o),
(698,402,cs),
(627,402,o),
(581,367,o),
(520,315,cs),
(508,305,o),
(496,294,o),
(483,284,cs),
(436,245,o),
(411,221,o),
(390,221,cs),
(377,221,o),
(361,230,o),
(337,255,cs),
(205,390,l),
(154,340,l),
(286,205,ls),
(319,171,o),
(352,150,o),
(390,150,cs),
(442,150,o),
(484,192,o),
(528,229,cs),
(542,240,o),
(554,251,o),
(566,261,cs),
(612,300,o),
(647,331,o),
(698,331,cs),
(739,331,o),
(765,307,o),
(801,270,cs),
(909,160,l),
(960,210,l)
);
},
{
ref = leftArrow;
}
);
width = 1090;
},
{
anchors = (
{
name = center;
pos = (545,279);
}
);
associatedMasterId = master01;
layerId = "804418E5-3791-4A1A-B84D-79B7BF716435";
name = "19 Mar 24 at 11:47";
shapes = (
{
closed = 1;
nodes = (
(765,294,ls),
(671,402,o),
(598,402,o),
(505,294,cs),
(440,225,ls),
(388,164,o),
(361,164,o),
(308,225,cs),
(189,370,l),
(135,324,l),
(252,179,ls),
(331,84,o),
(406,84,o),
(493,179,cs),
(557,248,ls),
(624,321,o),
(648,321,o),
(709,248,cs),
(805,131,l),
(861,175,l)
);
},
{
closed = 1;
nodes = (
(130,202,o),
(151,266,o),
(154,315,c),
(194,349,l),
(242,345,o),
(309,357,o),
(391,380,c),
(351,424,l),
(325,425,o),
(297,425,o),
(279,426,cs),
(202,431,o),
(133,447,o),
(73,471,c),
(51,453,l),
(65,390,o),
(72,319,o),
(66,243,cs),
(64,218,o),
(63,193,o),
(58,169,c),
(96,125,l)
);
}
);
width = 912;
}
);
metricLeft = "=51";
metricRight = "=51";
unicode = 8604;
}
{
glyphname = leftTwoheadedArrow;
layers = (
{
anchors = (
{
name = center;
pos = (572,278);
}
);
layerId = master01;
shapes = (
{
alignment = 1;
ref = leftArrow;
},
{
closed = 1;
nodes = (
(528,84,l),
(493,161,o),
(457,219,o),
(423,253,c),
(423,305,l),
(457,339,o),
(493,397,o),
(528,474,c),
(471,474,l),
(401,392,o),
(327,332,o),
(251,293,c),
(251,265,l),
(327,226,o),
(401,166,o),
(471,84,c)
);
}
);
width = 1012;
}
);
metricLeft = "=51";
metricRight = "=51";
unicode = 8606;
}
{
glyphname = downTwoheadedArrow;
layers = (
{
layerId = master01;
shapes = (
{
closed = 1;
nodes = (
(229,101,l),
(258,159,o),
(304,215,o),
(366,268,c),
(366,312,l),
(308,285,o),
(264,258,o),
(238,232,c),
(198,232,l),
(172,258,o),
(128,285,o),
(70,312,c),
(70,268,l),
(132,215,o),
(178,159,o),
(207,101,c)
);
},
{
closed = 1;
nodes = (
(229,-50,l),
(258,8,o),
(304,64,o),
(366,117,c),
(366,161,l),
(308,134,o),
(264,107,o),
(238,81,c),
(198,81,l),
(172,107,o),
(128,134,o),
(70,161,c),
(70,117,l),
(132,64,o),
(178,8,o),
(207,-50,c)
);
},
{
closed = 1;
nodes = (
(245,51,l),
(245,742,l),
(191,742,l),
(191,51,l)
);
}
);
width = 436;
}
);
unicode = 8609;
}
{
glyphname = leftTailArrow;
layers = (
{
anchors = (
{
name = center;
pos = (511,278);
}
);
layerId = master01;
shapes = (
{
closed = 1;
nodes = (
(961,83,l),
(803,278,l),
(961,473,l),
(877,473,l),
(718,278,l),
(877,83,l)
);
},
{
closed = 1;
nodes = (
(328,84,l),
(293,161,o),
(257,219,o),
(223,253,c),
(223,305,l),
(257,339,o),
(293,397,o),
(328,474,c),
(271,474,l),
(201,392,o),
(127,332,o),
(51,293,c),
(51,265,l),
(127,226,o),
(201,166,o),
(271,84,c)
);
},
{
closed = 1;
nodes = (
(781,244,l),
(781,315,l),
(184,315,l),
(184,244,l)
);
}
);
width = 1012;
}
);
metricLeft = "=51";
metricRight = "=51";
unicode = 8610;
}
{
glyphname = leftFrombarArrow;
layers = (
{
anchors = (
{
name = center;
pos = (506,279);
}
);
layerId = master01;
shapes = (
{
closed = 1;
nodes = (
(961,84,l),
(961,474,l),
(890,474,l),
(890,84,l)
);
},
{
ref = leftArrow;
}
);
width = 1012;
}
);
metricLeft = "=51";
metricRight = "=51";
unicode = 8612;
}
{
glyphname = upDownbaseArrow;
layers = (
{
anchors = (
{
name = center;
pos = (218,301);
}
);
layerId = master01;
shapes = (
{
closed = 1;
nodes = (
(128,508,o),
(172,535,o),
(198,561,c),
(238,561,l),
(264,535,o),
(308,508,o),
(366,481,c),
(366,525,l),
(304,578,o),
(258,634,o),
(229,692,c),
(207,692,l),
(178,634,o),
(132,578,o),
(70,525,c),
(70,481,l)
);
},
{
closed = 1;
nodes = (
(366,-90,l),
(366,-36,l),
(70,-36,l),
(70,-90,l)
);
},
{
closed = 1;
nodes = (
(229,0,l),
(258,58,o),
(304,114,o),
(366,167,c),
(366,211,l),
(308,184,o),
(264,157,o),
(238,131,c),
(198,131,l),
(172,157,o),
(128,184,o),
(70,211,c),
(70,167,l),
(132,114,o),
(178,58,o),
(207,0,c)
);
},
{
closed = 1;
nodes = (
(245,101,l),
(245,591,l),
(191,591,l),
(191,101,l)
);
}
);
width = 436;
}
);
unicode = 8616;
}
{
glyphname = leftHookArrow;
layers = (
{
anchors = (
{
name = center;
pos = (523,331);
}
);
layerId = master01;
shapes = (
{
closed = 1;
nodes = (
(793,244,ls),
(903,244,o),
(995,278,o),
(995,411,cs),
(995,544,o),
(903,577,o),
(793,577,cs),
(670,577,l),
(670,506,l),
(781,506,ls),
(865,506,o),
(924,495,o),
(924,411,cs),
(924,327,o),
(865,315,o),
(781,315,cs),
(184,315,l),
(184,244,l)
);
},
{
closed = 1;
nodes = (
(328,84,l),
(293,161,o),
(257,219,o),
(223,253,c),
(223,305,l),
(257,339,o),
(293,397,o),
(328,474,c),
(271,474,l),
(201,392,o),
(127,332,o),
(51,293,c),
(51,265,l),
(127,226,o),
(201,166,o),
(271,84,c)
);
}
);
width = 1046;
}
);
metricLeft = "=51";
metricRight = "=51";
unicode = 8617;
}
{
glyphname = leftLoopArrow;
layers = (
{
anchors = (
{
name = center;
pos = (549,329);
}
);
layerId = master01;
shapes = (
{
closed = 1;
nodes = (
(771,84,l),
(771,332,ls),
(771,458,o),
(817,507,o),
(886,507,cs),
(938,507,o),
(976,480,o),
(976,418,cs),
(976,351,o),
(934,315,o),
(817,315,cs),
(183,315,l),
(183,244,l),
(817,244,ls),
(982,244,o),
(1047,309,o),
(1047,418,cs),
(1047,513,o),
(986,574,o),
(886,574,cs),
(765,574,o),
(700,492,o),
(700,332,cs),
(700,84,l)
);
},
{
closed = 1;
nodes = (
(328,84,l),
(293,161,o),
(257,219,o),
(223,253,c),
(223,305,l),
(257,339,o),
(293,397,o),
(328,474,c),
(271,474,l),
(201,392,o),
(127,332,o),
(51,293,c),
(51,265,l),
(127,226,o),
(201,166,o),
(271,84,c)
);
}
);
width = 1098;
}
);
metricLeft = "=51";
metricRight = "=51";
unicode = 8619;
}
{
glyphname = rightLoopArrow;
layers = (
{
anchors = (
{
name = center;
pos = (430,383);
}
);
layerId = master01;
shapes = (
{
closed = 1;
nodes = (
(315,197,l),
(315,385,ls),
(315,507,o),
(266,569,o),
(174,569,cs),
(98,569,o),
(51,523,o),
(51,451,cs),
(51,368,o),
(101,318,o),
(226,318,cs),
(708,318,l),
(708,372,l),
(226,372,ls),
(137,372,o),
(105,400,o),
(105,451,cs),
(105,498,o),
(134,518,o),
(174,518,cs),
(226,518,o),
(261,481,o),
(261,385,cs),
(261,197,l)
);
},
{
closed = 1;
nodes = (
(642,197,l),
(695,259,o),
(751,305,o),
(809,334,c),
(809,356,l),
(751,385,o),
(695,431,o),
(642,493,c),
(598,493,l),
(625,435,o),
(652,391,o),
(678,365,c),
(678,325,l),
(652,299,o),
(625,255,o),
(598,197,c)
);
}
);
width = 860;
}
);
unicode = 8620;
}
{
glyphname = leftRightWaveArrow;
layers = (
{
anchors = (
{
name = center;
pos = (610,278);
}
);
layerId = master01;
shapes = (
{
closed = 1;
nodes = (
(556,128,o),
(539,342,o),
(611,342,cs),
(683,342,o),
(666,128,o),
(806,128,cs),
(857,128,o),
(891,162,o),
(919,242,c),
(1037,242,l),
(1037,314,l),
(874,314,l),
(861,246,o),
(841,196,o),
(806,196,cs),
(715,196,o),
(747,411,o),
(611,411,cs),
(476,411,o),
(507,196,o),
(417,196,cs),
(381,196,o),
(361,246,o),
(348,314,c),
(185,314,l),
(185,242,l),
(303,242,l),
(331,162,o),
(365,128,o),
(417,128,cs)
);
},
{
closed = 1;
nodes = (
(328,83,l),
(293,160,o),
(257,218,o),
(223,252,c),
(223,304,l),
(257,338,o),
(293,396,o),
(328,473,c),
(271,473,l),
(201,391,o),
(127,331,o),
(51,292,c),
(51,264,l),
(127,225,o),
(201,165,o),
(271,83,c)
);
},
{
closed = 1;
nodes = (
(950,83,l),
(1020,165,o),
(1094,225,o),
(1170,264,c),
(1170,292,l),
(1094,331,o),
(1020,391,o),
(950,473,c),
(893,473,l),
(928,396,o),
(964,338,o),
(998,304,c),
(998,252,l),
(964,218,o),
(928,160,o),
(893,83,c)
);
}
);
userData = {
com.schriftgestaltung.annotations = (
{
position = (
616,
-11
);
type = Text;
width = 100;
}
);
};
width = 1221;
}
);
metricLeft = "=51";
metricRight = "=51";
unicode = 8621;
}
{
glyphname = leftRightStrokeArrow;
layers = (
{
anchors = (
{
name = center;
pos = (565,278);
}
);
layerId = master01;
shapes = (
{
closed = 1;
nodes = (
(501,83,l),
(710,473,l),
(629,473,l),
(420,83,l)
);
},
{
ref = leftRightArrow;
}
);
width = 1130;
}
);
metricLeft = "=51";
metricRight = "=51";
unicode = 8622;
}
{
glyphname = downZigzagArrow;
layers = (
{
anchors = (
{
name = center;
pos = (319,279);
}
);
layerId = master01;
shapes = (
{
closed = 1;
nodes = (
(51,171,l),
(422,348,l),
(274,-9,l),
(340,-41,l),
(568,506,l),
(174,318,l),
(297,709,l),
(228,734,l)
);
},
{
closed = 1;
nodes = (
(287,-11,l),
(267,31,o),
(229,82,o),
(175,144,c),
(154,92,l),
(201,1,o),
(228,-88,o),
(235,-172,c),
(262,-183,l),
(325,-127,o),
(406,-83,o),
(502,-51,c),
(523,1,l),
(445,-3,o),
(377,-14,o),
(332,-29,c)
);
}
);
userData = {
public.verticalOrigin = 1069;
};
width = 619;
}
);
metricLeft = "=51";
metricRight = "=51";
unicode = 8623;
}
{
glyphname = upTipLeftArrow;
layers = (
{
anchors = (
{
name = center;
pos = (361,280);
}
);
layerId = master01;
shapes = (
{
closed = 1;
nodes = (
(607,-175,l),
(607,576,l),
(198,576,l),
(198,505,l),
(536,505,l),
(536,-175,l)
);
},
{
closed = 1;
nodes = (
(393,346,l),
(357,422,o),
(322,480,o),
(287,514,c),
(287,567,l),
(322,601,o),
(357,659,o),
(393,735,c),
(335,735,l),
(265,653,o),
(191,593,o),
(115,555,c),
(115,526,l),
(191,488,o),
(265,427,o),
(335,346,c)
);
}
);
width = 722;
}
);
metricLeft = "=115";
metricRight = "=115";
unicode = 8624;
}
{
glyphname = upTipRightArrow;
layers = (
{
anchors = (
{
name = center;
pos = (361,280);
}
);
layerId = master01;
shapes = (
{
closed = 1;
nodes = (
(186,-175,l),
(186,505,l),
(524,505,l),
(524,576,l),
(115,576,l),
(115,-175,l)
);
},
{
closed = 1;
nodes = (
(387,346,l),
(457,427,o),
(531,488,o),
(607,526,c),
(607,555,l),
(531,593,o),
(457,653,o),
(387,735,c),
(330,735,l),
(365,659,o),
(401,601,o),
(435,567,c),
(435,514,l),
(401,480,o),
(365,422,o),
(330,346,c)
);
}
);
width = 722;
}
);
metricLeft = "=115";
metricRight = "=115";
unicode = 8625;
}
{
glyphname = downTipLeftArrow;
layers = (
{
anchors = (
{
name = center;
pos = (361,280);
}
);
layerId = master01;
shapes = (
{
closed = 1;
nodes = (
(607,-16,l),
(607,735,l),
(536,735,l),
(536,55,l),
(198,55,l),
(198,-16,l)
);
},
{
closed = 1;
nodes = (
(393,-175,l),
(357,-99,o),
(322,-41,o),
(287,-7,c),
(287,46,l),
(322,80,o),
(357,138,o),
(393,214,c),
(335,214,l),
(265,133,o),
(191,72,o),
(115,34,c),
(115,5,l),
(191,-33,o),
(265,-93,o),
(335,-175,c)
);
}
);
width = 722;
}
);
metricLeft = "=115";
metricRight = "=115";
unicode = 8626;
}
{
glyphname = downTipRightArrow;
layers = (
{
anchors = (
{
name = center;
pos = (361,280);
}
);
layerId = master01;
shapes = (
{
closed = 1;
nodes = (
(524,-16,l),
(524,55,l),
(186,55,l),
(186,735,l),
(115,735,l),
(115,-16,l)
);
},
{
closed = 1;
nodes = (
(387,-175,l),
(457,-93,o),
(531,-33,o),
(607,5,c),
(607,34,l),
(531,72,o),
(457,133,o),
(387,214,c),
(330,214,l),
(365,138,o),
(401,80,o),
(435,46,c),
(435,-7,l),
(401,-41,o),
(365,-99,o),
(330,-175,c)
);
}
);
width = 722;
}
);
metricLeft = "=115";
metricRight = "=115";
unicode = 8627;
}
{
glyphname = rightCornerDownArrow;
layers = (
{
anchors = (
{
name = center;
pos = (419,147);
}
);
layerId = master01;
shapes = (
{
closed = 1;
nodes = (
(564,-16,l),
(564,393,l),
(115,393,l),
(115,322,l),
(493,322,l),
(493,-16,l)
);
},
{
closed = 1;
nodes = (
(543,-99,l),
(581,-22,o),
(641,51,o),
(723,121,c),
(723,179,l),
(646,143,o),
(589,108,o),
(554,74,c),
(502,74,l),
(468,108,o),
(410,143,o),
(333,179,c),
(333,121,l),
(415,51,o),
(475,-22,o),
(514,-99,c)
);
}
);
width = 838;
}
);
metricLeft = "=115";
metricRight = "=115";
unicode = 8628;
}
{
glyphname = carriagereturn;
layers = (
{
anchors = (
{
name = center;
pos = (361,279);
}
);
layerId = master01;
shapes = (
{
closed = 1;
nodes = (
(607,134,l),
(607,582,l),
(536,582,l),
(536,205,l),
(198,205,l),
(198,134,l)
);
},
{
closed = 1;
nodes = (
(393,-25,l),
(357,51,o),
(322,109,o),
(287,143,c),
(287,196,l),
(322,230,o),
(357,288,o),
(393,364,c),
(335,364,l),
(265,283,o),
(191,222,o),
(115,184,c),
(115,155,l),
(191,117,o),
(265,57,o),
(335,-25,c)
);
}
);
width = 722;
}
);
metricLeft = "=115";
metricRight = "=115";
unicode = 8629;
}
{
glyphname = topCircleLeftArrow;
layers = (
{
anchors = (
{
name = center;
pos = (628,278);
}
);
layerId = master01;
shapes = (
{
closed = 1;
nodes = (
(333,91,l),
(333,290,o),
(494,450,o),
(692,450,cs),
(891,450,o),
(1051,290,o),
(1051,91,c),
(1122,91,l),
(1122,329,o),
(930,521,o),
(692,521,cs),
(454,521,o),
(262,329,o),
(262,91,c)
);
},
{
closed = 1;
nodes = (
(344,99,o),
(419,157,o),
(513,208,c),
(527,264,l),
(445,246,o),
(379,224,o),
(339,199,c),
(289,211,l),
(261,252,o),
(214,300,o),
(148,352,c),
(135,295,l),
(199,208,o),
(241,124,o),
(261,40,c),
(289,35,l)
);
}
);
width = 1257;
}
);
metricLeft = "=135";
metricRight = "=135";
unicode = 8630;
}
{
glyphname = topCircleRightArrow;
layers = (
{
anchors = (
{
name = center;
pos = (628,278);
}
);
layerId = master01;
shapes = (
{
closed = 1;
nodes = (
(206,91,l),
(206,290,o),
(366,450,o),
(565,450,cs),
(763,450,o),
(924,290,o),
(924,91,c),
(995,91,l),
(995,329,o),
(803,521,o),
(565,521,cs),
(327,521,o),
(135,329,o),
(135,91,c)
);
},
{
closed = 1;
nodes = (
(996,40,l),
(1016,124,o),
(1058,208,o),
(1122,295,c),
(1109,352,l),
(1043,300,o),
(996,252,o),
(968,211,c),
(918,199,l),
(878,224,o),
(812,246,o),
(730,264,c),
(744,208,l),
(838,157,o),
(913,99,o),
(968,35,c)
);
}
);
width = 1257;
}
);
metricLeft = "=135";
metricRight = "=135";
unicode = 8631;
}
{
glyphname = northWestToLongbarArrow;
layers = (
{
anchors = (
{
name = center;
pos = (413,381);
}
);
layerId = master01;
shapes = (
{
closed = 1;
nodes = (
(691,109,l),
(273,527,l),
(235,489,l),
(653,71,l)
);
},
{
closed = 1;
nodes = (
(249,386,o),
(261,436,o),
(261,473,c),
(289,501,l),
(326,501,o),
(376,513,o),
(436,535,c),
(405,566,l),
(324,560,o),
(252,567,o),
(190,587,c),
(175,572,l),
(195,510,o),
(202,438,o),
(196,357,c),
(227,326,l)
);
},
{
closed = 1;
nodes = (
(691,638,l),
(691,692,l),
(135,692,l),
(135,638,l)
);
}
);
width = 826;
}
);
unicode = 8632;
}
{
glyphname = anticlockwiseOpenCircleArrow;
layers = (
{
anchors = (
{
name = center;
pos = (593,278);
}
);
layerId = master01;
shapes = (
{
closed = 1;
nodes = (
(915,583,o),
(977,591,o),
(1052,612,c),
(1015,657,l),
(907,657,o),
(814,675,o),
(736,708,c),
(714,690,l),
(734,607,o),
(735,512,o),
(716,406,c),
(753,362,l),
(787,432,o),
(807,490,o),
(814,537,c),
(874,479,o),
(924,392,o),
(924,278,cs),
(924,79,o),
(764,-81,o),
(565,-81,cs),
(367,-81,o),
(206,79,o),
(206,278,cs),
(206,409,o),
(277,516,o),
(363,575,c),
(323,633,l),
(215,559,o),
(135,437,o),
(135,278,cs),
(135,40,o),
(327,-152,o),
(565,-152,cs),
(803,-152,o),
(995,40,o),
(995,278,cs),
(995,402,o),
(944,509,o),
(868,583,c)
);
}
);
width = 1187;
}
);
metricLeft = "=135";
metricRight = "=135";
unicode = 8634;
}
{
glyphname = clockwiseOpenCircleArrow;
layers = (
{
anchors = (
{
name = center;
pos = (593,278);
}
);
layerId = master01;
shapes = (
{
closed = 1;
nodes = (
(824,575,l),
(858,554,o),
(981,453,o),
(981,278,cs),
(981,79,o),
(820,-81,o),
(622,-81,cs),
(423,-81,o),
(263,79,o),
(263,278,cs),
(263,395,o),
(317,483,o),
(373,538,c),
(380,491,o),
(400,432,o),
(434,362,c),
(471,406,l),
(452,512,o),
(453,607,o),
(473,690,c),
(451,708,l),
(373,675,o),
(280,657,o),
(172,657,c),
(135,612,l),
(210,591,o),
(272,582,o),
(319,583,c),
(240,507,o),
(192,398,o),
(192,278,cs),
(192,40,o),
(384,-152,o),
(622,-152,cs),
(860,-152,o),
(1052,40,o),
(1052,278,cs),
(1052,445,o),
(958,573,o),
(864,633,c)
);
}
);
width = 1187;
}
);
metricLeft = "=135";
metricRight = "=135";
unicode = 8635;
}
{
glyphname = leftBarbUpHarpoon;
layers = (
{
anchors = (
{
name = center;
pos = (506,363);
}
);
layerId = master01;
shapes = (
{
closed = 1;
nodes = (
(223,244,l),
(223,306,l),
(257,340,o),
(293,398,o),
(328,475,c),
(271,475,l),
(201,393,o),
(127,333,o),
(51,294,c),
(51,244,l)
);
},
{
closed = 1;
nodes = (
(961,244,l),
(961,315,l),
(184,315,l),
(184,244,l)
);
}
);
width = 1012;
}
);
metricLeft = "=51";
metricRight = "=51";
unicode = 8636;
}
{
glyphname = rightBarbUpHarpoon;
layers = (
{
anchors = (
{
name = center;
pos = (397,405);
}
);
layerId = master01;
shapes = (
{
closed = 1;
nodes = (
(743,318,l),
(743,356,l),
(685,385,o),
(629,431,o),
(576,493,c),
(532,493,l),
(559,435,o),
(586,391,o),
(612,365,c),
(612,318,l)
);
},
{
closed = 1;
nodes = (
(642,318,l),
(642,372,l),
(51,372,l),
(51,318,l)
);
}
);
width = 794;
}
);
unicode = 8640;
}
{
glyphname = rightOverLeftArrow;
layers = (
{
anchors = (
{
name = center;
pos = (397,345);
}
);
layerId = master01;
shapes = (
{
closed = 1;
nodes = (
(576,361,l),
(629,423,o),
(685,469,o),
(743,498,c),
(743,520,l),
(685,549,o),
(629,595,o),
(576,657,c),
(532,657,l),
(559,599,o),
(586,555,o),
(612,529,c),
(612,489,l),
(586,463,o),
(559,419,o),
(532,361,c)
);
},
{
closed = 1;
nodes = (
(262,33,l),
(235,91,o),
(208,135,o),
(182,161,c),
(182,201,l),
(208,227,o),
(235,271,o),
(262,329,c),
(218,329,l),
(165,267,o),
(109,221,o),
(51,192,c),
(51,170,l),
(109,141,o),
(165,95,o),
(218,33,c)
);
},
{
closed = 1;
nodes = (
(743,154,l),
(743,208,l),
(152,208,l),
(152,154,l)
);
},
{
closed = 1;
nodes = (
(642,482,l),
(642,536,l),
(51,536,l),
(51,482,l)
);
}
);
width = 794;
}
);
unicode = 8644;
}
{
glyphname = rightOverLeftHarpoon;
layers = (
{
anchors = (
{
name = center;
pos = (397,345);
}
);
layerId = master01;
shapes = (
{
closed = 1;
nodes = (
(743,431,l),
(743,469,l),
(685,498,o),
(629,544,o),
(576,606,c),
(532,606,l),
(559,548,o),
(586,504,o),
(612,478,c),
(612,431,l)
);
},
{
closed = 1;
nodes = (
(262,84,l),
(235,142,o),
(208,186,o),
(182,212,c),
(182,259,l),
(51,259,l),
(51,221,l),
(109,192,o),
(165,146,o),
(218,84,c)
);
},
{
closed = 1;
nodes = (
(743,205,l),
(743,259,l),
(152,259,l),
(152,205,l)
);
},
{
closed = 1;
nodes = (
(642,431,l),
(642,485,l),
(51,485,l),
(51,431,l)
);
}
);
width = 794;
}
);
unicode = 8652;
}
{
glyphname = leftDoubleStrokeArrow;
layers = (
{
anchors = (
{
name = center;
pos = (513,279);
}
);
layerId = master01;
shapes = (
{
closed = 1;
nodes = (
(570,84,l),
(779,474,l),
(699,474,l),
(490,84,l)
);
},
{
ref = leftDoubleArrow;
}
);
width = 1012;
}
);
metricLeft = "=51";
metricRight = "=51";
unicode = 8653;
}
{
glyphname = leftRightDoubleStrokeArrow;
layers = (
{
anchors = (
{
name = center;
pos = (631,278);
}
);
layerId = master01;
shapes = (
{
closed = 1;
nodes = (
(567,83,l),
(776,473,l),
(695,473,l),
(486,83,l)
);
},
{
ref = leftRightDoubleArrow;
}
);
width = 1262;
}
);
metricLeft = "=51";
metricRight = "=51";
unicode = 8654;
}
{
glyphname = rightDoubleStrokeArrow;
layers = (
{
anchors = (
{
name = center;
pos = (456,279);
}
);
layerId = master01;
shapes = (
{
closed = 1;
nodes = (
(312,84,l),
(521,474,l),
(441,474,l),
(232,84,l)
);
},
{
alignment = 1;
ref = rightDoubleArrow;
}
);
width = 1012;
}
);
metricLeft = "=51";
metricRight = "=51";
unicode = 8655;
}
{
glyphname = rightDoubleArrow;
layers = (
{
anchors = (
{
name = center;
pos = (393,279);
}
);
layerId = master01;
shapes = (
{
closed = 1;
nodes = (
(677,-33,l),
(748,49,o),
(840,149,o),
(961,266,c),
(961,292,l),
(840,409,o),
(748,509,o),
(677,591,c),
(619,591,l),
(676,480,o),
(761,353,o),
(847,258,c),
(847,300,l),
(761,205,o),
(676,78,o),
(619,-33,c)
);
},
{
closed = 1;
nodes = (
(810,150,l),
(810,221,l),
(51,221,l),
(51,150,l)
);
},
{
closed = 1;
nodes = (
(810,337,l),
(810,408,l),
(51,408,l),
(51,337,l)
);
}
);
width = 1012;
}
);
metricLeft = "=51";
metricRight = "=51";
unicode = 8658;
}
{
glyphname = leftRightDoubleArrow;
layers = (
{
anchors = (
{
name = center;
pos = (631,278);
}
);
layerId = master01;
shapes = (
{
closed = 1;
nodes = (
(927,-34,l),
(998,48,o),
(1090,148,o),
(1211,265,c),
(1211,291,l),
(1090,408,o),
(998,508,o),
(927,590,c),
(869,590,l),
(926,479,o),
(1011,352,o),
(1096,257,c),
(1096,299,l),
(1011,204,o),
(926,77,o),
(869,-34,c)
);
},
{
closed = 1;
nodes = (
(393,-34,l),
(336,77,o),
(251,204,o),
(166,299,c),
(166,257,l),
(251,352,o),
(336,479,o),
(393,590,c),
(335,590,l),
(264,508,o),
(172,408,o),
(51,291,c),
(51,265,l),
(172,148,o),
(264,48,o),
(335,-34,c)
);
},
{
closed = 1;
nodes = (
(1060,149,l),
(1060,220,l),
(202,220,l),
(202,149,l)
);
},
{
closed = 1;
nodes = (
(1060,336,l),
(1060,407,l),
(202,407,l),
(202,336,l)
);
}
);
width = 1262;
}
);
metricLeft = "=51";
metricRight = "=51";
unicode = 8660;
}
{
glyphname = northWestDoubleArrow;
layers = (
{
anchors = (
{
name = center;
pos = (338,345);
}
);
layerId = master01;
shapes = (
{
closed = 1;
nodes = (
(625,197,l),
(217,605,l),
(179,566,l),
(587,158,l)
);
},
{
closed = 1;
nodes = (
(525,96,l),
(117,504,l),
(78,466,l),
(486,58,l)
);
},
{
closed = 1;
nodes = (
(112,355,o),
(134,470,o),
(139,566,c),
(117,544,l),
(213,549,o),
(328,571,o),
(418,600,c),
(387,632,l),
(305,626,o),
(201,622,o),
(73,624,c),
(59,610,l),
(61,482,o),
(57,378,o),
(51,296,c),
(83,265,l)
);
}
);
width = 676;
}
);
unicode = 8662;
}
{
glyphname = leftTripleArrow;
layers = (
{
anchors = (
{
name = center;
pos = (513,278);
}
);
layerId = master01;
shapes = (
{
closed = 1;
nodes = (
(397,-109,l),
(357,-1,o),
(249,196,o),
(172,298,c),
(172,258,l),
(249,360,o),
(357,557,o),
(397,665,c),
(338,665,l),
(243,536,o),
(147,411,o),
(51,291,c),
(51,265,l),
(147,145,o),
(243,20,o),
(338,-109,c)
);
},
{
closed = 1;
nodes = (
(961,64,l),
(961,135,l),
(247,135,l),
(247,64,l)
);
},
{
closed = 1;
nodes = (
(961,242,l),
(961,314,l),
(142,314,l),
(142,242,l)
);
},
{
closed = 1;
nodes = (
(961,421,l),
(961,492,l),
(247,492,l),
(247,421,l)
);
}
);
width = 1012;
}
);
metricLeft = "=51";
metricRight = "=51";
unicode = 8666;
}
{
glyphname = rightTripleArrow;
layers = (
{
anchors = (
{
name = center;
pos = (402,345);
}
);
layerId = master01;
shapes = (
{
closed = 1;
nodes = (
(535,51,l),
(607,149,o),
(680,244,o),
(753,335,c),
(753,355,l),
(680,446,o),
(607,541,o),
(535,639,c),
(490,639,l),
(521,557,o),
(603,407,o),
(661,330,c),
(661,360,l),
(603,283,o),
(521,133,o),
(490,51,c)
);
},
{
closed = 1;
nodes = (
(604,182,l),
(604,236,l),
(51,236,l),
(51,182,l)
);
},
{
closed = 1;
nodes = (
(684,318,l),
(684,372,l),
(51,372,l),
(51,318,l)
);
},
{
closed = 1;
nodes = (
(604,454,l),
(604,508,l),
(51,508,l),
(51,454,l)
);
}
);
width = 804;
}
);
unicode = 8667;
}
{
glyphname = leftSquiggleArrow;
layers = (
{
layerId = master01;
shapes = (
{
closed = 1;
nodes = (
(392,353,l),
(468,230,l),
(537,353,l),
(611,230,l),
(688,364,l),
(732,318,l),
(815,318,l),
(815,372,l),
(738,372,l),
(679,436,l),
(611,313,l),
(537,436,l),
(468,313,l),
(392,436,l),
(320,313,l),
(282,372,l),
(152,372,l),
(152,318,l),
(263,318,l),
(320,230,l)
);
},
{
closed = 1;
nodes = (
(262,197,l),
(235,255,o),
(208,299,o),
(182,325,c),
(182,365,l),
(208,391,o),
(235,435,o),
(262,493,c),
(218,493,l),
(165,431,o),
(109,385,o),
(51,356,c),
(51,334,l),
(109,305,o),
(165,259,o),
(218,197,c)
);
}
);
width = 866;
}
);
unicode = 8668;
}
{
glyphname = rightSquiggleArrow;
layers = (
{
anchors = (
{
name = center;
pos = (433,345);
}
);
layerId = master01;
shapes = (
{
closed = 1;
nodes = (
(329,353,l),
(398,230,l),
(474,353,l),
(546,230,l),
(603,318,l),
(714,318,l),
(714,372,l),
(584,372,l),
(546,313,l),
(474,436,l),
(398,313,l),
(329,436,l),
(255,313,l),
(187,436,l),
(128,372,l),
(51,372,l),
(51,318,l),
(134,318,l),
(178,364,l),
(255,230,l)
);
},
{
closed = 1;
nodes = (
(648,197,l),
(701,259,o),
(757,305,o),
(815,334,c),
(815,356,l),
(757,385,o),
(701,431,o),
(648,493,c),
(604,493,l),
(631,435,o),
(658,391,o),
(684,365,c),
(684,325,l),
(658,299,o),
(631,255,o),
(604,197,c)
);
}
);
width = 866;
}
);
unicode = 8669;
}
{
glyphname = pageup;
layers = (
{
anchors = (
{
name = center;
pos = (218,346);
}
);
layerId = master01;
shapes = (
{
closed = 1;
nodes = (
(128,508,o),
(172,535,o),
(198,561,c),
(238,561,l),
(264,535,o),
(308,508,o),
(366,481,c),
(366,525,l),
(304,578,o),
(258,634,o),
(229,692,c),
(207,692,l),
(178,634,o),
(132,578,o),
(70,525,c),
(70,481,l)
);
},
{
closed = 1;
nodes = (
(366,198,l),
(366,252,l),
(70,252,l),
(70,198,l)
);
},
{
closed = 1;
nodes = (
(245,0,l),
(245,591,l),
(191,591,l),
(191,0,l)
);
},
{
closed = 1;
nodes = (
(366,322,l),
(366,376,l),
(70,376,l),
(70,322,l)
);
}
);
width = 436;
}
);
unicode = 8670;
}
{
glyphname = pagedown;
layers = (
{
anchors = (
{
name = center;
pos = (218,346);
}
);
layerId = master01;
shapes = (
{
closed = 1;
nodes = (
(229,0,l),
(258,58,o),
(304,114,o),
(366,167,c),
(366,211,l),
(308,184,o),
(264,157,o),
(238,131,c),
(198,131,l),
(172,157,o),
(128,184,o),
(70,211,c),
(70,167,l),
(132,114,o),
(178,58,o),
(207,0,c)
);
},
{
closed = 1;
nodes = (
(366,316,l),
(366,370,l),
(70,370,l),
(70,316,l)
);
},
{
closed = 1;
nodes = (
(245,101,l),
(245,692,l),
(191,692,l),
(191,101,l)
);
},
{
closed = 1;
nodes = (
(366,440,l),
(366,494,l),
(70,494,l),
(70,440,l)
);
}
);
width = 436;
}
);
unicode = 8671;
}
{
glyphname = leftDashArrow;
layers = (
{
anchors = (
{
name = center;
pos = (532,278);
}
);
layerId = master01;
shapes = (
{
closed = 1;
nodes = (
(328,83,l),
(293,160,o),
(257,218,o),
(223,252,c),
(223,304,l),
(257,338,o),
(293,396,o),
(328,473,c),
(270,473,l),
(201,391,o),
(127,331,o),
(51,292,c),
(51,264,l),
(127,225,o),
(201,165,o),
(270,83,c)
);
},
{
closed = 1;
nodes = (
(386,243,l),
(386,314,l),
(183,314,l),
(183,243,l)
);
},
{
closed = 1;
nodes = (
(581,243,l),
(581,314,l),
(441,314,l),
(441,243,l)
);
},
{
closed = 1;
nodes = (
(766,243,l),
(766,314,l),
(636,314,l),
(636,243,l)
);
},
{
closed = 1;
nodes = (
(961,243,l),
(961,314,l),
(821,314,l),
(821,243,l)
);
}
);
width = 1012;
}
);
metricLeft = "=51";
metricRight = "=51";
unicode = 8672;
}
{
glyphname = rightDashArrow;
layers = (
{
anchors = (
{
name = center;
pos = (417,345);
}
);
layerId = master01;
shapes = (
{
closed = 1;
nodes = (
(617,197,l),
(670,259,o),
(726,305,o),
(784,334,c),
(784,356,l),
(726,385,o),
(670,431,o),
(617,493,c),
(573,493,l),
(600,435,o),
(627,391,o),
(653,365,c),
(653,325,l),
(627,299,o),
(600,255,o),
(573,197,c)
);
},
{
closed = 1;
nodes = (
(161,318,l),
(161,372,l),
(51,372,l),
(51,318,l)
);
},
{
closed = 1;
nodes = (
(325,318,l),
(325,372,l),
(215,372,l),
(215,318,l)
);
},
{
closed = 1;
nodes = (
(489,318,l),
(489,372,l),
(379,372,l),
(379,318,l)
);
},
{
closed = 1;
nodes = (
(683,318,l),
(683,372,l),
(543,372,l),
(543,318,l)
);
}
);
width = 835;
}
);
unicode = 8674;
}
{
glyphname = leftTabArrow;
layers = (
{
layerId = master01;
shapes = (
{
closed = 1;
nodes = (
(342,197,l),
(315,255,o),
(288,299,o),
(262,325,c),
(262,365,l),
(288,391,o),
(315,435,o),
(342,493,c),
(298,493,l),
(245,431,o),
(189,385,o),
(131,356,c),
(131,334,l),
(189,305,o),
(245,259,o),
(298,197,c)
);
},
{
closed = 1;
nodes = (
(105,197,l),
(105,493,l),
(51,493,l),
(51,197,l)
);
},
{
closed = 1;
nodes = (
(743,318,l),
(743,372,l),
(232,372,l),
(232,318,l)
);
}
);
width = 794;
}
);
unicode = 8676;
}
{
glyphname = rightTabArrow;
layers = (
{
layerId = master01;
shapes = (
{
closed = 1;
nodes = (
(496,197,l),
(549,259,o),
(605,305,o),
(663,334,c),
(663,356,l),
(605,385,o),
(549,431,o),
(496,493,c),
(452,493,l),
(479,435,o),
(506,391,o),
(532,365,c),
(532,325,l),
(506,299,o),
(479,255,o),
(452,197,c)
);
},
{
closed = 1;
nodes = (
(562,318,l),
(562,372,l),
(51,372,l),
(51,318,l)
);
},
{
closed = 1;
nodes = (
(743,197,l),
(743,493,l),
(689,493,l),
(689,197,l)
);
}
);
width = 794;
}
);
unicode = 8677;
}
{
glyphname = leftWhiteArrow;
layers = (
{
layerId = master01;
shapes = (
{
closed = 1;
nodes = (
(331,215,l),
(764,215,l),
(764,469,l),
(331,469,l),
(331,622,l),
(51,342,l),
(331,62,l)
);
},
{
closed = 1;
nodes = (
(94,342,l),
(301,549,l),
(301,439,l),
(734,439,l),
(734,245,l),
(301,245,l),
(301,135,l)
);
}
);
width = 815;
}
);
note = uni21E6;
unicode = 8678;
}
{
glyphname = upWhiteArrow;
layers = (
{
layerId = master01;
shapes = (
{
closed = 1;
nodes = (
(458,-30,l),
(458,403,l),
(611,403,l),
(331,683,l),
(51,403,l),
(204,403,l),
(204,-30,l)
);
},
{
closed = 1;
nodes = (
(234,433,l),
(124,433,l),
(331,640,l),
(538,433,l),
(428,433,l),
(428,0,l),
(234,0,l)
);
}
);
width = 662;
}
);
note = uni21E7;
unicode = 8679;
}
{
glyphname = rightWhiteArrow;
layers = (
{
layerId = master01;
shapes = (
{
closed = 1;
nodes = (
(764,342,l),
(484,622,l),
(484,469,l),
(51,469,l),
(51,215,l),
(484,215,l),
(484,62,l)
);
},
{
closed = 1;
nodes = (
(514,245,l),
(81,245,l),
(81,439,l),
(514,439,l),
(514,549,l),
(721,342,l),
(514,135,l)
);
}
);
width = 815;
}
);
note = uni21E8;
unicode = 8680;
}
{
glyphname = downWhiteArrow;
layers = (
{
layerId = master01;
shapes = (
{
closed = 1;
nodes = (
(611,250,l),
(458,250,l),
(458,683,l),
(204,683,l),
(204,250,l),
(51,250,l),
(331,-30,l)
);
},
{
closed = 1;
nodes = (
(124,220,l),
(234,220,l),
(234,653,l),
(428,653,l),
(428,220,l),
(538,220,l),
(331,13,l)
);
}
);
width = 662;
}
);
note = uni21E9;
unicode = 8681;
}
{
glyphname = capslock;
layers = (
{
layerId = master01;
shapes = (
{
closed = 1;
nodes = (
(458,97,l),
(458,403,l),
(611,403,l),
(331,683,l),
(51,403,l),
(204,403,l),
(204,97,l)
);
},
{
closed = 1;
nodes = (
(458,-117,l),
(458,30,l),
(204,30,l),
(204,-117,l)
);
},
{
closed = 1;
nodes = (
(234,0,l),
(428,0,l),
(428,-87,l),
(234,-87,l)
);
},
{
closed = 1;
nodes = (
(234,433,l),
(124,433,l),
(331,640,l),
(538,433,l),
(428,433,l),
(428,127,l),
(234,127,l)
);
}
);
width = 662;
}
);
note = uni21EA;
unicode = 8682;
}
{
glyphname = upArrowOnPedestalHorizontalWhiteBar;
layers = (
{
layerId = master01;
shapes = (
{
closed = 1;
nodes = (
(611,-117,l),
(611,30,l),
(458,30,l),
(458,403,l),
(611,403,l),
(331,683,l),
(51,403,l),
(204,403,l),
(204,30,l),
(51,30,l),
(51,-117,l)
);
},
{
closed = 1;
nodes = (
(81,0,l),
(234,0,l),
(234,433,l),
(124,433,l),
(188,497,l),
(474,497,l),
(538,433,l),
(428,433,l),
(428,0,l),
(581,0,l),
(581,-87,l),
(81,-87,l)
);
},
{
closed = 1;
nodes = (
(331,640,l),
(444,527,l),
(218,527,l)
);
}
);
width = 662;
}
);
note = uni21EC;
unicode = 8684;
}
{
glyphname = upArrowOnPedestalVerticalWhiteBar;
layers = (
{
layerId = master01;
shapes = (
{
closed = 1;
nodes = (
(611,-117,l),
(611,30,l),
(458,30,l),
(458,403,l),
(611,403,l),
(331,683,l),
(51,403,l),
(204,403,l),
(204,30,l),
(51,30,l),
(51,-117,l)
);
},
{
closed = 1;
nodes = (
(81,0,l),
(234,0,l),
(234,433,l),
(124,433,l),
(316,625,l),
(316,-87,l),
(81,-87,l)
);
},
{
closed = 1;
nodes = (
(346,625,l),
(538,433,l),
(428,433,l),
(428,0,l),
(581,0,l),
(581,-87,l),
(346,-87,l)
);
}
);
width = 662;
}
);
note = uni21ED;
unicode = 8685;
}
{
glyphname = upDoubleOnPedestalWhiteArrow;
layers = (
{
layerId = master01;
shapes = (
{
closed = 1;
nodes = (
(611,-117,l),
(611,30,l),
(458,30,l),
(458,403,l),
(611,403,l),
(331,683,l),
(51,403,l),
(204,403,l),
(204,30,l),
(51,30,l),
(51,-117,l)
);
},
{
closed = 1;
nodes = (
(81,0,l),
(234,0,l),
(234,433,l),
(124,433,l),
(331,640,l),
(538,433,l),
(428,433,l),
(428,0,l),
(581,0,l),
(581,-87,l),
(81,-87,l)
);
},
{
closed = 1;
nodes = (
(204,525,l),
(234,555,l),
(124,555,l),
(331,762,l),
(538,555,l),
(428,555,l),
(458,525,l),
(611,525,l),
(331,805,l),
(51,525,l)
);
}
);
width = 662;
}
);
note = uni21EF;
unicode = 8687;
}
{
glyphname = rightFromWallWhiteArrow;
layers = (
{
layerId = master01;
shapes = (
{
closed = 1;
nodes = (
(198,62,l),
(198,215,l),
(571,215,l),
(571,62,l),
(851,342,l),
(571,622,l),
(571,469,l),
(198,469,l),
(198,622,l),
(51,622,l),
(51,62,l)
);
},
{
closed = 1;
nodes = (
(81,592,l),
(168,592,l),
(168,439,l),
(601,439,l),
(601,549,l),
(808,342,l),
(601,135,l),
(601,245,l),
(168,245,l),
(168,92,l),
(81,92,l)
);
}
);
width = 902;
}
);
note = uni21F0;
unicode = 8688;
}
{
glyphname = northWestArrowToCorner;
layers = (
{
anchors = (
{
name = center;
pos = (518,278);
}
);
layerId = master01;
shapes = (
{
closed = 1;
nodes = (
(122,-102,l),
(122,677,l),
(922,677,l),
(922,748,l),
(51,748,l),
(51,-102,l)
);
},
{
pos = (142,0);
ref = northWestArrow;
}
);
width = 973;
}
);
metricLeft = "=51";
metricRight = "=51";
unicode = 8689;
}
{
glyphname = upDownWhiteArrow;
layers = (
{
layerId = master01;
shapes = (
{
closed = 1;
nodes = (
(611,180,l),
(458,180,l),
(458,483,l),
(611,483,l),
(331,763,l),
(51,483,l),
(204,483,l),
(204,180,l),
(51,180,l),
(331,-100,l)
);
},
{
closed = 1;
nodes = (
(124,150,l),
(234,150,l),
(234,513,l),
(124,513,l),
(331,720,l),
(538,513,l),
(428,513,l),
(428,150,l),
(538,150,l),
(331,-57,l)
);
}
);
width = 662;
}
);
note = uni21F3;
unicode = 8691;
}
{
glyphname = rightCircleArrow;
layers = (
{
layerId = master01;
shapes = (
{
closed = 1;
nodes = (
(420,197,o),
(486,263,o),
(486,345,cs),
(486,427,o),
(420,493,o),
(338,493,cs),
(256,493,o),
(190,427,o),
(190,345,cs),
(190,263,o),
(256,197,o),
(338,197,cs)
);
},
{
closed = 1;
nodes = (
(286,251,o),
(244,293,o),
(244,345,cs),
(244,397,o),
(286,439,o),
(338,439,cs),
(390,439,o),
(432,397,o),
(432,345,cs),
(432,293,o),
(390,251,o),
(338,251,cs)
);
},
{
closed = 1;
nodes = (
(693,318,l),
(693,372,l),
(51,372,l),
(51,318,l)
);
},
{
closed = 1;
nodes = (
(693,318,l),
(693,372,l),
(51,372,l),
(51,318,l)
);
},
{
closed = 1;
nodes = (
(627,197,l),
(680,259,o),
(736,305,o),
(794,334,c),
(794,356,l),
(736,385,o),
(680,431,o),
(627,493,c),
(583,493,l),
(610,435,o),
(637,391,o),
(663,365,c),
(663,325,l),
(637,299,o),
(610,255,o),
(583,197,c)
);
},
{
closed = 1;
nodes = (
(627,197,l),
(680,259,o),
(736,305,o),
(794,334,c),
(794,356,l),
(736,385,o),
(680,431,o),
(627,493,c),
(583,493,l),
(610,435,o),
(637,391,o),
(663,365,c),
(663,325,l),
(637,299,o),
(610,255,o),
(583,197,c)
);
}
);
width = 845;
}
);
unicode = 8692;
}
{
glyphname = threeRightArrow;
layers = (
{
anchors = (
{
name = center;
pos = (397,345);
}
);
layerId = master01;
shapes = (
{
closed = 1;
nodes = (
(576,525,l),
(629,587,o),
(685,633,o),
(743,662,c),
(743,684,l),
(685,713,o),
(629,759,o),
(576,821,c),
(532,821,l),
(559,763,o),
(586,719,o),
(612,693,c),
(612,653,l),
(586,627,o),
(559,583,o),
(532,525,c)
);
},
{
closed = 1;
nodes = (
(642,-10,l),
(642,44,l),
(51,44,l),
(51,-10,l)
);
},
{
closed = 1;
nodes = (
(576,-131,l),
(629,-69,o),
(685,-23,o),
(743,6,c),
(743,28,l),
(685,57,o),
(629,103,o),
(576,165,c),
(532,165,l),
(559,107,o),
(586,63,o),
(612,37,c),
(612,-3,l),
(586,-29,o),
(559,-73,o),
(532,-131,c)
);
},
{
closed = 1;
nodes = (
(642,318,l),
(642,372,l),
(51,372,l),
(51,318,l)
);
},
{
closed = 1;
nodes = (
(576,197,l),
(629,259,o),
(685,305,o),
(743,334,c),
(743,356,l),
(685,385,o),
(629,431,o),
(576,493,c),
(532,493,l),
(559,435,o),
(586,391,o),
(612,365,c),
(612,325,l),
(586,299,o),
(559,255,o),
(532,197,c)
);
},
{
closed = 1;
nodes = (
(642,646,l),
(642,700,l),
(51,700,l),
(51,646,l)
);
}
);
width = 794;
}
);
unicode = 8694;
}
{
glyphname = leftRightVerticalStrokeArrow;
layers = (
{
layerId = master01;
shapes = (
{
closed = 1;
nodes = (
(601,83,l),
(601,473,l),
(529,473,l),
(529,83,l)
);
},
{
ref = leftRightArrow;
}
);
width = 1130;
}
);
metricLeft = "=51";
metricRight = "=51";
unicode = 8697;
}
{
glyphname = leftRightDoubleVerticalStrokeArrow;
layers = (
{
anchors = (
{
name = center;
pos = (575,278);
}
);
layerId = master01;
shapes = (
{
closed = 1;
nodes = (
(527,83,l),
(527,473,l),
(456,473,l),
(456,83,l)
);
},
{
closed = 1;
nodes = (
(690,83,l),
(690,473,l),
(619,473,l),
(619,83,l)
);
},
{
ref = leftRightArrow;
}
);
width = 1130;
}
);
metricLeft = "=51";
metricRight = "=51";
unicode = 8700;
}
{
glyphname = leftOpenHeadedArrow;
layers = (
{
anchors = (
{
name = center;
pos = (428,345);
}
);
layerId = master01;
shapes = (
{
closed = 1;
nodes = (
(292,472,l),
(51,345,l),
(292,218,l)
);
},
{
closed = 1;
nodes = (
(146,345,l),
(244,393,l),
(244,297,l)
);
},
{
closed = 1;
nodes = (
(805,318,l),
(805,372,l),
(272,372,l),
(272,318,l)
);
}
);
width = 856;
}
);
unicode = 8701;
}
{
glyphname = rightOpenHeadedArrow;
layers = (
{
anchors = (
{
name = center;
pos = (428,345);
}
);
layerId = master01;
shapes = (
{
closed = 1;
nodes = (
(805,345,l),
(564,472,l),
(564,218,l)
);
},
{
closed = 1;
nodes = (
(584,318,l),
(584,372,l),
(51,372,l),
(51,318,l)
);
},
{
closed = 1;
nodes = (
(612,393,l),
(710,345,l),
(612,297,l)
);
}
);
width = 856;
}
);
unicode = 8702;
}
{
glyphname = leftRightOpenHeadedArrow;
layers = (
{
anchors = (
{
name = center;
pos = (503,345);
}
);
layerId = master01;
shapes = (
{
closed = 1;
nodes = (
(955,345,l),
(714,472,l),
(714,218,l)
);
},
{
closed = 1;
nodes = (
(292,472,l),
(51,345,l),
(292,218,l)
);
},
{
closed = 1;
nodes = (
(146,345,l),
(244,393,l),
(244,297,l)
);
},
{
closed = 1;
nodes = (
(734,318,l),
(734,372,l),
(272,372,l),
(272,318,l)
);
},
{
closed = 1;
nodes = (
(762,393,l),
(860,345,l),
(762,297,l)
);
}
);
width = 1006;
}
);
unicode = 8703;
}
{
glyphname = complement;
layers = (
{
anchors = (
{
name = center;
pos = (215,357);
}
);
layerId = master01;
shapes = (
{
closed = 1;
nodes = (
(322,-12,o),
(380,69,o),
(380,216,c),
(300,216,l),
(300,110,o),
(275,65,o),
(220,65,cs),
(158,65,o),
(133,114,o),
(133,229,cs),
(133,486,ls),
(133,603,o),
(156,650,o),
(217,650,cs),
(275,650,o),
(300,602,o),
(300,498,c),
(380,498,l),
(380,647,o),
(324,727,o),
(219,727,cs),
(112,727,o),
(51,643,o),
(51,493,cs),
(51,221,ls),
(51,65,o),
(103,-12,o),
(219,-12,cs)
);
}
);
width = 431;
}
);
unicode = 8705;
}
{
glyphname = partialdiff;
layers = (
{
anchors = (
{
name = center;
pos = (291,356);
},
{
name = math.ta;
pos = (300.871,0);
}
);
associatedMasterId = master01;
layerId = "42E81530-C47A-4599-80C6-A765C6694FD4";
name = "28 Feb 24 at 02:57";
shapes = (
{
closed = 1;
nodes = (
(356,-4,o),
(402,24,o),
(439,70,cs),
(513,162,o),
(540,331,o),
(508,499,cs),
(474,673,o),
(385,747,o),
(251,721,cs),
(207,712,o),
(156,691,o),
(121,665,c),
(137,583,l),
(170,616,o),
(216,639,o),
(253,646,cs),
(339,663,o),
(397,609,o),
(421,485,cs),
(423,473,o),
(425,460,o),
(426,448,c),
(388,487,o),
(336,505,o),
(279,494,cs),
(231,485,o),
(191,464,o),
(158,431,cs),
(93,364,o),
(67,248,o),
(88,140,cs),
(112,17,o),
(186,-37,o),
(299,-16,cs)
);
},
{
closed = 1;
nodes = (
(232,47,o),
(192,83,o),
(178,157,cs),
(154,279,o),
(202,410,o),
(302,429,cs),
(353,439,o),
(405,409,o),
(428,357,c),
(435,203,o),
(380,76,o),
(290,58,cs)
);
}
);
width = 582;
},
{
anchors = (
{
name = center;
pos = (253,356);
},
{
name = math.ta;
pos = (246,0);
}
);
layerId = master01;
name = Regular;
shapes = (
{
closed = 1;
nodes = (
(380,-10,o),
(487,91,o),
(487,305,cs),
(487,618,o),
(363,725,o),
(241,725,cs),
(174,725,o),
(108,693,o),
(64,645,c),
(98,586,l),
(147,630,o),
(191,649,o),
(229,649,cs),
(308,649,o),
(364,567,o),
(388,443,c),
(349,480,o),
(302,495,o),
(254,491,cs),
(149,484,o),
(46,387,o),
(46,230,cs),
(46,101,o),
(124,-10,o),
(244,-10,cs)
);
},
{
closed = 1;
nodes = (
(133,354,o),
(196,418,o),
(263,426,cs),
(315,431,o),
(371,402,o),
(400,349,c),
(412,212,o),
(363,64,o),
(254,64,cs),
(170,64,o),
(133,137,o),
(133,230,cs)
);
}
);
visible = 1;
width = 533;
}
);
unicode = 8706;
}
{
glyphname = existential;
layers = (
{
anchors = (
{
name = center;
pos = (287,357);
}
);
layerId = master01;
shapes = (
{
closed = 1;
nodes = (
(523,0,l),
(523,715,l),
(59,715,l),
(59,635,l),
(440,635,l),
(440,411,l),
(80,411,l),
(80,331,l),
(440,331,l),
(440,80,l),
(51,80,l),
(51,0,l)
);
}
);
width = 574;
}
);
unicode = 8707;
}
{
glyphname = theredoesnotexist;
layers = (
{
layerId = master01;
shapes = (
{
closed = 1;
nodes = (
(223,0,l),
(523,0,l),
(523,715,l),
(411,715,l),
(431,788,l),
(368,803,l),
(344,715,l),
(59,715,l),
(59,635,l),
(323,635,l),
(264,411,l),
(80,411,l),
(80,331,l),
(243,331,l),
(177,80,l),
(51,80,l),
(51,0,l),
(156,0,l),
(139,-64,l),
(202,-79,l)
);
},
{
closed = 1;
nodes = (
(310,331,l),
(440,331,l),
(440,80,l),
(244,80,l)
);
},
{
closed = 1;
nodes = (
(390,635,l),
(440,635,l),
(440,411,l),
(331,411,l)
);
}
);
width = 574;
}
);
unicode = 8708;
}
{
glyphname = Nabla;
layers = (
{
anchors = (
{
name = center;
pos = (290,357);
}
);
layerId = master01;
shapes = (
{
closed = 1;
nodes = (
(336,0,l),
(561,659,l),
(561,714,l),
(20,714,l),
(20,660,l),
(246,0,l)
);
},
{
closed = 1;
nodes = (
(282,144,o),
(266,197,o),
(245,259,cs),
(119,635,l),
(465,635,l),
(338,259,ls),
(325,220,o),
(310,167,o),
(292,98,c)
);
}
);
width = 581;
}
);
unicode = 8711;
}
{
glyphname = element;
layers = (
{
anchors = (
{
name = center;
pos = (349,277);
}
);
layerId = master01;
shapes = (
{
closed = 1;
nodes = (
(648,-14,l),
(648,57,l),
(382,57,ls),
(214,57,o),
(123,133,o),
(123,277,cs),
(123,421,o),
(212,497,o),
(382,497,cs),
(648,497,l),
(648,568,l),
(394,568,ls),
(169,568,o),
(51,468,o),
(51,277,cs),
(51,86,o),
(171,-14,o),
(394,-14,cs)
);
},
{
closed = 1;
nodes = (
(648,242,l),
(648,313,l),
(87,313,l),
(87,242,l)
);
}
);
width = 699;
}
);
unicode = 8712;
}
{
glyphname = notelement;
layers = (
{
anchors = (
{
name = center;
pos = (349,281);
}
);
layerId = master01;
shapes = (
{
closed = 1;
nodes = (
(595,662,l),
(534,688,l),
(234,-91,l),
(295,-117,l)
);
},
{
ref = element;
}
);
width = 699;
}
);
unicode = 8713;
}
{
glyphname = elementSmall;
layers = (
{
anchors = (
{
name = center;
pos = (278,352);
}
);
layerId = master01;
shapes = (
{
closed = 1;
nodes = (
(505,133,l),
(505,204,l),
(308,204,ls),
(194,204,o),
(132,242,o),
(120,317,c),
(505,317,l),
(505,388,l),
(120,388,l),
(133,463,o),
(196,501,o),
(308,501,cs),
(505,501,l),
(505,572,l),
(308,572,ls),
(142,572,o),
(51,497,o),
(51,352,cs),
(51,209,o),
(140,133,o),
(308,133,cs)
);
}
);
width = 556;
}
);
unicode = 8714;
}
{
glyphname = suchthat;
layers = (
{
anchors = (
{
name = center;
pos = (349,352);
}
);
layerId = master01;
shapes = (
{
closed = 1;
nodes = (
(305,61,ls),
(528,61,o),
(648,161,o),
(648,352,cs),
(648,543,o),
(530,643,o),
(305,643,cs),
(51,643,l),
(51,572,l),
(317,572,ls),
(487,572,o),
(576,496,o),
(576,352,cs),
(576,208,o),
(485,132,o),
(317,132,cs),
(51,132,l),
(51,61,l)
);
},
{
closed = 1;
nodes = (
(612,317,l),
(612,388,l),
(51,388,l),
(51,317,l)
);
}
);
width = 699;
}
);
unicode = 8715;
}
{
glyphname = notcontains;
layers = (
{
anchors = (
{
name = center;
pos = (349,281);
}
);
layerId = master01;
shapes = (
{
closed = 1;
nodes = (
(495,662,l),
(434,688,l),
(134,-91,l),
(195,-117,l)
);
},
{
ref = suchthat;
}
);
width = 699;
}
);
unicode = 8716;
}
{
glyphname = containsasmemberSmall;
layers = (
{
anchors = (
{
name = center;
pos = (278,278);
}
);
layerId = master01;
shapes = (
{
closed = 1;
nodes = (
(248,59,ls),
(416,59,o),
(505,135,o),
(505,278,cs),
(505,422,o),
(416,498,o),
(248,498,cs),
(51,498,l),
(51,427,l),
(256,427,ls),
(384,427,o),
(435,370,o),
(435,278,cs),
(435,186,o),
(384,130,o),
(256,130,cs),
(51,130,l),
(51,59,l)
);
},
{
closed = 1;
nodes = (
(452,243,l),
(452,314,l),
(51,314,l),
(51,243,l)
);
}
);
width = 556;
}
);
unicode = 8717;
}
{
glyphname = endofproof;
layers = (
{
layerId = master01;
shapes = (
{
closed = 1;
nodes = (
(507,0,l),
(507,672,l),
(51,672,l),
(51,0,l)
);
}
);
width = 558;
}
);
unicode = 8718;
}
{
glyphname = product;
layers = (
{
anchors = (
{
name = center;
pos = (324,237);
}
);
layerId = master01;
shapes = (
{
closed = 1;
nodes = (
(141,-240,l),
(141,634,l),
(508,634,l),
(508,-240,l),
(598,-240,l),
(598,714,l),
(51,714,l),
(51,-240,l)
);
}
);
width = 649;
}
);
unicode = 8719;
userData = {
com.nagwa.MATHPlugin.extendedShape = 1;
com.nagwa.MATHPlugin.variants = {
vVariants = (
product,
product.s1
);
};
};
}
{
glyphname = coproduct;
layers = (
{
anchors = (
{
name = center;
pos = (408,237);
}
);
layerId = master01;
shapes = (
{
closed = 1;
nodes = (
(866,-240,l),
(866,-188,l),
(782,-169,l),
(782,714,l),
(692,714,l),
(692,-160,l),
(225,-160,l),
(225,714,l),
(135,714,l),
(135,-169,l),
(51,-188,l),
(51,-240,l)
);
}
);
width = 917;
}
);
metricLeft = "=51";
metricRight = "=|";
unicode = 8720;
userData = {
com.nagwa.MATHPlugin.extendedShape = 1;
com.nagwa.MATHPlugin.variants = {
vVariants = (
coproduct,
coproduct.s01
);
};
};
}
{
glyphname = summation;
layers = (
{
anchors = (
{
name = center;
pos = (338,237);
}
);
layerId = master01;
shapes = (
{
closed = 1;
nodes = (
(626,-240,l),
(626,-161,l),
(173,-161,l),
(463,264,l),
(185,635,l),
(594,635,l),
(594,714,l),
(59,714,l),
(59,658,l),
(357,262,l),
(51,-185,l),
(51,-240,l)
);
}
);
width = 677;
}
);
unicode = 8721;
userData = {
com.nagwa.MATHPlugin.extendedShape = 1;
com.nagwa.MATHPlugin.variants = {
vVariants = (
summation,
summation.s1
);
};
};
}
{
glyphname = minus;
layers = (
{
anchors = (
{
name = center;
pos = (286,278);
}
);
layerId = master01;
shapes = (
{
closed = 1;
nodes = (
(521,242,l),
(521,313,l),
(51,313,l),
(51,242,l)
);
}
);
width = 572;
}
);
unicode = 8722;
}
{
glyphname = minusplus;
layers = (
{
anchors = (
{
name = center;
pos = (286,408);
}
);
layerId = master01;
shapes = (
{
closed = 1;
nodes = (
(322,109,l),
(322,316,l),
(521,316,l),
(521,387,l),
(322,387,l),
(322,593,l),
(250,593,l),
(250,387,l),
(51,387,l),
(51,316,l),
(250,316,l),
(250,109,l)
);
},
{
closed = 1;
nodes = (
(521,636,l),
(521,707,l),
(51,707,l),
(51,636,l)
);
}
);
width = 572;
}
);
unicode = 8723;
}
{
glyphname = dotplus;
layers = (
{
anchors = (
{
name = center;
pos = (286,433);
}
);
layerId = master01;
shapes = (
{
closed = 1;
nodes = (
(322,109,l),
(322,316,l),
(521,316,l),
(521,387,l),
(322,387,l),
(322,593,l),
(250,593,l),
(250,387,l),
(51,387,l),
(51,316,l),
(250,316,l),
(250,109,l)
);
},
{
closed = 1;
nodes = (
(315,636,o),
(340,654,o),
(340,697,cs),
(340,734,o),
(320,757,o),
(285,757,cs),
(250,757,o),
(229,736,o),
(229,697,cs),
(229,659,o),
(250,636,o),
(285,636,cs)
);
}
);
width = 572;
}
);
unicode = 8724;
}
{
glyphname = divisionslash;
layers = (
{
anchors = (
{
name = center;
pos = (201,277);
}
);
layerId = master01;
shapes = (
{
closed = 1;
nodes = (
(122,-163,l),
(352,718,l),
(281,718,l),
(51,-163,l)
);
}
);
width = 403;
}
);
unicode = 8725;
}
{
glyphname = setminus;
layers = (
{
anchors = (
{
name = center;
pos = (201,278);
}
);
layerId = master01;
shapes = (
{
closed = 1;
nodes = (
(352,-162,l),
(122,719,l),
(51,719,l),
(281,-162,l)
);
}
);
width = 403;
}
);
unicode = 8726;
}
{
glyphname = asteriskmath;
layers = (
{
anchors = (
{
name = center;
pos = (228,278);
}
);
layerId = master01;
shapes = (
{
closed = 1;
nodes = (
(264,94,l),
(259,225,l),
(369,155,l),
(405,217,l),
(290,278,l),
(405,339,l),
(369,401,l),
(259,331,l),
(264,462,l),
(192,462,l),
(197,331,l),
(87,401,l),
(51,339,l),
(166,278,l),
(51,217,l),
(87,155,l),
(197,225,l),
(192,94,l)
);
}
);
width = 456;
}
);
unicode = 8727;
}
{
glyphname = ringoperator;
layers = (
{
anchors = (
{
name = center;
pos = (191,278);
}
);
layerId = master01;
shapes = (
{
closed = 1;
nodes = (
(269,138,o),
(331,200,o),
(331,278,cs),
(331,356,o),
(269,418,o),
(191,418,cs),
(113,418,o),
(51,356,o),
(51,278,cs),
(51,200,o),
(113,138,o),
(191,138,cs)
);
},
{
closed = 1;
nodes = (
(149,202,o),
(115,238,o),
(115,278,cs),
(115,318,o),
(149,354,o),
(191,354,cs),
(232,354,o),
(267,320,o),
(267,278,cs),
(267,237,o),
(232,202,o),
(191,202,cs)
);
}
);
width = 382;
}
);
unicode = 8728;
}
{
glyphname = bulletoperator;
layers = (
{
anchors = (
{
name = _center;
pos = (145,279);
},
{
name = center;
pos = (145,278);
}
);
layerId = master01;
shapes = (
{
closed = 1;
nodes = (
(198,184,o),
(239,225,o),
(239,278,cs),
(239,329,o),
(198,373,o),
(145,373,cs),
(91,373,o),
(51,329,o),
(51,278,cs),
(51,225,o),
(92,184,o),
(145,184,cs)
);
}
);
width = 290;
}
);
unicode = 8729;
}
{
glyphname = proportional;
layers = (
{
anchors = (
{
name = center;
pos = (270,278);
}
);
layerId = master01;
shapes = (
{
closed = 1;
nodes = (
(254,124,o),
(305,161,o),
(344,228,c),
(383,161,o),
(431,126,o),
(489,124,c),
(489,187,l),
(446,189,o),
(413,217,o),
(380,277,c),
(416,341,o),
(447,367,o),
(489,370,c),
(489,433,l),
(433,429,o),
(385,395,o),
(345,328,c),
(306,398,o),
(257,433,o),
(198,433,cs),
(112,433,o),
(51,368,o),
(51,279,cs),
(51,187,o),
(110,124,o),
(198,124,cs)
);
},
{
closed = 1;
nodes = (
(150,187,o),
(116,226,o),
(116,279,cs),
(116,332,o),
(151,370,o),
(201,370,cs),
(246,370,o),
(278,340,o),
(311,279,c),
(276,216,o),
(243,187,o),
(202,187,cs)
);
}
);
width = 540;
}
);
unicode = 8733;
}
{
glyphname = infinity;
layers = (
{
anchors = (
{
name = center;
pos = (464,237);
}
);
layerId = master01;
shapes = (
{
closed = 1;
nodes = (
(540,319,o),
(579,408,o),
(674,408,cs),
(758,408,o),
(813,331,o),
(813,236,cs),
(813,144,o),
(760,64,o),
(672,64,cs),
(591,64,o),
(541,135,o),
(493,260,cs),
(427,433,o),
(339,478,o),
(255,478,cs),
(132,478,o),
(51,375,o),
(51,237,cs),
(51,92,o),
(134,0,o),
(251,1,cs),
(351,2,o),
(420,58,o),
(470,167,cs)
);
},
{
closed = 1;
nodes = (
(443,261,cs),
(390,135,o),
(333,68,o),
(254,68,cs),
(165,68,o),
(119,148,o),
(119,237,cs),
(119,330,o),
(169,412,o),
(256,412,cs),
(336,412,o),
(387,343,o),
(436,219,cs),
(503,47,o),
(572,-3,o),
(676,-3,cs),
(804,-3,o),
(879,103,o),
(879,241,cs),
(879,380,o),
(797,475,o),
(678,475,cs),
(573,475,o),
(512,427,o)
);
}
);
width = 930;
}
);
unicode = 8734;
}
{
glyphname = orthogonal;
layers = (
{
anchors = (
{
name = center;
pos = (326,275);
}
);
layerId = master01;
shapes = (
{
closed = 1;
nodes = (
(601,0,l),
(601,71,l),
(122,71,l),
(122,550,l),
(51,550,l),
(51,0,l)
);
}
);
width = 652;
}
);
unicode = 8735;
}
{
glyphname = sphericalangle;
layers = (
{
anchors = (
{
name = center;
pos = (286,278);
}
);
layerId = master01;
shapes = (
{
closed = 1;
nodes = (
(340,43,o),
(353,74,o),
(364,111,c),
(521,42,l),
(521,120,l),
(382,178,l),
(389,211,o),
(392,244,o),
(392,278,cs),
(392,316,o),
(388,352,o),
(379,389,c),
(521,456,l),
(521,534,l),
(361,454,l),
(349,491,o),
(337,520,o),
(326,539,c),
(267,510,l),
(282,479,o),
(293,451,o),
(302,424,c),
(51,299,l),
(51,249,l),
(304,137,l),
(295,107,o),
(283,77,o),
(267,46,c),
(326,17,l)
);
},
{
closed = 1;
nodes = (
(145,278,l),
(318,360,l),
(323,329,o),
(325,302,o),
(325,278,cs),
(325,250,o),
(323,225,o),
(319,204,c)
);
}
);
width = 572;
}
);
unicode = 8738;
}
{
glyphname = divides;
layers = (
{
layerId = master01;
shapes = (
{
closed = 1;
nodes = (
(122,-120,l),
(122,760,l),
(51,760,l),
(51,-120,l)
);
}
);
width = 173;
}
);
unicode = 8739;
}
{
glyphname = doesnotdivide;
layers = (
{
layerId = master01;
shapes = (
{
closed = 1;
nodes = (
(380,407,l),
(332,451,l),
(51,150,l),
(97,105,l)
);
},
{
pos = (133,0);
ref = divides;
}
);
width = 431;
}
);
unicode = 8740;
}
{
glyphname = notparallel;
layers = (
{
layerId = master01;
shapes = (
{
closed = 1;
nodes = (
(567,549,l),
(519,593,l),
(51,92,l),
(97,47,l)
);
},
{
closed = 1;
nodes = (
(250,-120,l),
(250,760,l),
(179,760,l),
(179,-120,l)
);
},
{
closed = 1;
nodes = (
(437,-120,l),
(437,760,l),
(366,760,l),
(366,-120,l)
);
}
);
width = 616;
}
);
unicode = 8742;
}
{
glyphname = logicaland;
layers = (
{
anchors = (
{
name = center;
pos = (357,290);
}
);
layerId = master01;
shapes = (
{
closed = 1;
nodes = (
(134,0,l),
(357,478,l),
(580,0,l),
(663,0,l),
(382,580,l),
(332,580,l),
(51,0,l)
);
}
);
width = 714;
}
);
unicode = 8743;
}
{
color = 4;
glyphname = intersection;
layers = (
{
anchors = (
{
name = center;
pos = (342,332);
}
);
layerId = master01;
shapes = (
{
closed = 1;
nodes = (
(122,0,l),
(122,324,ls),
(122,507,o),
(194,596,o),
(342,596,cs),
(490,596,o),
(562,506,o),
(562,324,cs),
(562,0,l),
(634,0,l),
(634,321,ls),
(634,545,o),
(534,664,o),
(342,664,cs),
(151,664,o),
(50,545,o),
(50,321,cs),
(50,0,l)
);
}
);
width = 684;
}
);
unicode = 8745;
}
{
glyphname = union;
layers = (
{
anchors = (
{
name = center;
pos = (342,332);
}
);
layerId = master01;
shapes = (
{
closed = 1;
nodes = (
(534,0,o),
(634,119,o),
(634,343,cs),
(634,664,l),
(562,664,l),
(562,340,ls),
(562,158,o),
(490,68,o),
(342,68,cs),
(194,68,o),
(122,157,o),
(122,340,cs),
(122,664,l),
(50,664,l),
(50,343,ls),
(50,119,o),
(151,0,o),
(342,0,cs)
);
}
);
width = 684;
}
);
unicode = 8746;
}
{
glyphname = integral;
layers = (
{
anchors = (
{
name = center;
pos = (190,322);
},
{
name = math.ic;
pos = (527,-282);
}
);
layerId = master01;
shapes = (
{
closed = 1;
nodes = (
(181,-240,o),
(236,-179,o),
(236,-62,cs),
(236,701,ls),
(236,777,o),
(264,815,o),
(319,815,cs),
(337,815,o),
(356,811,o),
(375,803,c),
(375,876,l),
(360,882,o),
(339,885,o),
(312,885,cs),
(205,885,o),
(151,826,o),
(151,707,cs),
(151,-56,ls),
(151,-132,o),
(122,-170,o),
(65,-170,cs),
(45,-170,o),
(25,-166,o),
(5,-158,c),
(5,-230,l),
(25,-237,o),
(47,-240,o),
(73,-240,cs)
);
}
);
userData = {
math = {
italicCorrection = 140;
};
};
width = 387;
}
);
unicode = 8747;
userData = {
com.nagwa.MATHPlugin.extendedShape = 1;
com.nagwa.MATHPlugin.variants = {
vAssembly = (
(
integralbt,
0,
0,
1100
),
(
integralextension,
1,
1300,
1300
),
(
integraltp,
0,
1100,
0
)
);
vVariants = (
integral,
integral.s1
);
};
};
}
